{"glyphs":{"0":{"ha":890,"x_min":56,"x_max":835,"o":"m 338 -8 q 126 65 197 -8 q 56 272 56 138 l 56 746 q 129 965 56 889 q 339 1040 203 1040 l 564 1040 q 765 965 696 1040 q 835 746 835 889 l 835 272 q 764 66 835 140 q 563 -8 693 -8 l 338 -8 m 488 233 q 546 252 526 233 q 565 314 565 271 l 565 718 q 548 781 565 764 q 499 799 531 799 l 394 799 q 342 779 358 799 q 325 718 325 760 l 325 315 q 344 252 325 271 q 404 233 363 233 l 488 233 z "},"1":{"ha":526,"x_min":31,"x_max":464,"o":"m 194 785 l 31 785 l 31 957 l 225 1040 l 464 1040 l 464 0 l 194 0 l 194 785 z "},"2":{"ha":808,"x_min":56,"x_max":769,"o":"m 56 214 l 376 542 q 449 627 425 590 q 472 701 472 664 q 447 765 472 744 q 368 785 422 785 l 72 785 l 72 999 q 242 1029 164 1018 q 419 1040 321 1040 q 669 969 596 1040 q 742 749 742 897 q 704 577 742 651 q 589 424 667 503 l 411 242 l 769 242 l 769 0 l 56 0 l 56 214 z "},"3":{"ha":799,"x_min":47,"x_max":756,"o":"m 456 -8 q 47 29 235 -8 l 47 246 l 350 246 q 458 258 429 246 q 486 304 486 271 l 486 331 q 379 403 486 399 l 132 414 l 132 622 l 367 638 q 449 654 424 640 q 475 699 475 668 l 475 711 q 447 769 475 753 q 344 785 418 785 l 61 785 l 61 1001 q 267 1031 172 1021 q 454 1040 361 1042 q 667 973 592 1038 q 742 778 742 908 l 742 708 q 714 588 742 635 q 625 518 686 540 q 722 438 689 497 q 756 292 756 378 l 756 251 q 676 59 756 126 q 456 -8 597 -8 z "},"4":{"ha":882,"x_min":29,"x_max":858,"o":"m 506 190 l 76 190 l 29 311 l 328 1032 l 603 1032 l 350 418 l 506 418 l 506 571 l 557 704 l 775 704 l 775 418 l 858 418 l 858 232 l 775 190 l 775 0 l 506 0 l 506 190 z "},"5":{"ha":822,"x_min":60,"x_max":778,"o":"m 414 -8 q 264 -1 351 -8 q 93 15 176 7 l 60 19 l 60 233 l 426 233 q 483 247 465 233 q 505 276 501 260 q 508 317 508 292 l 508 360 q 494 415 508 396 q 444 433 481 433 l 383 433 q 336 422 351 433 q 318 385 321 410 l 63 385 l 92 1032 l 735 1032 l 735 790 l 322 790 l 315 633 q 439 661 353 661 l 544 661 q 719 591 660 661 q 778 410 778 521 l 778 258 q 690 55 778 118 q 414 -8 601 -8 z "},"6":{"ha":829,"x_min":51,"x_max":785,"o":"m 376 -8 q 192 35 263 -8 q 87 188 122 79 q 51 493 51 297 q 99 822 51 701 q 234 991 146 942 q 457 1040 322 1040 q 724 1013 617 1040 l 724 799 l 489 799 q 359 753 397 799 q 321 618 321 708 q 399 642 358 636 q 519 647 440 647 q 727 581 669 647 q 785 397 785 515 l 785 247 q 715 54 785 117 q 519 -8 646 -8 l 376 -8 m 456 233 q 502 251 489 233 q 515 304 515 268 l 515 343 q 500 403 515 388 q 440 419 485 419 l 321 419 q 331 306 321 346 q 365 249 342 265 q 432 233 389 233 l 456 233 z "},"7":{"ha":779,"x_min":24,"x_max":757,"o":"m 408 763 l 24 763 l 24 1032 l 692 1032 l 757 924 l 439 0 l 139 0 l 408 763 z "},"8":{"ha":858,"x_min":58,"x_max":800,"o":"m 344 -8 q 137 42 215 -8 q 58 229 58 92 l 58 367 q 83 469 58 424 q 161 528 107 515 q 104 576 122 549 q 83 631 86 603 q 79 708 79 660 l 79 825 q 150 988 79 936 q 331 1040 221 1040 l 528 1040 q 708 988 638 1040 q 779 825 779 936 l 779 708 q 761 606 779 658 q 696 547 743 554 q 779 479 758 532 q 800 367 800 426 l 800 229 q 728 41 800 90 q 532 -8 657 -8 l 344 -8 m 465 642 q 508 657 499 642 q 517 715 517 672 l 517 758 q 503 803 517 793 q 465 813 490 813 l 393 813 q 353 803 364 813 q 342 758 342 794 l 342 715 q 352 655 342 668 q 393 642 363 642 l 465 642 m 465 219 q 519 234 507 219 q 531 283 531 249 l 531 349 q 514 395 531 376 q 468 414 497 414 l 393 414 q 344 396 361 414 q 328 349 328 378 l 328 283 q 342 233 328 247 q 393 219 357 219 l 465 219 z "},"9":{"ha":829,"x_min":47,"x_max":781,"o":"m 375 -8 q 108 19 215 -8 l 108 233 l 343 233 q 473 278 435 233 q 511 414 511 324 q 433 390 474 396 q 313 385 392 385 q 105 451 163 385 q 47 635 47 517 l 47 785 q 117 978 47 915 q 313 1040 186 1040 l 456 1040 q 640 997 569 1040 q 745 844 710 953 q 781 539 781 735 q 733 210 781 331 q 598 41 686 90 q 375 -8 510 -8 m 511 613 q 501 726 511 686 q 467 783 490 767 q 400 799 443 799 l 376 799 q 330 781 343 799 q 317 728 317 764 l 317 689 q 332 628 317 644 q 392 613 347 613 l 511 613 z "},"\r":{"ha":347,"x_min":0,"x_max":0,"o":""}," ":{"ha":347,"x_min":0,"x_max":0,"o":""},"A":{"ha":961,"x_min":7,"x_max":954,"o":"m 313 1032 l 649 1032 l 954 0 l 675 0 l 633 164 l 324 164 l 283 0 l 7 0 l 313 1032 m 571 406 l 478 803 l 386 406 l 571 406 z "},"Á":{"ha":961,"x_min":7,"x_max":954,"o":"m 313 1032 l 649 1032 l 954 0 l 675 0 l 633 164 l 324 164 l 283 0 l 7 0 l 313 1032 m 571 406 l 478 803 l 386 406 l 571 406 m 503 1297 l 717 1297 l 567 1099 l 408 1099 l 503 1297 z "},"Ă":{"ha":961,"x_min":7,"x_max":954,"o":"m 313 1032 l 649 1032 l 954 0 l 675 0 l 633 164 l 324 164 l 283 0 l 7 0 l 313 1032 m 571 406 l 478 803 l 386 406 l 571 406 m 468 1083 q 319 1138 369 1083 q 268 1301 268 1193 l 392 1301 q 414 1227 392 1250 q 468 1204 436 1204 q 544 1301 544 1204 l 671 1301 q 468 1083 671 1083 z "},"Ắ":{"ha":961,"x_min":7,"x_max":954,"o":"m 313 1032 l 649 1032 l 954 0 l 675 0 l 633 164 l 324 164 l 283 0 l 7 0 l 313 1032 m 571 406 l 478 803 l 386 406 l 571 406 m 489 1478 l 703 1478 l 553 1279 l 394 1279 l 489 1478 m 392 1232 q 413 1178 392 1194 q 468 1163 435 1163 q 544 1232 544 1163 l 671 1232 q 468 1056 671 1056 q 319 1100 369 1056 q 268 1232 268 1144 l 392 1232 z "},"Ặ":{"ha":961,"x_min":7,"x_max":954,"o":"m 313 1032 l 649 1032 l 954 0 l 675 0 l 633 164 l 324 164 l 283 0 l 7 0 l 313 1032 m 571 406 l 478 803 l 386 406 l 571 406 m 468 1083 q 319 1138 369 1083 q 268 1301 268 1193 l 392 1301 q 414 1227 392 1250 q 468 1204 436 1204 q 544 1301 544 1204 l 671 1301 q 468 1083 671 1083 m 417 -328 q 392 -319 401 -328 q 383 -296 383 -310 l 383 -142 q 392 -116 383 -125 q 417 -107 400 -107 l 542 -107 q 565 -117 557 -107 q 574 -142 574 -126 l 574 -296 q 565 -319 574 -311 q 542 -328 557 -328 l 417 -328 z "},"Ằ":{"ha":961,"x_min":7,"x_max":954,"o":"m 313 1032 l 649 1032 l 954 0 l 675 0 l 633 164 l 324 164 l 283 0 l 7 0 l 313 1032 m 571 406 l 478 803 l 386 406 l 571 406 m 242 1478 l 456 1478 l 550 1279 l 392 1279 l 242 1478 m 392 1232 q 413 1178 392 1194 q 468 1163 435 1163 q 544 1232 544 1163 l 671 1232 q 468 1056 671 1056 q 319 1100 369 1056 q 268 1232 268 1144 l 392 1232 z "},"Ẳ":{"ha":961,"x_min":7,"x_max":954,"o":"m 313 1032 l 649 1032 l 954 0 l 675 0 l 633 164 l 324 164 l 283 0 l 7 0 l 313 1032 m 571 406 l 478 803 l 386 406 l 571 406 m 435 1336 q 475 1375 475 1347 q 442 1397 475 1397 q 400 1389 428 1397 l 400 1492 q 478 1504 438 1504 q 580 1474 546 1504 q 614 1385 614 1443 q 572 1285 614 1322 q 435 1219 531 1247 l 435 1336 m 468 1056 q 319 1100 369 1056 q 268 1232 268 1144 l 392 1232 q 413 1178 392 1194 q 468 1163 435 1163 q 544 1232 544 1163 l 671 1232 q 468 1056 671 1056 z "},"Ẵ":{"ha":961,"x_min":7,"x_max":954,"o":"m 313 1032 l 649 1032 l 954 0 l 675 0 l 633 164 l 324 164 l 283 0 l 7 0 l 313 1032 m 571 406 l 478 803 l 386 406 l 571 406 m 371 1440 q 461 1425 403 1440 q 513 1414 500 1414 q 553 1450 553 1414 l 686 1450 q 666 1349 681 1385 q 627 1301 651 1314 q 564 1288 603 1288 q 503 1295 535 1288 q 467 1304 472 1303 q 421 1314 433 1314 q 391 1305 401 1314 q 378 1285 381 1296 l 244 1285 q 283 1409 253 1378 q 371 1440 314 1440 m 392 1232 q 413 1178 392 1194 q 468 1163 435 1163 q 544 1232 544 1163 l 671 1232 q 468 1056 671 1056 q 319 1100 369 1056 q 268 1232 268 1144 l 392 1232 z "},"Â":{"ha":961,"x_min":7,"x_max":954,"o":"m 313 1032 l 649 1032 l 954 0 l 675 0 l 633 164 l 324 164 l 283 0 l 7 0 l 313 1032 m 571 406 l 478 803 l 386 406 l 571 406 m 392 1301 l 574 1301 l 700 1099 l 546 1099 l 478 1183 l 408 1099 l 253 1099 l 392 1301 z "},"Ấ":{"ha":961,"x_min":7,"x_max":954,"o":"m 313 1032 l 649 1032 l 954 0 l 675 0 l 633 164 l 324 164 l 283 0 l 7 0 l 313 1032 m 571 406 l 478 803 l 386 406 l 571 406 m 856 1394 l 775 1224 l 617 1224 l 642 1394 l 856 1394 m 574 1260 l 700 1099 l 546 1099 l 478 1142 l 408 1099 l 253 1099 l 392 1260 l 574 1260 z "},"Ậ":{"ha":961,"x_min":7,"x_max":954,"o":"m 313 1032 l 649 1032 l 954 0 l 675 0 l 633 164 l 324 164 l 283 0 l 7 0 l 313 1032 m 571 406 l 478 803 l 386 406 l 571 406 m 392 1301 l 574 1301 l 700 1099 l 546 1099 l 478 1183 l 408 1099 l 253 1099 l 392 1301 m 417 -328 q 392 -319 401 -328 q 383 -296 383 -310 l 383 -142 q 392 -116 383 -125 q 417 -107 400 -107 l 542 -107 q 565 -117 557 -107 q 574 -142 574 -126 l 574 -296 q 565 -319 574 -311 q 542 -328 557 -328 l 417 -328 z "},"Ầ":{"ha":961,"x_min":7,"x_max":954,"o":"m 313 1032 l 649 1032 l 954 0 l 675 0 l 633 164 l 324 164 l 283 0 l 7 0 l 313 1032 m 571 406 l 478 803 l 386 406 l 571 406 m 317 1394 l 342 1224 l 183 1224 l 103 1394 l 317 1394 m 574 1260 l 700 1099 l 546 1099 l 478 1142 l 408 1099 l 253 1099 l 392 1260 l 574 1260 z "},"Ẩ":{"ha":961,"x_min":7,"x_max":954,"o":"m 313 1032 l 649 1032 l 954 0 l 675 0 l 633 164 l 324 164 l 283 0 l 7 0 l 313 1032 m 571 406 l 478 803 l 386 406 l 571 406 m 651 1294 q 678 1325 678 1303 q 658 1344 678 1344 q 617 1336 644 1344 l 617 1425 q 694 1438 654 1438 q 803 1343 803 1438 q 767 1240 803 1279 q 651 1178 731 1200 l 651 1294 m 392 1260 l 574 1260 l 700 1099 l 546 1099 l 478 1142 l 408 1099 l 253 1099 l 392 1260 z "},"Ẫ":{"ha":961,"x_min":7,"x_max":954,"o":"m 313 1032 l 649 1032 l 954 0 l 675 0 l 633 164 l 324 164 l 283 0 l 7 0 l 313 1032 m 571 406 l 478 803 l 386 406 l 571 406 m 371 1468 q 416 1463 393 1468 q 460 1453 439 1458 q 513 1442 499 1442 q 553 1478 553 1442 l 686 1478 q 666 1377 681 1413 q 627 1328 651 1342 q 564 1315 603 1315 q 497 1323 531 1315 q 458 1332 464 1331 q 407 1342 419 1342 q 378 1313 385 1342 l 244 1313 q 283 1437 253 1406 q 371 1468 314 1468 m 700 1099 l 546 1099 l 478 1142 l 408 1099 l 253 1099 l 392 1260 l 574 1260 l 700 1099 z "},"Ȁ":{"ha":961,"x_min":7,"x_max":954,"o":"m 313 1032 l 649 1032 l 954 0 l 675 0 l 633 164 l 324 164 l 283 0 l 7 0 l 313 1032 m 571 406 l 478 803 l 386 406 l 571 406 m 132 1297 l 346 1297 l 440 1099 l 282 1099 l 132 1297 m 410 1297 l 624 1297 l 718 1099 l 560 1099 l 410 1297 z "},"Ä":{"ha":961,"x_min":7,"x_max":954,"o":"m 313 1032 l 649 1032 l 954 0 l 675 0 l 633 164 l 324 164 l 283 0 l 7 0 l 313 1032 m 571 406 l 478 803 l 386 406 l 571 406 m 271 1093 q 247 1102 256 1093 q 238 1125 238 1111 l 238 1279 q 246 1305 238 1296 q 271 1314 254 1314 l 396 1314 q 419 1304 411 1314 q 428 1279 428 1294 l 428 1125 q 419 1101 428 1110 q 396 1093 411 1093 l 271 1093 m 544 1093 q 520 1102 529 1093 q 511 1125 511 1111 l 511 1279 q 519 1305 511 1296 q 544 1314 528 1314 l 669 1314 q 693 1304 685 1314 q 701 1279 701 1294 l 701 1125 q 693 1101 701 1110 q 669 1093 685 1093 l 544 1093 z "},"Ạ":{"ha":961,"x_min":7,"x_max":954,"o":"m 313 1032 l 649 1032 l 954 0 l 675 0 l 633 164 l 324 164 l 283 0 l 7 0 l 313 1032 m 571 406 l 478 803 l 386 406 l 571 406 m 417 -328 q 392 -319 401 -328 q 383 -296 383 -310 l 383 -142 q 392 -116 383 -125 q 417 -107 400 -107 l 542 -107 q 565 -117 557 -107 q 574 -142 574 -126 l 574 -296 q 565 -319 574 -311 q 542 -328 557 -328 l 417 -328 z "},"À":{"ha":961,"x_min":7,"x_max":954,"o":"m 313 1032 l 649 1032 l 954 0 l 675 0 l 633 164 l 324 164 l 283 0 l 7 0 l 313 1032 m 571 406 l 478 803 l 386 406 l 571 406 m 283 1297 l 497 1297 l 592 1099 l 433 1099 l 283 1297 z "},"Ả":{"ha":961,"x_min":7,"x_max":954,"o":"m 313 1032 l 649 1032 l 954 0 l 675 0 l 633 164 l 324 164 l 283 0 l 7 0 l 313 1032 m 571 406 l 478 803 l 386 406 l 571 406 m 431 1183 q 471 1222 471 1194 q 438 1244 471 1244 q 396 1236 424 1244 l 396 1339 q 474 1351 433 1351 q 576 1321 542 1351 q 610 1232 610 1290 q 568 1132 610 1169 q 431 1067 526 1094 l 431 1183 z "},"Ȃ":{"ha":961,"x_min":7,"x_max":954,"o":"m 313 1032 l 649 1032 l 954 0 l 675 0 l 633 164 l 324 164 l 283 0 l 7 0 l 313 1032 m 571 406 l 478 803 l 386 406 l 571 406 m 482 1306 q 631 1251 581 1306 q 682 1088 682 1196 l 558 1088 q 536 1162 558 1139 q 482 1185 514 1185 q 406 1088 406 1185 l 279 1088 q 482 1306 279 1306 z "},"Ā":{"ha":961,"x_min":7,"x_max":954,"o":"m 313 1032 l 649 1032 l 954 0 l 675 0 l 633 164 l 324 164 l 283 0 l 7 0 l 313 1032 m 571 406 l 478 803 l 386 406 l 571 406 m 268 1257 l 674 1257 l 674 1099 l 268 1099 l 268 1257 z "},"Ą":{"ha":961,"x_min":7,"x_max":954,"o":"m 313 1032 l 649 1032 l 954 0 l 675 0 l 633 164 l 324 164 l 283 0 l 7 0 l 313 1032 m 571 406 l 478 803 l 386 406 l 571 406 m 739 -272 q 626 -234 661 -272 q 590 -144 590 -196 q 613 -58 590 -94 q 675 0 636 -22 l 771 0 q 728 -40 740 -21 q 717 -82 717 -58 q 734 -124 717 -108 q 775 -140 751 -140 l 789 -140 l 789 -265 q 739 -272 775 -272 z "},"Å":{"ha":961,"x_min":7,"x_max":954,"o":"m 313 1032 l 649 1032 l 954 0 l 675 0 l 633 164 l 324 164 l 283 0 l 7 0 l 313 1032 m 571 406 l 478 803 l 386 406 l 571 406 m 479 1069 q 341 1106 386 1069 q 296 1232 296 1143 q 342 1358 296 1321 q 479 1396 388 1396 q 617 1358 572 1396 q 661 1232 661 1321 q 617 1106 661 1143 q 479 1069 572 1069 m 479 1165 q 525 1180 511 1165 q 539 1232 539 1194 q 525 1285 539 1269 q 479 1300 511 1300 q 433 1285 447 1300 q 418 1232 418 1269 q 433 1181 418 1196 q 479 1165 447 1165 z "},"Ǻ":{"ha":961,"x_min":7,"x_max":954,"o":"m 479 1069 q 341 1106 386 1069 q 296 1232 296 1143 q 326 1341 296 1303 q 415 1390 356 1379 l 503 1575 l 717 1575 l 572 1383 q 661 1232 661 1354 q 617 1106 661 1143 q 479 1069 572 1069 m 479 1165 q 525 1180 511 1165 q 539 1232 539 1194 q 525 1285 539 1269 q 479 1300 511 1300 q 433 1285 447 1300 q 418 1232 418 1269 q 433 1181 418 1196 q 479 1165 447 1165 m 954 0 l 675 0 l 633 164 l 324 164 l 283 0 l 7 0 l 313 1032 l 649 1032 l 954 0 m 571 406 l 478 803 l 386 406 l 571 406 z "},"Ã":{"ha":961,"x_min":7,"x_max":954,"o":"m 313 1032 l 649 1032 l 954 0 l 675 0 l 633 164 l 324 164 l 283 0 l 7 0 l 313 1032 m 571 406 l 478 803 l 386 406 l 571 406 m 203 1079 q 251 1233 210 1185 q 357 1281 292 1281 q 420 1272 393 1281 q 476 1250 447 1264 q 517 1234 500 1239 q 551 1229 533 1229 q 594 1290 590 1229 l 728 1290 q 578 1082 718 1082 q 513 1090 543 1082 q 451 1114 483 1099 q 424 1124 447 1115 q 382 1133 401 1133 q 336 1079 344 1133 l 203 1079 z "},"Æ":{"ha":1378,"x_min":7,"x_max":1328,"o":"m 915 -8 q 721 27 785 -8 q 644 154 657 63 l 643 164 l 363 164 l 269 0 l 7 0 l 374 714 q 509 906 436 836 q 676 1003 582 975 q 901 1032 769 1032 q 1328 1010 1121 1032 l 1328 783 l 957 783 q 901 767 918 783 q 885 717 885 750 l 885 636 l 1258 622 l 1258 408 l 885 394 l 885 317 q 897 267 885 282 q 926 248 910 251 q 971 244 943 244 l 1328 244 l 1328 19 q 915 -8 1115 -8 m 643 392 l 643 732 l 481 392 l 643 392 z "},"Ǽ":{"ha":1378,"x_min":7,"x_max":1328,"o":"m 915 -8 q 721 27 785 -8 q 644 154 657 63 l 643 164 l 363 164 l 269 0 l 7 0 l 374 714 q 509 906 436 836 q 676 1003 582 975 q 901 1032 769 1032 q 1328 1010 1121 1032 l 1328 783 l 957 783 q 901 767 918 783 q 885 717 885 750 l 885 636 l 1258 622 l 1258 408 l 885 394 l 885 317 q 897 267 885 282 q 926 248 910 251 q 971 244 943 244 l 1328 244 l 1328 19 q 915 -8 1115 -8 m 643 392 l 643 732 l 481 392 l 643 392 m 767 1297 l 981 1297 l 831 1099 l 672 1099 l 767 1297 z "},"B":{"ha":893,"x_min":76,"x_max":849,"o":"m 76 1032 l 504 1032 q 817 757 817 1032 q 781 610 817 667 q 675 536 746 554 q 801 452 753 517 q 849 283 849 388 q 769 67 849 133 q 525 0 689 0 l 76 0 l 76 1032 m 501 626 q 546 649 531 626 q 561 708 561 672 q 544 771 561 751 q 501 790 526 790 l 346 790 l 346 626 l 501 626 m 517 242 q 573 266 553 242 q 593 332 593 290 q 573 398 593 374 q 517 422 553 422 l 346 422 l 346 242 l 517 242 z "},"Ḃ":{"ha":893,"x_min":76,"x_max":849,"o":"m 76 1032 l 504 1032 q 817 757 817 1032 q 781 610 817 667 q 675 536 746 554 q 801 452 753 517 q 849 283 849 388 q 769 67 849 133 q 525 0 689 0 l 76 0 l 76 1032 m 501 626 q 546 649 531 626 q 561 708 561 672 q 544 771 561 751 q 501 790 526 790 l 346 790 l 346 626 l 501 626 m 517 242 q 573 266 553 242 q 593 332 593 290 q 573 398 593 374 q 517 422 553 422 l 346 422 l 346 242 l 517 242 m 342 1103 q 317 1112 326 1103 q 308 1135 308 1121 l 308 1289 q 317 1315 308 1306 q 342 1324 325 1324 l 467 1324 q 490 1314 482 1324 q 499 1289 499 1304 l 499 1135 q 490 1111 499 1119 q 467 1103 482 1103 l 342 1103 z "},"C":{"ha":818,"x_min":50,"x_max":768,"o":"m 429 -8 q 220 33 301 -8 q 94 190 139 75 q 50 519 50 306 q 97 841 50 726 q 225 999 143 956 q 429 1042 307 1042 q 630 1025 544 1042 q 768 986 715 1008 l 768 776 q 649 793 722 786 q 489 800 575 800 q 386 780 421 800 q 335 700 351 760 q 319 517 319 640 q 333 340 319 399 q 382 258 346 282 q 492 233 418 233 q 768 246 674 233 l 768 36 q 429 -8 657 -8 z "},"Ć":{"ha":818,"x_min":50,"x_max":768,"o":"m 429 -8 q 220 33 301 -8 q 94 190 139 75 q 50 519 50 306 q 97 841 50 726 q 225 999 143 956 q 429 1042 307 1042 q 630 1025 544 1042 q 768 986 715 1008 l 768 776 q 649 793 722 786 q 489 800 575 800 q 386 780 421 800 q 335 700 351 760 q 319 517 319 640 q 333 340 319 399 q 382 258 346 282 q 492 233 418 233 q 768 246 674 233 l 768 36 q 429 -8 657 -8 m 456 1297 l 669 1297 l 519 1099 l 361 1099 l 456 1297 z "},"Č":{"ha":818,"x_min":50,"x_max":768,"o":"m 429 -8 q 220 33 301 -8 q 94 190 139 75 q 50 519 50 306 q 97 841 50 726 q 225 999 143 956 q 429 1042 307 1042 q 630 1025 544 1042 q 768 986 715 1008 l 768 776 q 649 793 722 786 q 489 800 575 800 q 386 780 421 800 q 335 700 351 760 q 319 517 319 640 q 333 340 319 399 q 382 258 346 282 q 492 233 418 233 q 768 246 674 233 l 768 36 q 429 -8 657 -8 m 208 1301 l 363 1301 l 431 1217 l 500 1301 l 656 1301 l 517 1099 l 335 1099 l 208 1301 z "},"Ç":{"ha":818,"x_min":50,"x_max":768,"o":"m 489 800 q 386 780 421 800 q 335 700 351 760 q 319 517 319 640 q 333 340 319 399 q 382 258 346 282 q 492 233 418 233 q 768 246 674 233 l 768 36 q 553 -4 688 3 l 514 -68 q 576 -97 551 -74 q 601 -162 601 -121 q 563 -251 601 -219 q 444 -282 524 -282 l 363 -282 l 363 -172 l 383 -168 q 428 -131 428 -160 q 383 -86 428 -99 l 431 -8 l 429 -8 q 220 33 301 -8 q 94 190 139 75 q 50 519 50 306 q 97 841 50 726 q 225 999 143 956 q 429 1042 307 1042 q 630 1025 544 1042 q 768 986 715 1008 l 768 776 q 649 793 722 786 q 489 800 575 800 z "},"Ḉ":{"ha":818,"x_min":50,"x_max":768,"o":"m 519 1099 l 361 1099 l 456 1297 l 669 1297 l 519 1099 m 489 800 q 386 780 421 800 q 335 700 351 760 q 319 517 319 640 q 333 340 319 399 q 382 258 346 282 q 492 233 418 233 q 768 246 674 233 l 768 36 q 553 -4 688 3 l 514 -68 q 576 -97 551 -74 q 601 -162 601 -121 q 563 -251 601 -219 q 444 -282 524 -282 l 363 -282 l 363 -172 l 383 -168 q 428 -131 428 -160 q 383 -86 428 -99 l 431 -8 l 429 -8 q 220 33 301 -8 q 94 190 139 75 q 50 519 50 306 q 97 841 50 726 q 225 999 143 956 q 429 1042 307 1042 q 630 1025 544 1042 q 768 986 715 1008 l 768 776 q 649 793 722 786 q 489 800 575 800 z "},"Ĉ":{"ha":818,"x_min":50,"x_max":768,"o":"m 429 -8 q 220 33 301 -8 q 94 190 139 75 q 50 519 50 306 q 97 841 50 726 q 225 999 143 956 q 429 1042 307 1042 q 630 1025 544 1042 q 768 986 715 1008 l 768 776 q 649 793 722 786 q 489 800 575 800 q 386 780 421 800 q 335 700 351 760 q 319 517 319 640 q 333 340 319 399 q 382 258 346 282 q 492 233 418 233 q 768 246 674 233 l 768 36 q 429 -8 657 -8 m 344 1301 l 526 1301 l 653 1099 l 499 1099 l 431 1183 l 361 1099 l 206 1099 l 344 1301 z "},"Ċ":{"ha":818,"x_min":50,"x_max":768,"o":"m 429 -8 q 220 33 301 -8 q 94 190 139 75 q 50 519 50 306 q 97 841 50 726 q 225 999 143 956 q 429 1042 307 1042 q 630 1025 544 1042 q 768 986 715 1008 l 768 776 q 649 793 722 786 q 489 800 575 800 q 386 780 421 800 q 335 700 351 760 q 319 517 319 640 q 333 340 319 399 q 382 258 346 282 q 492 233 418 233 q 768 246 674 233 l 768 36 q 429 -8 657 -8 m 364 1103 q 340 1112 349 1103 q 331 1135 331 1121 l 331 1289 q 339 1315 331 1306 q 364 1324 347 1324 l 489 1324 q 513 1314 504 1324 q 521 1289 521 1304 l 521 1135 q 513 1111 521 1119 q 489 1103 504 1103 l 364 1103 z "},"D":{"ha":956,"x_min":76,"x_max":906,"o":"m 76 1032 l 532 1032 q 823 895 740 1032 q 906 515 906 758 q 814 123 906 246 q 532 0 722 0 l 76 0 l 76 1032 m 504 242 q 608 304 579 242 q 636 515 636 367 q 621 692 636 633 q 578 771 606 751 q 504 790 550 790 l 346 790 l 346 242 l 504 242 z "},"Ð":{"ha":956,"x_min":14,"x_max":906,"o":"m 532 1032 q 823 895 740 1032 q 906 515 906 758 q 814 123 906 246 q 532 0 722 0 l 76 0 l 76 432 l 14 432 l 14 604 l 76 604 l 76 1032 l 532 1032 m 504 242 q 608 304 579 242 q 636 515 636 367 q 621 692 636 633 q 578 771 606 751 q 504 790 550 790 l 346 790 l 346 604 l 464 604 l 464 432 l 346 432 l 346 242 l 504 242 z "},"Ď":{"ha":956,"x_min":76,"x_max":906,"o":"m 76 1032 l 532 1032 q 823 895 740 1032 q 906 515 906 758 q 814 123 906 246 q 532 0 722 0 l 76 0 l 76 1032 m 504 242 q 608 304 579 242 q 636 515 636 367 q 621 692 636 633 q 578 771 606 751 q 504 790 550 790 l 346 790 l 346 242 l 504 242 m 242 1301 l 396 1301 l 464 1217 l 533 1301 l 689 1301 l 550 1099 l 368 1099 l 242 1301 z "},"Đ":{"ha":956,"x_min":14,"x_max":906,"o":"m 532 1032 q 823 895 740 1032 q 906 515 906 758 q 814 123 906 246 q 532 0 722 0 l 76 0 l 76 432 l 14 432 l 14 604 l 76 604 l 76 1032 l 532 1032 m 504 242 q 608 304 579 242 q 636 515 636 367 q 621 692 636 633 q 578 771 606 751 q 504 790 550 790 l 346 790 l 346 604 l 464 604 l 464 432 l 346 432 l 346 242 l 504 242 z "},"Ḋ":{"ha":956,"x_min":76,"x_max":906,"o":"m 76 1032 l 532 1032 q 823 895 740 1032 q 906 515 906 758 q 814 123 906 246 q 532 0 722 0 l 76 0 l 76 1032 m 504 242 q 608 304 579 242 q 636 515 636 367 q 621 692 636 633 q 578 771 606 751 q 504 790 550 790 l 346 790 l 346 242 l 504 242 m 397 1103 q 373 1112 382 1103 q 364 1135 364 1121 l 364 1289 q 372 1315 364 1306 q 397 1324 381 1324 l 522 1324 q 546 1314 538 1324 q 554 1289 554 1304 l 554 1135 q 546 1111 554 1119 q 522 1103 538 1103 l 397 1103 z "},"Ḍ":{"ha":956,"x_min":76,"x_max":906,"o":"m 76 1032 l 532 1032 q 823 895 740 1032 q 906 515 906 758 q 814 123 906 246 q 532 0 722 0 l 76 0 l 76 1032 m 504 242 q 608 304 579 242 q 636 515 636 367 q 621 692 636 633 q 578 771 606 751 q 504 790 550 790 l 346 790 l 346 242 l 504 242 m 342 -328 q 317 -319 326 -328 q 308 -296 308 -310 l 308 -142 q 317 -116 308 -125 q 342 -107 325 -107 l 467 -107 q 490 -117 482 -107 q 499 -142 499 -126 l 499 -296 q 490 -319 499 -311 q 467 -328 482 -328 l 342 -328 z "},"Ḏ":{"ha":956,"x_min":76,"x_max":906,"o":"m 76 1032 l 532 1032 q 823 895 740 1032 q 906 515 906 758 q 814 123 906 246 q 532 0 722 0 l 76 0 l 76 1032 m 504 242 q 608 304 579 242 q 636 515 636 367 q 621 692 636 633 q 578 771 606 751 q 504 790 550 790 l 346 790 l 346 242 l 504 242 m 207 -160 l 613 -160 l 613 -318 l 207 -318 l 207 -160 z "},"E":{"ha":839,"x_min":76,"x_max":789,"o":"m 349 -8 q 76 238 76 -8 l 76 776 q 152 973 76 914 q 333 1032 228 1032 q 789 1011 583 1032 l 789 783 l 417 783 q 346 722 346 783 l 346 636 l 719 622 l 719 408 l 346 394 l 346 317 q 362 263 346 281 q 406 244 378 244 l 789 244 l 789 17 q 581 -2 703 4 q 349 -8 460 -8 z "},"É":{"ha":839,"x_min":76,"x_max":789,"o":"m 349 -8 q 76 238 76 -8 l 76 776 q 152 973 76 914 q 333 1032 228 1032 q 789 1011 583 1032 l 789 783 l 417 783 q 346 722 346 783 l 346 636 l 719 622 l 719 408 l 346 394 l 346 317 q 362 263 346 281 q 406 244 378 244 l 789 244 l 789 17 q 581 -2 703 4 q 349 -8 460 -8 m 461 1297 l 675 1297 l 525 1099 l 367 1099 l 461 1297 z "},"Ĕ":{"ha":839,"x_min":76,"x_max":789,"o":"m 349 -8 q 76 238 76 -8 l 76 776 q 152 973 76 914 q 333 1032 228 1032 q 789 1011 583 1032 l 789 783 l 417 783 q 346 722 346 783 l 346 636 l 719 622 l 719 408 l 346 394 l 346 317 q 362 263 346 281 q 406 244 378 244 l 789 244 l 789 17 q 581 -2 703 4 q 349 -8 460 -8 m 426 1083 q 277 1138 328 1083 q 226 1301 226 1193 l 350 1301 q 372 1227 350 1250 q 426 1204 394 1204 q 503 1301 503 1204 l 629 1301 q 426 1083 629 1083 z "},"Ě":{"ha":839,"x_min":76,"x_max":789,"o":"m 349 -8 q 76 238 76 -8 l 76 776 q 152 973 76 914 q 333 1032 228 1032 q 789 1011 583 1032 l 789 783 l 417 783 q 346 722 346 783 l 346 636 l 719 622 l 719 408 l 346 394 l 346 317 q 362 263 346 281 q 406 244 378 244 l 789 244 l 789 17 q 581 -2 703 4 q 349 -8 460 -8 m 214 1301 l 368 1301 l 436 1217 l 506 1301 l 661 1301 l 522 1099 l 340 1099 l 214 1301 z "},"Ḝ":{"ha":839,"x_min":76,"x_max":789,"o":"m 426 1083 q 277 1138 328 1083 q 226 1301 226 1193 l 350 1301 q 372 1227 350 1250 q 426 1204 394 1204 q 503 1301 503 1204 l 629 1301 q 426 1083 629 1083 m 417 783 q 346 722 346 783 l 346 636 l 719 622 l 719 408 l 346 394 l 346 317 q 362 263 346 281 q 406 244 378 244 l 789 244 l 789 17 q 554 -3 708 4 l 515 -68 q 578 -97 553 -74 q 603 -162 603 -121 q 564 -251 603 -219 q 446 -282 525 -282 l 364 -282 l 364 -172 l 385 -168 q 429 -131 429 -160 q 385 -86 429 -99 l 433 -7 q 349 -8 404 -8 q 76 238 76 -8 l 76 776 q 152 973 76 914 q 333 1032 228 1032 q 789 1011 583 1032 l 789 783 l 417 783 z "},"Ê":{"ha":839,"x_min":76,"x_max":789,"o":"m 349 -8 q 76 238 76 -8 l 76 776 q 152 973 76 914 q 333 1032 228 1032 q 789 1011 583 1032 l 789 783 l 417 783 q 346 722 346 783 l 346 636 l 719 622 l 719 408 l 346 394 l 346 317 q 362 263 346 281 q 406 244 378 244 l 789 244 l 789 17 q 581 -2 703 4 q 349 -8 460 -8 m 350 1301 l 532 1301 l 658 1099 l 504 1099 l 436 1183 l 367 1099 l 211 1099 l 350 1301 z "},"Ế":{"ha":839,"x_min":76,"x_max":814,"o":"m 349 -8 q 76 238 76 -8 l 76 776 q 152 973 76 914 q 333 1032 228 1032 q 789 1011 583 1032 l 789 783 l 417 783 q 346 722 346 783 l 346 636 l 719 622 l 719 408 l 346 394 l 346 317 q 362 263 346 281 q 406 244 378 244 l 789 244 l 789 17 q 581 -2 703 4 q 349 -8 460 -8 m 814 1394 l 733 1224 l 575 1224 l 600 1394 l 814 1394 m 532 1260 l 658 1099 l 504 1099 l 436 1142 l 367 1099 l 211 1099 l 350 1260 l 532 1260 z "},"Ệ":{"ha":839,"x_min":76,"x_max":789,"o":"m 349 -8 q 76 238 76 -8 l 76 776 q 152 973 76 914 q 333 1032 228 1032 q 789 1011 583 1032 l 789 783 l 417 783 q 346 722 346 783 l 346 636 l 719 622 l 719 408 l 346 394 l 346 317 q 362 263 346 281 q 406 244 378 244 l 789 244 l 789 17 q 581 -2 703 4 q 349 -8 460 -8 m 350 1301 l 532 1301 l 658 1099 l 504 1099 l 436 1183 l 367 1099 l 211 1099 l 350 1301 m 413 -328 q 388 -319 397 -328 q 379 -296 379 -310 l 379 -142 q 388 -116 379 -125 q 413 -107 396 -107 l 538 -107 q 561 -117 553 -107 q 569 -142 569 -126 l 569 -296 q 561 -319 569 -311 q 538 -328 553 -328 l 413 -328 z "},"Ề":{"ha":839,"x_min":61,"x_max":789,"o":"m 349 -8 q 76 238 76 -8 l 76 776 q 152 973 76 914 q 333 1032 228 1032 q 789 1011 583 1032 l 789 783 l 417 783 q 346 722 346 783 l 346 636 l 719 622 l 719 408 l 346 394 l 346 317 q 362 263 346 281 q 406 244 378 244 l 789 244 l 789 17 q 581 -2 703 4 q 349 -8 460 -8 m 275 1394 l 300 1224 l 142 1224 l 61 1394 l 275 1394 m 532 1260 l 658 1099 l 504 1099 l 436 1142 l 367 1099 l 211 1099 l 350 1260 l 532 1260 z "},"Ể":{"ha":839,"x_min":76,"x_max":789,"o":"m 349 -8 q 76 238 76 -8 l 76 776 q 152 973 76 914 q 333 1032 228 1032 q 789 1011 583 1032 l 789 783 l 417 783 q 346 722 346 783 l 346 636 l 719 622 l 719 408 l 346 394 l 346 317 q 362 263 346 281 q 406 244 378 244 l 789 244 l 789 17 q 581 -2 703 4 q 349 -8 460 -8 m 610 1294 q 636 1325 636 1303 q 617 1344 636 1344 q 575 1336 603 1344 l 575 1425 q 653 1438 613 1438 q 761 1343 761 1438 q 725 1240 761 1279 q 610 1178 689 1200 l 610 1294 m 350 1260 l 532 1260 l 658 1099 l 504 1099 l 436 1142 l 367 1099 l 211 1099 l 350 1260 z "},"Ễ":{"ha":839,"x_min":76,"x_max":789,"o":"m 349 -8 q 76 238 76 -8 l 76 776 q 152 973 76 914 q 333 1032 228 1032 q 789 1011 583 1032 l 789 783 l 417 783 q 346 722 346 783 l 346 636 l 719 622 l 719 408 l 346 394 l 346 317 q 362 263 346 281 q 406 244 378 244 l 789 244 l 789 17 q 581 -2 703 4 q 349 -8 460 -8 m 329 1468 q 374 1463 351 1468 q 418 1453 397 1458 q 471 1442 457 1442 q 511 1478 511 1442 l 644 1478 q 624 1377 639 1413 q 585 1328 610 1342 q 522 1315 561 1315 q 456 1323 489 1315 q 417 1332 422 1331 q 365 1342 378 1342 q 336 1313 343 1342 l 203 1313 q 242 1437 211 1406 q 329 1468 272 1468 m 658 1099 l 504 1099 l 436 1142 l 367 1099 l 211 1099 l 350 1260 l 532 1260 l 658 1099 z "},"Ȅ":{"ha":839,"x_min":76,"x_max":789,"o":"m 349 -8 q 76 238 76 -8 l 76 776 q 152 973 76 914 q 333 1032 228 1032 q 789 1011 583 1032 l 789 783 l 417 783 q 346 722 346 783 l 346 636 l 719 622 l 719 408 l 346 394 l 346 317 q 362 263 346 281 q 406 244 378 244 l 789 244 l 789 17 q 581 -2 703 4 q 349 -8 460 -8 m 90 1297 l 304 1297 l 399 1099 l 240 1099 l 90 1297 m 368 1297 l 582 1297 l 676 1099 l 518 1099 l 368 1297 z "},"Ë":{"ha":839,"x_min":76,"x_max":789,"o":"m 349 -8 q 76 238 76 -8 l 76 776 q 152 973 76 914 q 333 1032 228 1032 q 789 1011 583 1032 l 789 783 l 417 783 q 346 722 346 783 l 346 636 l 719 622 l 719 408 l 346 394 l 346 317 q 362 263 346 281 q 406 244 378 244 l 789 244 l 789 17 q 581 -2 703 4 q 349 -8 460 -8 m 229 1093 q 205 1102 214 1093 q 196 1125 196 1111 l 196 1279 q 204 1305 196 1296 q 229 1314 213 1314 l 354 1314 q 378 1304 369 1314 q 386 1279 386 1294 l 386 1125 q 378 1101 386 1110 q 354 1093 369 1093 l 229 1093 m 503 1093 q 478 1102 488 1093 q 469 1125 469 1111 l 469 1279 q 478 1305 469 1296 q 503 1314 486 1314 l 628 1314 q 651 1304 643 1314 q 660 1279 660 1294 l 660 1125 q 651 1101 660 1110 q 628 1093 643 1093 l 503 1093 z "},"Ė":{"ha":839,"x_min":76,"x_max":789,"o":"m 349 -8 q 76 238 76 -8 l 76 776 q 152 973 76 914 q 333 1032 228 1032 q 789 1011 583 1032 l 789 783 l 417 783 q 346 722 346 783 l 346 636 l 719 622 l 719 408 l 346 394 l 346 317 q 362 263 346 281 q 406 244 378 244 l 789 244 l 789 17 q 581 -2 703 4 q 349 -8 460 -8 m 369 1103 q 345 1112 354 1103 q 336 1135 336 1121 l 336 1289 q 344 1315 336 1306 q 369 1324 353 1324 l 494 1324 q 518 1314 510 1324 q 526 1289 526 1304 l 526 1135 q 518 1111 526 1119 q 494 1103 510 1103 l 369 1103 z "},"Ẹ":{"ha":839,"x_min":76,"x_max":789,"o":"m 349 -8 q 76 238 76 -8 l 76 776 q 152 973 76 914 q 333 1032 228 1032 q 789 1011 583 1032 l 789 783 l 417 783 q 346 722 346 783 l 346 636 l 719 622 l 719 408 l 346 394 l 346 317 q 362 263 346 281 q 406 244 378 244 l 789 244 l 789 17 q 581 -2 703 4 q 349 -8 460 -8 m 413 -328 q 388 -319 397 -328 q 379 -296 379 -310 l 379 -142 q 388 -116 379 -125 q 413 -107 396 -107 l 538 -107 q 561 -117 553 -107 q 569 -142 569 -126 l 569 -296 q 561 -319 569 -311 q 538 -328 553 -328 l 413 -328 z "},"È":{"ha":839,"x_min":76,"x_max":789,"o":"m 349 -8 q 76 238 76 -8 l 76 776 q 152 973 76 914 q 333 1032 228 1032 q 789 1011 583 1032 l 789 783 l 417 783 q 346 722 346 783 l 346 636 l 719 622 l 719 408 l 346 394 l 346 317 q 362 263 346 281 q 406 244 378 244 l 789 244 l 789 17 q 581 -2 703 4 q 349 -8 460 -8 m 242 1297 l 456 1297 l 550 1099 l 392 1099 l 242 1297 z "},"Ẻ":{"ha":839,"x_min":76,"x_max":789,"o":"m 349 -8 q 76 238 76 -8 l 76 776 q 152 973 76 914 q 333 1032 228 1032 q 789 1011 583 1032 l 789 783 l 417 783 q 346 722 346 783 l 346 636 l 719 622 l 719 408 l 346 394 l 346 317 q 362 263 346 281 q 406 244 378 244 l 789 244 l 789 17 q 581 -2 703 4 q 349 -8 460 -8 m 389 1183 q 429 1222 429 1194 q 396 1244 429 1244 q 354 1236 382 1244 l 354 1339 q 432 1351 392 1351 q 534 1321 500 1351 q 568 1232 568 1290 q 526 1132 568 1169 q 389 1067 485 1094 l 389 1183 z "},"Ȇ":{"ha":839,"x_min":76,"x_max":789,"o":"m 349 -8 q 76 238 76 -8 l 76 776 q 152 973 76 914 q 333 1032 228 1032 q 789 1011 583 1032 l 789 783 l 417 783 q 346 722 346 783 l 346 636 l 719 622 l 719 408 l 346 394 l 346 317 q 362 263 346 281 q 406 244 378 244 l 789 244 l 789 17 q 581 -2 703 4 q 349 -8 460 -8 m 440 1306 q 590 1251 539 1306 q 640 1088 640 1196 l 517 1088 q 494 1162 517 1139 q 440 1185 472 1185 q 364 1088 364 1185 l 238 1088 q 440 1306 238 1306 z "},"Ē":{"ha":839,"x_min":76,"x_max":789,"o":"m 349 -8 q 76 238 76 -8 l 76 776 q 152 973 76 914 q 333 1032 228 1032 q 789 1011 583 1032 l 789 783 l 417 783 q 346 722 346 783 l 346 636 l 719 622 l 719 408 l 346 394 l 346 317 q 362 263 346 281 q 406 244 378 244 l 789 244 l 789 17 q 581 -2 703 4 q 349 -8 460 -8 m 226 1257 l 632 1257 l 632 1099 l 226 1099 l 226 1257 z "},"Ḗ":{"ha":839,"x_min":76,"x_max":789,"o":"m 349 -8 q 76 238 76 -8 l 76 776 q 152 973 76 914 q 333 1032 228 1032 q 789 1011 583 1032 l 789 783 l 417 783 q 346 722 346 783 l 346 636 l 719 622 l 719 408 l 346 394 l 346 317 q 362 263 346 281 q 406 244 378 244 l 789 244 l 789 17 q 581 -2 703 4 q 349 -8 460 -8 m 226 1257 l 632 1257 l 632 1099 l 226 1099 l 226 1257 m 443 1506 l 657 1506 l 507 1307 l 349 1307 l 443 1506 z "},"Ḕ":{"ha":839,"x_min":76,"x_max":789,"o":"m 349 -8 q 76 238 76 -8 l 76 776 q 152 973 76 914 q 333 1032 228 1032 q 789 1011 583 1032 l 789 783 l 417 783 q 346 722 346 783 l 346 636 l 719 622 l 719 408 l 346 394 l 346 317 q 362 263 346 281 q 406 244 378 244 l 789 244 l 789 17 q 581 -2 703 4 q 349 -8 460 -8 m 226 1257 l 632 1257 l 632 1099 l 226 1099 l 226 1257 m 200 1506 l 414 1506 l 508 1307 l 350 1307 l 200 1506 z "},"Ę":{"ha":839,"x_min":76,"x_max":807,"o":"m 807 -124 l 807 -249 q 757 -256 793 -256 q 644 -217 679 -256 q 608 -128 608 -179 q 626 -51 608 -85 q 675 4 644 -18 q 349 -8 517 -8 q 76 238 76 -8 l 76 776 q 152 973 76 914 q 333 1032 228 1032 q 789 1011 583 1032 l 789 783 l 417 783 q 346 722 346 783 l 346 636 l 719 622 l 719 408 l 346 394 l 346 317 q 362 263 346 281 q 406 244 378 244 l 789 244 l 789 17 q 747 -23 758 -4 q 735 -65 735 -42 q 752 -108 735 -92 q 793 -124 769 -124 l 807 -124 z "},"Ẽ":{"ha":839,"x_min":76,"x_max":789,"o":"m 349 -8 q 76 238 76 -8 l 76 776 q 152 973 76 914 q 333 1032 228 1032 q 789 1011 583 1032 l 789 783 l 417 783 q 346 722 346 783 l 346 636 l 719 622 l 719 408 l 346 394 l 346 317 q 362 263 346 281 q 406 244 378 244 l 789 244 l 789 17 q 581 -2 703 4 q 349 -8 460 -8 m 161 1079 q 209 1233 168 1185 q 315 1281 250 1281 q 378 1272 351 1281 q 435 1250 406 1264 q 475 1234 458 1239 q 510 1229 492 1229 q 553 1290 549 1229 l 686 1290 q 536 1082 676 1082 q 472 1090 501 1082 q 410 1114 442 1099 q 383 1124 406 1115 q 340 1133 360 1133 q 294 1079 303 1133 l 161 1079 z "},"F":{"ha":824,"x_min":76,"x_max":789,"o":"m 76 776 q 152 973 76 914 q 333 1032 228 1032 q 789 1010 626 1032 l 789 783 l 411 783 q 362 766 378 783 q 346 725 346 749 l 346 608 l 719 594 l 719 381 l 346 367 l 346 0 l 76 0 l 76 776 z "},"Ḟ":{"ha":824,"x_min":76,"x_max":789,"o":"m 76 776 q 152 973 76 914 q 333 1032 228 1032 q 789 1010 626 1032 l 789 783 l 411 783 q 362 766 378 783 q 346 725 346 749 l 346 608 l 719 594 l 719 381 l 346 367 l 346 0 l 76 0 l 76 776 m 369 1103 q 345 1112 354 1103 q 336 1135 336 1121 l 336 1289 q 344 1315 336 1306 q 369 1324 353 1324 l 494 1324 q 518 1314 510 1324 q 526 1289 526 1304 l 526 1135 q 518 1111 526 1119 q 494 1103 510 1103 l 369 1103 z "},"G":{"ha":938,"x_min":50,"x_max":861,"o":"m 360 -7 q 117 131 183 -7 q 50 514 50 269 q 82 802 50 689 q 201 978 114 915 q 451 1042 289 1042 q 635 1030 563 1042 q 810 990 708 1018 l 810 781 q 503 800 685 800 q 383 776 421 800 q 332 693 344 751 q 319 514 319 635 q 332 342 319 400 q 372 262 344 283 q 450 240 400 240 q 603 254 538 240 l 603 388 l 460 388 l 460 601 q 574 611 503 607 q 703 615 644 615 q 861 613 775 615 l 861 0 l 658 0 l 622 68 q 510 17 581 40 q 360 -7 439 -7 z "},"Ğ":{"ha":938,"x_min":50,"x_max":861,"o":"m 360 -7 q 117 131 183 -7 q 50 514 50 269 q 82 802 50 689 q 201 978 114 915 q 451 1042 289 1042 q 635 1030 563 1042 q 810 990 708 1018 l 810 781 q 503 800 685 800 q 383 776 421 800 q 332 693 344 751 q 319 514 319 635 q 332 342 319 400 q 372 262 344 283 q 450 240 400 240 q 603 254 538 240 l 603 388 l 460 388 l 460 601 q 574 611 503 607 q 703 615 644 615 q 861 613 775 615 l 861 0 l 658 0 l 622 68 q 510 17 581 40 q 360 -7 439 -7 m 440 1083 q 291 1138 342 1083 q 240 1301 240 1193 l 364 1301 q 386 1227 364 1250 q 440 1204 408 1204 q 517 1301 517 1204 l 643 1301 q 440 1083 643 1083 z "},"Ǧ":{"ha":938,"x_min":50,"x_max":861,"o":"m 360 -7 q 117 131 183 -7 q 50 514 50 269 q 82 802 50 689 q 201 978 114 915 q 451 1042 289 1042 q 635 1030 563 1042 q 810 990 708 1018 l 810 781 q 503 800 685 800 q 383 776 421 800 q 332 693 344 751 q 319 514 319 635 q 332 342 319 400 q 372 262 344 283 q 450 240 400 240 q 603 254 538 240 l 603 388 l 460 388 l 460 601 q 574 611 503 607 q 703 615 644 615 q 861 613 775 615 l 861 0 l 658 0 l 622 68 q 510 17 581 40 q 360 -7 439 -7 m 228 1301 l 382 1301 l 450 1217 l 519 1301 l 675 1301 l 536 1099 l 354 1099 l 228 1301 z "},"Ĝ":{"ha":938,"x_min":50,"x_max":861,"o":"m 360 -7 q 117 131 183 -7 q 50 514 50 269 q 82 802 50 689 q 201 978 114 915 q 451 1042 289 1042 q 635 1030 563 1042 q 810 990 708 1018 l 810 781 q 503 800 685 800 q 383 776 421 800 q 332 693 344 751 q 319 514 319 635 q 332 342 319 400 q 372 262 344 283 q 450 240 400 240 q 603 254 538 240 l 603 388 l 460 388 l 460 601 q 574 611 503 607 q 703 615 644 615 q 861 613 775 615 l 861 0 l 658 0 l 622 68 q 510 17 581 40 q 360 -7 439 -7 m 364 1301 l 546 1301 l 672 1099 l 518 1099 l 450 1183 l 381 1099 l 225 1099 l 364 1301 z "},"Ģ":{"ha":938,"x_min":50,"x_max":861,"o":"m 360 -7 q 117 131 183 -7 q 50 514 50 269 q 82 802 50 689 q 201 978 114 915 q 451 1042 289 1042 q 635 1030 563 1042 q 810 990 708 1018 l 810 781 q 503 800 685 800 q 383 776 421 800 q 332 693 344 751 q 319 514 319 635 q 332 342 319 400 q 372 262 344 283 q 450 240 400 240 q 603 254 538 240 l 603 388 l 460 388 l 460 601 q 574 611 503 607 q 703 615 644 615 q 861 613 775 615 l 861 0 l 658 0 l 622 68 q 510 17 581 40 q 360 -7 439 -7 m 376 -203 l 413 -190 q 456 -164 446 -179 q 467 -110 467 -149 l 629 -110 q 592 -265 629 -218 q 461 -312 556 -312 l 376 -312 l 376 -203 z "},"Ġ":{"ha":938,"x_min":50,"x_max":861,"o":"m 360 -7 q 117 131 183 -7 q 50 514 50 269 q 82 802 50 689 q 201 978 114 915 q 451 1042 289 1042 q 635 1030 563 1042 q 810 990 708 1018 l 810 781 q 503 800 685 800 q 383 776 421 800 q 332 693 344 751 q 319 514 319 635 q 332 342 319 400 q 372 262 344 283 q 450 240 400 240 q 603 254 538 240 l 603 388 l 460 388 l 460 601 q 574 611 503 607 q 703 615 644 615 q 861 613 775 615 l 861 0 l 658 0 l 622 68 q 510 17 581 40 q 360 -7 439 -7 m 383 1103 q 359 1112 368 1103 q 350 1135 350 1121 l 350 1289 q 358 1315 350 1306 q 383 1324 367 1324 l 508 1324 q 532 1314 524 1324 q 540 1289 540 1304 l 540 1135 q 532 1111 540 1119 q 508 1103 524 1103 l 383 1103 z "},"Ḡ":{"ha":938,"x_min":50,"x_max":861,"o":"m 360 -7 q 117 131 183 -7 q 50 514 50 269 q 82 802 50 689 q 201 978 114 915 q 451 1042 289 1042 q 635 1030 563 1042 q 810 990 708 1018 l 810 781 q 503 800 685 800 q 383 776 421 800 q 332 693 344 751 q 319 514 319 635 q 332 342 319 400 q 372 262 344 283 q 450 240 400 240 q 603 254 538 240 l 603 388 l 460 388 l 460 601 q 574 611 503 607 q 703 615 644 615 q 861 613 775 615 l 861 0 l 658 0 l 622 68 q 510 17 581 40 q 360 -7 439 -7 m 240 1257 l 646 1257 l 646 1099 l 240 1099 l 240 1257 z "},"H":{"ha":997,"x_min":76,"x_max":921,"o":"m 76 1032 l 346 1032 l 346 635 l 651 635 l 651 1032 l 921 1032 l 921 0 l 651 0 l 651 393 l 346 393 l 346 0 l 76 0 l 76 1032 z "},"Ħ":{"ha":997,"x_min":14,"x_max":983,"o":"m 983 713 l 921 713 l 921 0 l 651 0 l 651 393 l 346 393 l 346 0 l 76 0 l 76 713 l 14 713 l 14 843 l 76 843 l 76 1032 l 346 1032 l 346 843 l 651 843 l 651 1032 l 921 1032 l 921 843 l 983 843 l 983 713 m 651 713 l 346 713 l 346 635 l 651 635 l 651 713 z "},"Ḫ":{"ha":997,"x_min":76,"x_max":921,"o":"m 76 1032 l 346 1032 l 346 635 l 651 635 l 651 1032 l 921 1032 l 921 0 l 651 0 l 651 393 l 346 393 l 346 0 l 76 0 l 76 1032 m 503 -319 q 353 -265 404 -319 q 303 -101 303 -210 l 426 -101 q 449 -176 426 -153 q 503 -199 471 -199 q 579 -101 579 -199 l 706 -101 q 503 -319 706 -319 z "},"Ĥ":{"ha":997,"x_min":76,"x_max":921,"o":"m 76 1032 l 346 1032 l 346 635 l 651 635 l 651 1032 l 921 1032 l 921 0 l 651 0 l 651 393 l 346 393 l 346 0 l 76 0 l 76 1032 m 413 1301 l 594 1301 l 721 1099 l 567 1099 l 499 1183 l 429 1099 l 274 1099 l 413 1301 z "},"Ḥ":{"ha":997,"x_min":76,"x_max":921,"o":"m 76 1032 l 346 1032 l 346 635 l 651 635 l 651 1032 l 921 1032 l 921 0 l 651 0 l 651 393 l 346 393 l 346 0 l 76 0 l 76 1032 m 438 -328 q 413 -319 422 -328 q 404 -296 404 -310 l 404 -142 q 413 -116 404 -125 q 438 -107 421 -107 l 563 -107 q 586 -117 578 -107 q 594 -142 594 -126 l 594 -296 q 586 -319 594 -311 q 563 -328 578 -328 l 438 -328 z "},"I":{"ha":422,"x_min":76,"x_max":346,"o":"m 76 1032 l 346 1032 l 346 0 l 76 0 l 76 1032 z "},"Í":{"ha":422,"x_min":76,"x_max":450,"o":"m 76 1032 l 346 1032 l 346 0 l 76 0 l 76 1032 m 236 1297 l 450 1297 l 300 1099 l 142 1099 l 236 1297 z "},"Ĭ":{"ha":422,"x_min":1,"x_max":404,"o":"m 76 1032 l 346 1032 l 346 0 l 76 0 l 76 1032 m 201 1083 q 52 1138 103 1083 q 1 1301 1 1193 l 125 1301 q 147 1227 125 1250 q 201 1204 169 1204 q 278 1301 278 1204 l 404 1301 q 201 1083 404 1083 z "},"Î":{"ha":422,"x_min":-14,"x_max":433,"o":"m 76 1032 l 346 1032 l 346 0 l 76 0 l 76 1032 m 125 1301 l 307 1301 l 433 1099 l 279 1099 l 211 1183 l 142 1099 l -14 1099 l 125 1301 z "},"Ȉ":{"ha":422,"x_min":-135,"x_max":451,"o":"m 76 1032 l 346 1032 l 346 0 l 76 0 l 76 1032 m -135 1297 l 79 1297 l 174 1099 l 15 1099 l -135 1297 m 143 1297 l 357 1297 l 451 1099 l 293 1099 l 143 1297 z "},"Ï":{"ha":422,"x_min":-29,"x_max":435,"o":"m 76 1032 l 346 1032 l 346 0 l 76 0 l 76 1032 m 4 1093 q -20 1102 -11 1093 q -29 1125 -29 1111 l -29 1279 q -21 1305 -29 1296 q 4 1314 -12 1314 l 129 1314 q 153 1304 144 1314 q 161 1279 161 1294 l 161 1125 q 153 1101 161 1110 q 129 1093 144 1093 l 4 1093 m 278 1093 q 253 1102 263 1093 q 244 1125 244 1111 l 244 1279 q 253 1305 244 1296 q 278 1314 261 1314 l 403 1314 q 426 1304 418 1314 q 435 1279 435 1294 l 435 1125 q 426 1101 435 1110 q 403 1093 418 1093 l 278 1093 z "},"Ḯ":{"ha":422,"x_min":-29,"x_max":436,"o":"m 76 1032 l 346 1032 l 346 0 l 76 0 l 76 1032 m 4 1093 q -20 1102 -11 1093 q -29 1125 -29 1111 l -29 1279 q -21 1305 -29 1296 q 4 1314 -12 1314 l 129 1314 q 153 1304 144 1314 q 161 1279 161 1294 l 161 1125 q 153 1101 161 1110 q 129 1093 144 1093 l 4 1093 m 278 1093 q 253 1102 263 1093 q 244 1125 244 1111 l 244 1279 q 253 1305 244 1296 q 278 1314 261 1314 l 403 1314 q 426 1304 418 1314 q 435 1279 435 1294 l 435 1125 q 426 1101 435 1110 q 403 1093 418 1093 l 278 1093 m 222 1561 l 436 1561 l 286 1363 l 128 1363 l 222 1561 z "},"İ":{"ha":422,"x_min":76,"x_max":346,"o":"m 76 1032 l 346 1032 l 346 0 l 76 0 l 76 1032 m 144 1103 q 120 1112 129 1103 q 111 1135 111 1121 l 111 1289 q 119 1315 111 1306 q 144 1324 128 1324 l 269 1324 q 293 1314 285 1324 q 301 1289 301 1304 l 301 1135 q 293 1111 301 1119 q 269 1103 285 1103 l 144 1103 z "},"Ị":{"ha":422,"x_min":76,"x_max":346,"o":"m 76 1032 l 346 1032 l 346 0 l 76 0 l 76 1032 m 150 -328 q 126 -319 135 -328 q 117 -296 117 -310 l 117 -142 q 125 -116 117 -125 q 150 -107 133 -107 l 275 -107 q 299 -117 290 -107 q 307 -142 307 -126 l 307 -296 q 299 -319 307 -311 q 275 -328 290 -328 l 150 -328 z "},"Ì":{"ha":422,"x_min":17,"x_max":346,"o":"m 76 1032 l 346 1032 l 346 0 l 76 0 l 76 1032 m 17 1297 l 231 1297 l 325 1099 l 167 1099 l 17 1297 z "},"Ỉ":{"ha":422,"x_min":76,"x_max":346,"o":"m 76 1032 l 346 1032 l 346 0 l 76 0 l 76 1032 m 164 1183 q 204 1222 204 1194 q 171 1244 204 1244 q 129 1236 157 1244 l 129 1339 q 207 1351 167 1351 q 309 1321 275 1351 q 343 1232 343 1290 q 301 1132 343 1169 q 164 1067 260 1094 l 164 1183 z "},"Ȋ":{"ha":422,"x_min":13,"x_max":415,"o":"m 76 1032 l 346 1032 l 346 0 l 76 0 l 76 1032 m 215 1306 q 365 1251 314 1306 q 415 1088 415 1196 l 292 1088 q 269 1162 292 1139 q 215 1185 247 1185 q 139 1088 139 1185 l 13 1088 q 215 1306 13 1306 z "},"Ī":{"ha":422,"x_min":1,"x_max":407,"o":"m 76 1032 l 346 1032 l 346 0 l 76 0 l 76 1032 m 1 1257 l 407 1257 l 407 1099 l 1 1099 l 1 1257 z "},"Į":{"ha":422,"x_min":76,"x_max":364,"o":"m 76 1032 l 346 1032 l 346 0 l 76 0 l 76 1032 m 314 -272 q 201 -234 236 -272 q 165 -144 165 -196 q 188 -58 165 -94 q 250 0 211 -22 l 346 0 q 303 -40 315 -21 q 292 -82 292 -58 q 309 -124 292 -108 q 350 -140 326 -140 l 364 -140 l 364 -265 q 314 -272 350 -272 z "},"Ĩ":{"ha":422,"x_min":-64,"x_max":461,"o":"m 76 1032 l 346 1032 l 346 0 l 76 0 l 76 1032 m -64 1079 q -16 1233 -57 1185 q 90 1281 25 1281 q 153 1272 126 1281 q 210 1250 181 1264 q 250 1234 233 1239 q 285 1229 267 1229 q 328 1290 324 1229 l 461 1290 q 311 1082 451 1082 q 247 1090 276 1082 q 185 1114 217 1099 q 158 1124 181 1115 q 115 1133 135 1133 q 69 1079 78 1133 l -64 1079 z "},"J":{"ha":579,"x_min":36,"x_max":503,"o":"m 213 -8 q 36 17 122 -8 l 36 233 l 149 233 q 233 313 233 233 l 233 1032 l 503 1032 l 503 271 q 435 62 503 132 q 213 -8 367 -8 z "},"Ĵ":{"ha":579,"x_min":36,"x_max":590,"o":"m 213 -8 q 36 17 122 -8 l 36 233 l 149 233 q 233 313 233 233 l 233 1032 l 503 1032 l 503 271 q 435 62 503 132 q 213 -8 367 -8 m 282 1301 l 464 1301 l 590 1099 l 436 1099 l 368 1183 l 299 1099 l 143 1099 l 282 1301 z "},"K":{"ha":933,"x_min":76,"x_max":917,"o":"m 76 1032 l 346 1032 l 346 631 l 453 631 l 618 1032 l 904 1032 l 667 513 l 917 0 l 631 0 l 453 389 l 346 389 l 346 0 l 76 0 l 76 1032 z "},"Ķ":{"ha":933,"x_min":76,"x_max":917,"o":"m 76 1032 l 346 1032 l 346 631 l 453 631 l 618 1032 l 904 1032 l 667 513 l 917 0 l 631 0 l 453 389 l 346 389 l 346 0 l 76 0 l 76 1032 m 349 -203 l 385 -190 q 428 -164 418 -179 q 439 -110 439 -149 l 601 -110 q 565 -265 601 -218 q 433 -312 528 -312 l 349 -312 l 349 -203 z "},"L":{"ha":746,"x_min":76,"x_max":718,"o":"m 344 0 q 140 64 204 0 q 76 268 76 128 l 76 1032 l 346 1032 l 346 314 q 418 242 346 242 l 718 242 l 718 0 l 344 0 z "},"Ĺ":{"ha":746,"x_min":76,"x_max":718,"o":"m 344 0 q 140 64 204 0 q 76 268 76 128 l 76 1032 l 346 1032 l 346 314 q 418 242 346 242 l 718 242 l 718 0 l 344 0 m 236 1297 l 450 1297 l 300 1099 l 142 1099 l 236 1297 z "},"Ľ":{"ha":746,"x_min":76,"x_max":718,"o":"m 344 0 q 140 64 204 0 q 76 268 76 128 l 76 1032 l 346 1032 l 346 314 q 418 242 346 242 l 718 242 l 718 0 l 344 0 m 429 994 l 429 1088 l 672 1088 l 672 994 l 658 808 l 444 808 l 429 994 z "},"Ļ":{"ha":746,"x_min":76,"x_max":718,"o":"m 344 0 q 140 64 204 0 q 76 268 76 128 l 76 1032 l 346 1032 l 346 314 q 418 242 346 242 l 718 242 l 718 0 l 344 0 m 293 -203 l 329 -190 q 373 -164 363 -179 q 383 -110 383 -149 l 546 -110 q 509 -265 546 -218 q 378 -312 472 -312 l 293 -312 l 293 -203 z "},"Ŀ":{"ha":746,"x_min":76,"x_max":718,"o":"m 344 0 q 140 64 204 0 q 76 268 76 128 l 76 1032 l 346 1032 l 346 314 q 418 242 346 242 l 718 242 l 718 0 l 344 0 m 526 451 q 502 460 511 451 q 493 483 493 469 l 493 646 q 501 672 493 663 q 526 681 510 681 l 683 681 q 718 646 718 681 l 718 483 q 683 451 718 451 l 526 451 z "},"Ḷ":{"ha":746,"x_min":76,"x_max":718,"o":"m 344 0 q 140 64 204 0 q 76 268 76 128 l 76 1032 l 346 1032 l 346 314 q 418 242 346 242 l 718 242 l 718 0 l 344 0 m 356 -328 q 331 -319 340 -328 q 322 -296 322 -310 l 322 -142 q 331 -116 322 -125 q 356 -107 339 -107 l 481 -107 q 504 -117 496 -107 q 513 -142 513 -126 l 513 -296 q 504 -319 513 -311 q 481 -328 496 -328 l 356 -328 z "},"Ḻ":{"ha":746,"x_min":76,"x_max":718,"o":"m 344 0 q 140 64 204 0 q 76 268 76 128 l 76 1032 l 346 1032 l 346 314 q 418 242 346 242 l 718 242 l 718 0 l 344 0 m 221 -160 l 626 -160 l 626 -318 l 221 -318 l 221 -160 z "},"Ł":{"ha":746,"x_min":-10,"x_max":718,"o":"m 718 242 l 718 0 l 344 0 q 140 64 204 0 q 76 268 76 128 l 76 450 l -10 413 l -10 553 l 76 590 l 76 1032 l 346 1032 l 346 674 l 517 749 l 517 608 l 346 533 l 346 314 q 418 242 346 242 l 718 242 z "},"M":{"ha":1271,"x_min":49,"x_max":1222,"o":"m 963 0 l 896 557 l 760 0 l 507 0 l 372 544 l 308 0 l 49 0 l 171 1032 l 424 1032 l 636 307 l 849 1032 l 1099 1032 l 1222 0 l 963 0 z "},"Ṁ":{"ha":1271,"x_min":49,"x_max":1222,"o":"m 963 0 l 896 557 l 760 0 l 507 0 l 372 544 l 308 0 l 49 0 l 171 1032 l 424 1032 l 636 307 l 849 1032 l 1099 1032 l 1222 0 l 963 0 m 554 1103 q 530 1112 539 1103 q 521 1135 521 1121 l 521 1289 q 529 1315 521 1306 q 554 1324 538 1324 l 679 1324 q 703 1314 694 1324 q 711 1289 711 1304 l 711 1135 q 703 1111 711 1119 q 679 1103 694 1103 l 554 1103 z "},"Ṃ":{"ha":1271,"x_min":49,"x_max":1222,"o":"m 963 0 l 896 557 l 760 0 l 507 0 l 372 544 l 308 0 l 49 0 l 171 1032 l 424 1032 l 636 307 l 849 1032 l 1099 1032 l 1222 0 l 963 0 m 560 -328 q 535 -319 544 -328 q 526 -296 526 -310 l 526 -142 q 535 -116 526 -125 q 560 -107 543 -107 l 685 -107 q 708 -117 700 -107 q 717 -142 717 -126 l 717 -296 q 708 -319 717 -311 q 685 -328 700 -328 l 560 -328 z "},"N":{"ha":999,"x_min":76,"x_max":922,"o":"m 76 1032 l 290 1032 l 653 457 l 653 1032 l 922 1032 l 922 0 l 708 0 l 346 575 l 346 0 l 76 0 l 76 1032 z "},"Ń":{"ha":999,"x_min":76,"x_max":922,"o":"m 76 1032 l 290 1032 l 653 457 l 653 1032 l 922 1032 l 922 0 l 708 0 l 346 575 l 346 0 l 76 0 l 76 1032 m 503 1297 l 717 1297 l 567 1099 l 408 1099 l 503 1297 z "},"Ň":{"ha":999,"x_min":76,"x_max":922,"o":"m 76 1032 l 290 1032 l 653 457 l 653 1032 l 922 1032 l 922 0 l 708 0 l 346 575 l 346 0 l 76 0 l 76 1032 m 256 1301 l 410 1301 l 478 1217 l 547 1301 l 703 1301 l 564 1099 l 382 1099 l 256 1301 z "},"Ņ":{"ha":999,"x_min":76,"x_max":922,"o":"m 76 1032 l 290 1032 l 653 457 l 653 1032 l 922 1032 l 922 0 l 708 0 l 346 575 l 346 0 l 76 0 l 76 1032 m 354 -203 l 390 -190 q 434 -164 424 -179 q 444 -110 444 -149 l 607 -110 q 570 -265 607 -218 q 439 -312 533 -312 l 354 -312 l 354 -203 z "},"Ṅ":{"ha":999,"x_min":76,"x_max":922,"o":"m 76 1032 l 290 1032 l 653 457 l 653 1032 l 922 1032 l 922 0 l 708 0 l 346 575 l 346 0 l 76 0 l 76 1032 m 417 -328 q 392 -319 401 -328 q 383 -296 383 -310 l 383 -142 q 392 -116 383 -125 q 417 -107 400 -107 l 542 -107 q 565 -117 557 -107 q 574 -142 574 -126 l 574 -296 q 565 -319 574 -311 q 542 -328 557 -328 l 417 -328 z "},"Ṇ":{"ha":999,"x_min":76,"x_max":922,"o":"m 76 1032 l 290 1032 l 653 457 l 653 1032 l 922 1032 l 922 0 l 708 0 l 346 575 l 346 0 l 76 0 l 76 1032 m 417 -328 q 392 -319 401 -328 q 383 -296 383 -310 l 383 -142 q 392 -116 383 -125 q 417 -107 400 -107 l 542 -107 q 565 -117 557 -107 q 574 -142 574 -126 l 574 -296 q 565 -319 574 -311 q 542 -328 557 -328 l 417 -328 z "},"Ŋ":{"ha":985,"x_min":76,"x_max":922,"o":"m 922 1032 l 922 -58 q 854 -267 922 -197 q 632 -337 786 -337 q 456 -312 542 -337 l 456 -96 l 578 -96 q 653 -17 653 -96 l 653 88 l 346 575 l 346 0 l 76 0 l 76 1032 l 290 1032 l 653 457 l 653 1032 l 922 1032 z "},"Ṉ":{"ha":999,"x_min":76,"x_max":922,"o":"m 76 1032 l 290 1032 l 653 457 l 653 1032 l 922 1032 l 922 0 l 708 0 l 346 575 l 346 0 l 76 0 l 76 1032 m 282 -160 l 688 -160 l 688 -318 l 282 -318 l 282 -160 z "},"Ñ":{"ha":999,"x_min":76,"x_max":922,"o":"m 76 1032 l 290 1032 l 653 457 l 653 1032 l 922 1032 l 922 0 l 708 0 l 346 575 l 346 0 l 76 0 l 76 1032 m 203 1079 q 251 1233 210 1185 q 357 1281 292 1281 q 420 1272 393 1281 q 476 1250 447 1264 q 517 1234 500 1239 q 551 1229 533 1229 q 594 1290 590 1229 l 728 1290 q 578 1082 718 1082 q 513 1090 543 1082 q 451 1114 483 1099 q 424 1124 447 1115 q 382 1133 401 1133 q 336 1079 344 1133 l 203 1079 z "},"O":{"ha":983,"x_min":50,"x_max":933,"o":"m 492 -8 q 241 33 335 -8 q 99 189 147 75 q 50 517 50 303 q 99 844 50 731 q 241 1000 147 958 q 492 1042 335 1042 q 742 1000 649 1042 q 885 844 836 958 q 933 517 933 731 q 885 189 933 303 q 742 33 836 75 q 492 -8 649 -8 m 492 233 q 599 256 564 233 q 649 339 635 279 q 664 517 664 399 q 650 698 664 639 q 600 778 636 757 q 492 800 564 800 q 383 778 419 800 q 333 698 347 757 q 319 517 319 639 q 334 339 319 399 q 384 256 349 279 q 492 233 419 233 z "},"Ó":{"ha":983,"x_min":50,"x_max":933,"o":"m 492 -8 q 241 33 335 -8 q 99 189 147 75 q 50 517 50 303 q 99 844 50 731 q 241 1000 147 958 q 492 1042 335 1042 q 742 1000 649 1042 q 885 844 836 958 q 933 517 933 731 q 885 189 933 303 q 742 33 836 75 q 492 -8 649 -8 m 492 233 q 599 256 564 233 q 649 339 635 279 q 664 517 664 399 q 650 698 664 639 q 600 778 636 757 q 492 800 564 800 q 383 778 419 800 q 333 698 347 757 q 319 517 319 639 q 334 339 319 399 q 384 256 349 279 q 492 233 419 233 m 517 1297 l 731 1297 l 581 1099 l 422 1099 l 517 1297 z "},"Ŏ":{"ha":983,"x_min":50,"x_max":933,"o":"m 492 -8 q 241 33 335 -8 q 99 189 147 75 q 50 517 50 303 q 99 844 50 731 q 241 1000 147 958 q 492 1042 335 1042 q 742 1000 649 1042 q 885 844 836 958 q 933 517 933 731 q 885 189 933 303 q 742 33 836 75 q 492 -8 649 -8 m 492 233 q 599 256 564 233 q 649 339 635 279 q 664 517 664 399 q 650 698 664 639 q 600 778 636 757 q 492 800 564 800 q 383 778 419 800 q 333 698 347 757 q 319 517 319 639 q 334 339 319 399 q 384 256 349 279 q 492 233 419 233 m 482 1083 q 333 1138 383 1083 q 282 1301 282 1193 l 406 1301 q 428 1227 406 1250 q 482 1204 450 1204 q 558 1301 558 1204 l 685 1301 q 482 1083 685 1083 z "},"Ô":{"ha":983,"x_min":50,"x_max":933,"o":"m 492 -8 q 241 33 335 -8 q 99 189 147 75 q 50 517 50 303 q 99 844 50 731 q 241 1000 147 958 q 492 1042 335 1042 q 742 1000 649 1042 q 885 844 836 958 q 933 517 933 731 q 885 189 933 303 q 742 33 836 75 q 492 -8 649 -8 m 492 233 q 599 256 564 233 q 649 339 635 279 q 664 517 664 399 q 650 698 664 639 q 600 778 636 757 q 492 800 564 800 q 383 778 419 800 q 333 698 347 757 q 319 517 319 639 q 334 339 319 399 q 384 256 349 279 q 492 233 419 233 m 406 1301 l 588 1301 l 714 1099 l 560 1099 l 492 1183 l 422 1099 l 267 1099 l 406 1301 z "},"Ố":{"ha":983,"x_min":50,"x_max":933,"o":"m 492 -8 q 241 33 335 -8 q 99 189 147 75 q 50 517 50 303 q 99 844 50 731 q 241 1000 147 958 q 492 1042 335 1042 q 742 1000 649 1042 q 885 844 836 958 q 933 517 933 731 q 885 189 933 303 q 742 33 836 75 q 492 -8 649 -8 m 492 233 q 599 256 564 233 q 649 339 635 279 q 664 517 664 399 q 650 698 664 639 q 600 778 636 757 q 492 800 564 800 q 383 778 419 800 q 333 698 347 757 q 319 517 319 639 q 334 339 319 399 q 384 256 349 279 q 492 233 419 233 m 869 1394 l 789 1224 l 631 1224 l 656 1394 l 869 1394 m 588 1260 l 714 1099 l 560 1099 l 492 1142 l 422 1099 l 267 1099 l 406 1260 l 588 1260 z "},"Ộ":{"ha":983,"x_min":50,"x_max":933,"o":"m 492 -8 q 241 33 335 -8 q 99 189 147 75 q 50 517 50 303 q 99 844 50 731 q 241 1000 147 958 q 492 1042 335 1042 q 742 1000 649 1042 q 885 844 836 958 q 933 517 933 731 q 885 189 933 303 q 742 33 836 75 q 492 -8 649 -8 m 492 233 q 599 256 564 233 q 649 339 635 279 q 664 517 664 399 q 650 698 664 639 q 600 778 636 757 q 492 800 564 800 q 383 778 419 800 q 333 698 347 757 q 319 517 319 639 q 334 339 319 399 q 384 256 349 279 q 492 233 419 233 m 406 1301 l 588 1301 l 714 1099 l 560 1099 l 492 1183 l 422 1099 l 267 1099 l 406 1301 m 431 -328 q 406 -319 415 -328 q 397 -296 397 -310 l 397 -142 q 406 -116 397 -125 q 431 -107 414 -107 l 556 -107 q 579 -117 571 -107 q 588 -142 588 -126 l 588 -296 q 579 -319 588 -311 q 556 -328 571 -328 l 431 -328 z "},"Ồ":{"ha":983,"x_min":50,"x_max":933,"o":"m 492 -8 q 241 33 335 -8 q 99 189 147 75 q 50 517 50 303 q 99 844 50 731 q 241 1000 147 958 q 492 1042 335 1042 q 742 1000 649 1042 q 885 844 836 958 q 933 517 933 731 q 885 189 933 303 q 742 33 836 75 q 492 -8 649 -8 m 492 233 q 599 256 564 233 q 649 339 635 279 q 664 517 664 399 q 650 698 664 639 q 600 778 636 757 q 492 800 564 800 q 383 778 419 800 q 333 698 347 757 q 319 517 319 639 q 334 339 319 399 q 384 256 349 279 q 492 233 419 233 m 331 1394 l 356 1224 l 197 1224 l 117 1394 l 331 1394 m 588 1260 l 714 1099 l 560 1099 l 492 1142 l 422 1099 l 267 1099 l 406 1260 l 588 1260 z "},"Ổ":{"ha":983,"x_min":50,"x_max":933,"o":"m 492 -8 q 241 33 335 -8 q 99 189 147 75 q 50 517 50 303 q 99 844 50 731 q 241 1000 147 958 q 492 1042 335 1042 q 742 1000 649 1042 q 885 844 836 958 q 933 517 933 731 q 885 189 933 303 q 742 33 836 75 q 492 -8 649 -8 m 492 233 q 599 256 564 233 q 649 339 635 279 q 664 517 664 399 q 650 698 664 639 q 600 778 636 757 q 492 800 564 800 q 383 778 419 800 q 333 698 347 757 q 319 517 319 639 q 334 339 319 399 q 384 256 349 279 q 492 233 419 233 m 665 1294 q 692 1325 692 1303 q 672 1344 692 1344 q 631 1336 658 1344 l 631 1425 q 708 1438 668 1438 q 817 1343 817 1438 q 781 1240 817 1279 q 665 1178 744 1200 l 665 1294 m 406 1260 l 588 1260 l 714 1099 l 560 1099 l 492 1142 l 422 1099 l 267 1099 l 406 1260 z "},"Ỗ":{"ha":983,"x_min":50,"x_max":933,"o":"m 492 -8 q 241 33 335 -8 q 99 189 147 75 q 50 517 50 303 q 99 844 50 731 q 241 1000 147 958 q 492 1042 335 1042 q 742 1000 649 1042 q 885 844 836 958 q 933 517 933 731 q 885 189 933 303 q 742 33 836 75 q 492 -8 649 -8 m 492 233 q 599 256 564 233 q 649 339 635 279 q 664 517 664 399 q 650 698 664 639 q 600 778 636 757 q 492 800 564 800 q 383 778 419 800 q 333 698 347 757 q 319 517 319 639 q 334 339 319 399 q 384 256 349 279 q 492 233 419 233 m 385 1468 q 430 1463 407 1468 q 474 1453 453 1458 q 526 1442 513 1442 q 567 1478 567 1442 l 700 1478 q 680 1377 694 1413 q 641 1328 665 1342 q 578 1315 617 1315 q 511 1323 544 1315 q 472 1332 478 1331 q 421 1342 433 1342 q 392 1313 399 1342 l 258 1313 q 297 1437 267 1406 q 385 1468 328 1468 m 714 1099 l 560 1099 l 492 1142 l 422 1099 l 267 1099 l 406 1260 l 588 1260 l 714 1099 z "},"Ȍ":{"ha":983,"x_min":50,"x_max":933,"o":"m 492 -8 q 241 33 335 -8 q 99 189 147 75 q 50 517 50 303 q 99 844 50 731 q 241 1000 147 958 q 492 1042 335 1042 q 742 1000 649 1042 q 885 844 836 958 q 933 517 933 731 q 885 189 933 303 q 742 33 836 75 q 492 -8 649 -8 m 492 233 q 599 256 564 233 q 649 339 635 279 q 664 517 664 399 q 650 698 664 639 q 600 778 636 757 q 492 800 564 800 q 383 778 419 800 q 333 698 347 757 q 319 517 319 639 q 334 339 319 399 q 384 256 349 279 q 492 233 419 233 m 146 1297 l 360 1297 l 454 1099 l 296 1099 l 146 1297 m 424 1297 l 638 1297 l 732 1099 l 574 1099 l 424 1297 z "},"Ö":{"ha":983,"x_min":50,"x_max":933,"o":"m 492 -8 q 241 33 335 -8 q 99 189 147 75 q 50 517 50 303 q 99 844 50 731 q 241 1000 147 958 q 492 1042 335 1042 q 742 1000 649 1042 q 885 844 836 958 q 933 517 933 731 q 885 189 933 303 q 742 33 836 75 q 492 -8 649 -8 m 492 233 q 599 256 564 233 q 649 339 635 279 q 664 517 664 399 q 650 698 664 639 q 600 778 636 757 q 492 800 564 800 q 383 778 419 800 q 333 698 347 757 q 319 517 319 639 q 334 339 319 399 q 384 256 349 279 q 492 233 419 233 m 285 1093 q 260 1102 269 1093 q 251 1125 251 1111 l 251 1279 q 260 1305 251 1296 q 285 1314 268 1314 l 410 1314 q 433 1304 425 1314 q 442 1279 442 1294 l 442 1125 q 433 1101 442 1110 q 410 1093 425 1093 l 285 1093 m 558 1093 q 534 1102 543 1093 q 525 1125 525 1111 l 525 1279 q 533 1305 525 1296 q 558 1314 542 1314 l 683 1314 q 707 1304 699 1314 q 715 1279 715 1294 l 715 1125 q 707 1101 715 1110 q 683 1093 699 1093 l 558 1093 z "},"Ȫ":{"ha":983,"x_min":50,"x_max":933,"o":"m 492 -8 q 241 33 335 -8 q 99 189 147 75 q 50 517 50 303 q 99 844 50 731 q 241 1000 147 958 q 492 1042 335 1042 q 742 1000 649 1042 q 885 844 836 958 q 933 517 933 731 q 885 189 933 303 q 742 33 836 75 q 492 -8 649 -8 m 492 233 q 599 256 564 233 q 649 339 635 279 q 664 517 664 399 q 650 698 664 639 q 600 778 636 757 q 492 800 564 800 q 383 778 419 800 q 333 698 347 757 q 319 517 319 639 q 334 339 319 399 q 384 256 349 279 q 492 233 419 233 m 285 1093 q 260 1102 269 1093 q 251 1125 251 1111 l 251 1279 q 260 1305 251 1296 q 285 1314 268 1314 l 410 1314 q 433 1304 425 1314 q 442 1279 442 1294 l 442 1125 q 433 1101 442 1110 q 410 1093 425 1093 l 285 1093 m 558 1093 q 534 1102 543 1093 q 525 1125 525 1111 l 525 1279 q 533 1305 525 1296 q 558 1314 542 1314 l 683 1314 q 707 1304 699 1314 q 715 1279 715 1294 l 715 1125 q 707 1101 715 1110 q 683 1093 699 1093 l 558 1093 m 282 1535 l 688 1535 l 688 1376 l 282 1376 l 282 1535 z "},"Ȱ":{"ha":983,"x_min":50,"x_max":933,"o":"m 492 -8 q 241 33 335 -8 q 99 189 147 75 q 50 517 50 303 q 99 844 50 731 q 241 1000 147 958 q 492 1042 335 1042 q 742 1000 649 1042 q 885 844 836 958 q 933 517 933 731 q 885 189 933 303 q 742 33 836 75 q 492 -8 649 -8 m 492 233 q 599 256 564 233 q 649 339 635 279 q 664 517 664 399 q 650 698 664 639 q 600 778 636 757 q 492 800 564 800 q 383 778 419 800 q 333 698 347 757 q 319 517 319 639 q 334 339 319 399 q 384 256 349 279 q 492 233 419 233 m 425 1103 q 401 1112 410 1103 q 392 1135 392 1121 l 392 1289 q 400 1315 392 1306 q 425 1324 408 1324 l 550 1324 q 574 1314 565 1324 q 582 1289 582 1304 l 582 1135 q 574 1111 582 1119 q 550 1103 565 1103 l 425 1103 m 282 1535 l 688 1535 l 688 1376 l 282 1376 l 282 1535 z "},"Ọ":{"ha":983,"x_min":50,"x_max":933,"o":"m 492 -8 q 241 33 335 -8 q 99 189 147 75 q 50 517 50 303 q 99 844 50 731 q 241 1000 147 958 q 492 1042 335 1042 q 742 1000 649 1042 q 885 844 836 958 q 933 517 933 731 q 885 189 933 303 q 742 33 836 75 q 492 -8 649 -8 m 492 233 q 599 256 564 233 q 649 339 635 279 q 664 517 664 399 q 650 698 664 639 q 600 778 636 757 q 492 800 564 800 q 383 778 419 800 q 333 698 347 757 q 319 517 319 639 q 334 339 319 399 q 384 256 349 279 q 492 233 419 233 m 431 -328 q 406 -319 415 -328 q 397 -296 397 -310 l 397 -142 q 406 -116 397 -125 q 431 -107 414 -107 l 556 -107 q 579 -117 571 -107 q 588 -142 588 -126 l 588 -296 q 579 -319 588 -311 q 556 -328 571 -328 l 431 -328 z "},"Ò":{"ha":983,"x_min":50,"x_max":933,"o":"m 492 -8 q 241 33 335 -8 q 99 189 147 75 q 50 517 50 303 q 99 844 50 731 q 241 1000 147 958 q 492 1042 335 1042 q 742 1000 649 1042 q 885 844 836 958 q 933 517 933 731 q 885 189 933 303 q 742 33 836 75 q 492 -8 649 -8 m 492 233 q 599 256 564 233 q 649 339 635 279 q 664 517 664 399 q 650 698 664 639 q 600 778 636 757 q 492 800 564 800 q 383 778 419 800 q 333 698 347 757 q 319 517 319 639 q 334 339 319 399 q 384 256 349 279 q 492 233 419 233 m 297 1297 l 511 1297 l 606 1099 l 447 1099 l 297 1297 z "},"Ỏ":{"ha":983,"x_min":50,"x_max":933,"o":"m 492 -8 q 241 33 335 -8 q 99 189 147 75 q 50 517 50 303 q 99 844 50 731 q 241 1000 147 958 q 492 1042 335 1042 q 742 1000 649 1042 q 885 844 836 958 q 933 517 933 731 q 885 189 933 303 q 742 33 836 75 q 492 -8 649 -8 m 492 233 q 599 256 564 233 q 649 339 635 279 q 664 517 664 399 q 650 698 664 639 q 600 778 636 757 q 492 800 564 800 q 383 778 419 800 q 333 698 347 757 q 319 517 319 639 q 334 339 319 399 q 384 256 349 279 q 492 233 419 233 m 444 1183 q 485 1222 485 1194 q 451 1244 485 1244 q 410 1236 438 1244 l 410 1339 q 488 1351 447 1351 q 590 1321 556 1351 q 624 1232 624 1290 q 582 1132 624 1169 q 444 1067 540 1094 l 444 1183 z "},"Ơ":{"ha":983,"x_min":50,"x_max":963,"o":"m 963 1182 q 933 1015 963 1083 q 846 915 903 947 q 912 758 890 856 q 933 517 933 660 q 885 189 933 303 q 742 33 836 75 q 492 -8 649 -8 q 241 33 335 -8 q 99 189 147 75 q 50 517 50 303 q 99 844 50 731 q 241 1000 147 958 q 492 1042 335 1042 q 633 1032 574 1042 l 686 1032 q 756 1066 733 1032 q 779 1182 779 1100 l 963 1182 m 492 233 q 599 256 564 233 q 649 339 635 279 q 664 517 664 399 q 650 698 664 639 q 600 778 636 757 q 492 800 564 800 q 383 778 419 800 q 333 698 347 757 q 319 517 319 639 q 334 339 319 399 q 384 256 349 279 q 492 233 419 233 z "},"Ớ":{"ha":983,"x_min":50,"x_max":963,"o":"m 963 1182 q 933 1015 963 1083 q 846 915 903 947 q 912 758 890 856 q 933 517 933 660 q 885 189 933 303 q 742 33 836 75 q 492 -8 649 -8 q 241 33 335 -8 q 99 189 147 75 q 50 517 50 303 q 99 844 50 731 q 241 1000 147 958 q 492 1042 335 1042 q 633 1032 574 1042 l 686 1032 q 756 1066 733 1032 q 779 1182 779 1100 l 963 1182 m 492 233 q 599 256 564 233 q 649 339 635 279 q 664 517 664 399 q 650 698 664 639 q 600 778 636 757 q 492 800 564 800 q 383 778 419 800 q 333 698 347 757 q 319 517 319 639 q 334 339 319 399 q 384 256 349 279 q 492 233 419 233 m 485 1297 l 699 1297 l 549 1099 l 390 1099 l 485 1297 z "},"Ợ":{"ha":983,"x_min":50,"x_max":963,"o":"m 963 1182 q 933 1015 963 1083 q 846 915 903 947 q 912 758 890 856 q 933 517 933 660 q 885 189 933 303 q 742 33 836 75 q 492 -8 649 -8 q 241 33 335 -8 q 99 189 147 75 q 50 517 50 303 q 99 844 50 731 q 241 1000 147 958 q 492 1042 335 1042 q 633 1032 574 1042 l 686 1032 q 756 1066 733 1032 q 779 1182 779 1100 l 963 1182 m 492 233 q 599 256 564 233 q 649 339 635 279 q 664 517 664 399 q 650 698 664 639 q 600 778 636 757 q 492 800 564 800 q 383 778 419 800 q 333 698 347 757 q 319 517 319 639 q 334 339 319 399 q 384 256 349 279 q 492 233 419 233 m 443 -328 q 419 -319 428 -328 q 410 -296 410 -310 l 410 -142 q 418 -116 410 -125 q 443 -107 426 -107 l 568 -107 q 592 -117 583 -107 q 600 -142 600 -126 l 600 -296 q 592 -319 600 -311 q 568 -328 583 -328 l 443 -328 z "},"Ờ":{"ha":983,"x_min":50,"x_max":963,"o":"m 963 1182 q 933 1015 963 1083 q 846 915 903 947 q 912 758 890 856 q 933 517 933 660 q 885 189 933 303 q 742 33 836 75 q 492 -8 649 -8 q 241 33 335 -8 q 99 189 147 75 q 50 517 50 303 q 99 844 50 731 q 241 1000 147 958 q 492 1042 335 1042 q 633 1032 574 1042 l 686 1032 q 756 1066 733 1032 q 779 1182 779 1100 l 963 1182 m 492 233 q 599 256 564 233 q 649 339 635 279 q 664 517 664 399 q 650 698 664 639 q 600 778 636 757 q 492 800 564 800 q 383 778 419 800 q 333 698 347 757 q 319 517 319 639 q 334 339 319 399 q 384 256 349 279 q 492 233 419 233 m 251 1297 l 465 1297 l 560 1099 l 401 1099 l 251 1297 z "},"Ở":{"ha":983,"x_min":50,"x_max":963,"o":"m 963 1182 q 933 1015 963 1083 q 846 915 903 947 q 912 758 890 856 q 933 517 933 660 q 885 189 933 303 q 742 33 836 75 q 492 -8 649 -8 q 241 33 335 -8 q 99 189 147 75 q 50 517 50 303 q 99 844 50 731 q 241 1000 147 958 q 492 1042 335 1042 q 633 1032 574 1042 l 686 1032 q 756 1066 733 1032 q 779 1182 779 1100 l 963 1182 m 492 233 q 599 256 564 233 q 649 339 635 279 q 664 517 664 399 q 650 698 664 639 q 600 778 636 757 q 492 800 564 800 q 383 778 419 800 q 333 698 347 757 q 319 517 319 639 q 334 339 319 399 q 384 256 349 279 q 492 233 419 233 m 439 1183 q 479 1222 479 1194 q 446 1244 479 1244 q 404 1236 432 1244 l 404 1339 q 482 1351 442 1351 q 584 1321 550 1351 q 618 1232 618 1290 q 576 1132 618 1169 q 439 1067 535 1094 l 439 1183 z "},"Ỡ":{"ha":983,"x_min":50,"x_max":963,"o":"m 963 1182 q 933 1015 963 1083 q 846 915 903 947 q 912 758 890 856 q 933 517 933 660 q 885 189 933 303 q 742 33 836 75 q 492 -8 649 -8 q 241 33 335 -8 q 99 189 147 75 q 50 517 50 303 q 99 844 50 731 q 241 1000 147 958 q 492 1042 335 1042 q 633 1032 574 1042 l 686 1032 q 756 1066 733 1032 q 779 1182 779 1100 l 963 1182 m 492 233 q 599 256 564 233 q 649 339 635 279 q 664 517 664 399 q 650 698 664 639 q 600 778 636 757 q 492 800 564 800 q 383 778 419 800 q 333 698 347 757 q 319 517 319 639 q 334 339 319 399 q 384 256 349 279 q 492 233 419 233 m 213 1079 q 260 1233 219 1185 q 367 1281 301 1281 q 430 1272 403 1281 q 486 1250 457 1264 q 526 1234 510 1239 q 561 1229 543 1229 q 604 1290 600 1229 l 738 1290 q 588 1082 728 1082 q 523 1090 553 1082 q 461 1114 493 1099 q 434 1124 457 1115 q 392 1133 411 1133 q 346 1079 354 1133 l 213 1079 z "},"Ő":{"ha":983,"x_min":50,"x_max":933,"o":"m 492 -8 q 241 33 335 -8 q 99 189 147 75 q 50 517 50 303 q 99 844 50 731 q 241 1000 147 958 q 492 1042 335 1042 q 742 1000 649 1042 q 885 844 836 958 q 933 517 933 731 q 885 189 933 303 q 742 33 836 75 q 492 -8 649 -8 m 492 233 q 599 256 564 233 q 649 339 635 279 q 664 517 664 399 q 650 698 664 639 q 600 778 636 757 q 492 800 564 800 q 383 778 419 800 q 333 698 347 757 q 319 517 319 639 q 334 339 319 399 q 384 256 349 279 q 492 233 419 233 m 364 1297 l 564 1297 l 442 1099 l 283 1099 l 364 1297 m 604 1297 l 804 1297 l 682 1099 l 524 1099 l 604 1297 z "},"Ȏ":{"ha":983,"x_min":50,"x_max":933,"o":"m 492 -8 q 241 33 335 -8 q 99 189 147 75 q 50 517 50 303 q 99 844 50 731 q 241 1000 147 958 q 492 1042 335 1042 q 742 1000 649 1042 q 885 844 836 958 q 933 517 933 731 q 885 189 933 303 q 742 33 836 75 q 492 -8 649 -8 m 492 233 q 599 256 564 233 q 649 339 635 279 q 664 517 664 399 q 650 698 664 639 q 600 778 636 757 q 492 800 564 800 q 383 778 419 800 q 333 698 347 757 q 319 517 319 639 q 334 339 319 399 q 384 256 349 279 q 492 233 419 233 m 496 1306 q 645 1251 594 1306 q 696 1088 696 1196 l 572 1088 q 550 1162 572 1139 q 496 1185 528 1185 q 419 1088 419 1185 l 293 1088 q 496 1306 293 1306 z "},"Ō":{"ha":983,"x_min":50,"x_max":933,"o":"m 492 -8 q 241 33 335 -8 q 99 189 147 75 q 50 517 50 303 q 99 844 50 731 q 241 1000 147 958 q 492 1042 335 1042 q 742 1000 649 1042 q 885 844 836 958 q 933 517 933 731 q 885 189 933 303 q 742 33 836 75 q 492 -8 649 -8 m 492 233 q 599 256 564 233 q 649 339 635 279 q 664 517 664 399 q 650 698 664 639 q 600 778 636 757 q 492 800 564 800 q 383 778 419 800 q 333 698 347 757 q 319 517 319 639 q 334 339 319 399 q 384 256 349 279 q 492 233 419 233 m 282 1257 l 688 1257 l 688 1099 l 282 1099 l 282 1257 z "},"Ṓ":{"ha":983,"x_min":50,"x_max":933,"o":"m 492 -8 q 241 33 335 -8 q 99 189 147 75 q 50 517 50 303 q 99 844 50 731 q 241 1000 147 958 q 492 1042 335 1042 q 742 1000 649 1042 q 885 844 836 958 q 933 517 933 731 q 885 189 933 303 q 742 33 836 75 q 492 -8 649 -8 m 492 233 q 599 256 564 233 q 649 339 635 279 q 664 517 664 399 q 650 698 664 639 q 600 778 636 757 q 492 800 564 800 q 383 778 419 800 q 333 698 347 757 q 319 517 319 639 q 334 339 319 399 q 384 256 349 279 q 492 233 419 233 m 282 1257 l 688 1257 l 688 1099 l 282 1099 l 282 1257 m 503 1519 l 717 1519 l 567 1321 l 408 1321 l 503 1519 z "},"Ṑ":{"ha":983,"x_min":50,"x_max":933,"o":"m 492 -8 q 241 33 335 -8 q 99 189 147 75 q 50 517 50 303 q 99 844 50 731 q 241 1000 147 958 q 492 1042 335 1042 q 742 1000 649 1042 q 885 844 836 958 q 933 517 933 731 q 885 189 933 303 q 742 33 836 75 q 492 -8 649 -8 m 492 233 q 599 256 564 233 q 649 339 635 279 q 664 517 664 399 q 650 698 664 639 q 600 778 636 757 q 492 800 564 800 q 383 778 419 800 q 333 698 347 757 q 319 517 319 639 q 334 339 319 399 q 384 256 349 279 q 492 233 419 233 m 282 1257 l 688 1257 l 688 1099 l 282 1099 l 282 1257 m 256 1519 l 469 1519 l 564 1321 l 406 1321 l 256 1519 z "},"Ǫ":{"ha":983,"x_min":50,"x_max":933,"o":"m 593 -4 q 556 -41 567 -24 q 544 -82 544 -58 q 562 -124 544 -108 q 603 -140 579 -140 l 617 -140 l 617 -265 q 567 -272 603 -272 q 453 -234 489 -272 q 418 -144 418 -196 q 489 -8 418 -58 q 240 34 333 -8 q 98 190 146 76 q 50 517 50 304 q 99 844 50 731 q 241 1000 147 958 q 492 1042 335 1042 q 742 1000 649 1042 q 885 844 836 958 q 933 517 933 731 q 896 219 933 329 q 785 58 858 108 q 593 -4 711 7 m 319 517 q 334 339 319 399 q 384 256 349 279 q 492 233 419 233 q 599 256 564 233 q 649 339 635 279 q 664 517 664 399 q 650 698 664 639 q 600 778 636 757 q 492 800 564 800 q 383 778 419 800 q 333 698 347 757 q 319 517 319 639 z "},"Ø":{"ha":983,"x_min":50,"x_max":933,"o":"m 844 915 q 912 758 890 856 q 933 517 933 661 q 885 189 933 303 q 742 33 836 75 q 492 -8 649 -8 q 254 28 342 -8 l 236 0 l 63 0 l 139 115 q 50 517 50 236 q 99 844 50 731 q 241 1000 147 958 q 492 1042 335 1042 q 731 1006 643 1042 l 749 1032 l 922 1032 l 844 915 m 319 517 q 325 394 319 439 l 585 786 q 492 800 551 800 q 383 778 419 800 q 333 698 347 757 q 319 517 319 639 m 492 233 q 599 256 564 233 q 649 339 635 279 q 664 517 664 399 q 660 636 664 589 l 400 247 q 492 233 433 233 z "},"Ǿ":{"ha":983,"x_min":50,"x_max":933,"o":"m 844 915 q 912 758 890 856 q 933 517 933 661 q 885 189 933 303 q 742 33 836 75 q 492 -8 649 -8 q 254 28 342 -8 l 236 0 l 63 0 l 139 115 q 50 517 50 236 q 99 844 50 731 q 241 1000 147 958 q 492 1042 335 1042 q 731 1006 643 1042 l 749 1032 l 922 1032 l 844 915 m 319 517 q 325 394 319 439 l 585 786 q 492 800 551 800 q 383 778 419 800 q 333 698 347 757 q 319 517 319 639 m 492 233 q 599 256 564 233 q 649 339 635 279 q 664 517 664 399 q 660 636 664 589 l 400 247 q 492 233 433 233 m 517 1297 l 731 1297 l 581 1099 l 422 1099 l 517 1297 z "},"Õ":{"ha":983,"x_min":50,"x_max":933,"o":"m 492 -8 q 241 33 335 -8 q 99 189 147 75 q 50 517 50 303 q 99 844 50 731 q 241 1000 147 958 q 492 1042 335 1042 q 742 1000 649 1042 q 885 844 836 958 q 933 517 933 731 q 885 189 933 303 q 742 33 836 75 q 492 -8 649 -8 m 492 233 q 599 256 564 233 q 649 339 635 279 q 664 517 664 399 q 650 698 664 639 q 600 778 636 757 q 492 800 564 800 q 383 778 419 800 q 333 698 347 757 q 319 517 319 639 q 334 339 319 399 q 384 256 349 279 q 492 233 419 233 m 217 1079 q 265 1233 224 1185 q 371 1281 306 1281 q 434 1272 407 1281 q 490 1250 461 1264 q 531 1234 514 1239 q 565 1229 547 1229 q 608 1290 604 1229 l 742 1290 q 592 1082 732 1082 q 527 1090 557 1082 q 465 1114 497 1099 q 438 1124 461 1115 q 396 1133 415 1133 q 350 1079 358 1133 l 217 1079 z "},"Ṍ":{"ha":983,"x_min":50,"x_max":933,"o":"m 492 -8 q 241 33 335 -8 q 99 189 147 75 q 50 517 50 303 q 99 844 50 731 q 241 1000 147 958 q 492 1042 335 1042 q 742 1000 649 1042 q 885 844 836 958 q 933 517 933 731 q 885 189 933 303 q 742 33 836 75 q 492 -8 649 -8 m 492 233 q 599 256 564 233 q 649 339 635 279 q 664 517 664 399 q 650 698 664 639 q 600 778 636 757 q 492 800 564 800 q 383 778 419 800 q 333 698 347 757 q 319 517 319 639 q 334 339 319 399 q 384 256 349 279 q 492 233 419 233 m 217 1079 q 265 1233 224 1185 q 371 1281 306 1281 q 434 1272 407 1281 q 490 1250 461 1264 q 531 1234 514 1239 q 565 1229 547 1229 q 608 1290 604 1229 l 742 1290 q 592 1082 732 1082 q 527 1090 557 1082 q 465 1114 497 1099 q 438 1124 461 1115 q 396 1133 415 1133 q 350 1079 358 1133 l 217 1079 m 475 1533 l 689 1533 l 539 1335 l 381 1335 l 475 1533 z "},"Ṏ":{"ha":983,"x_min":50,"x_max":933,"o":"m 492 -8 q 241 33 335 -8 q 99 189 147 75 q 50 517 50 303 q 99 844 50 731 q 241 1000 147 958 q 492 1042 335 1042 q 742 1000 649 1042 q 885 844 836 958 q 933 517 933 731 q 885 189 933 303 q 742 33 836 75 q 492 -8 649 -8 m 492 233 q 599 256 564 233 q 649 339 635 279 q 664 517 664 399 q 650 698 664 639 q 600 778 636 757 q 492 800 564 800 q 383 778 419 800 q 333 698 347 757 q 319 517 319 639 q 334 339 319 399 q 384 256 349 279 q 492 233 419 233 m 217 1079 q 265 1233 224 1185 q 371 1281 306 1281 q 434 1272 407 1281 q 490 1250 461 1264 q 531 1234 514 1239 q 565 1229 547 1229 q 608 1290 604 1229 l 742 1290 q 592 1082 732 1082 q 527 1090 557 1082 q 465 1114 497 1099 q 438 1124 461 1115 q 396 1133 415 1133 q 350 1079 358 1133 l 217 1079 m 285 1329 q 260 1338 269 1329 q 251 1361 251 1347 l 251 1515 q 260 1541 251 1532 q 285 1550 268 1550 l 410 1550 q 433 1540 425 1550 q 442 1515 442 1531 l 442 1361 q 433 1338 442 1346 q 410 1329 425 1329 l 285 1329 m 558 1329 q 534 1338 543 1329 q 525 1361 525 1347 l 525 1515 q 533 1541 525 1532 q 558 1550 542 1550 l 683 1550 q 707 1540 699 1550 q 715 1515 715 1531 l 715 1361 q 707 1338 715 1346 q 683 1329 699 1329 l 558 1329 z "},"Ȭ":{"ha":983,"x_min":50,"x_max":933,"o":"m 492 -8 q 241 33 335 -8 q 99 189 147 75 q 50 517 50 303 q 99 844 50 731 q 241 1000 147 958 q 492 1042 335 1042 q 742 1000 649 1042 q 885 844 836 958 q 933 517 933 731 q 885 189 933 303 q 742 33 836 75 q 492 -8 649 -8 m 492 233 q 599 256 564 233 q 649 339 635 279 q 664 517 664 399 q 650 698 664 639 q 600 778 636 757 q 492 800 564 800 q 383 778 419 800 q 333 698 347 757 q 319 517 319 639 q 334 339 319 399 q 384 256 349 279 q 492 233 419 233 m 296 1493 l 701 1493 l 701 1335 l 296 1335 l 296 1493 m 217 1079 q 265 1233 224 1185 q 371 1281 306 1281 q 434 1272 407 1281 q 490 1250 461 1264 q 531 1234 514 1239 q 565 1229 547 1229 q 608 1290 604 1229 l 742 1290 q 592 1082 732 1082 q 527 1090 557 1082 q 465 1114 497 1099 q 438 1124 461 1115 q 396 1133 415 1133 q 350 1079 358 1133 l 217 1079 z "},"Œ":{"ha":1426,"x_min":50,"x_max":1376,"o":"m 1004 783 q 933 722 933 783 l 933 636 l 1307 622 l 1307 408 l 933 394 l 933 317 q 949 263 933 281 q 993 244 965 244 l 1376 244 l 1376 17 q 1169 -2 1290 4 q 936 -8 1047 -8 q 751 38 819 -8 q 639 2 703 13 q 492 -8 575 -8 q 241 33 335 -8 q 99 189 147 75 q 50 517 50 303 q 99 844 50 731 q 241 1000 147 958 q 492 1042 335 1042 q 647 1030 581 1042 q 763 989 713 1018 q 921 1032 826 1032 q 1376 1011 1171 1032 l 1376 783 l 1004 783 m 492 233 q 599 256 564 233 q 649 339 635 279 q 664 517 664 399 q 650 698 664 639 q 600 778 636 757 q 492 800 564 800 q 383 778 419 800 q 333 698 347 757 q 319 517 319 639 q 334 339 319 399 q 384 256 349 279 q 492 233 419 233 z "},"P":{"ha":879,"x_min":76,"x_max":843,"o":"m 76 1032 l 529 1032 q 683 1006 615 1032 q 797 898 751 979 q 843 663 843 817 q 758 361 843 439 q 544 283 672 283 q 417 297 482 283 q 346 311 353 310 l 346 0 l 76 0 l 76 1032 m 501 525 q 558 558 542 525 q 574 660 574 590 q 556 758 574 725 q 501 790 539 790 l 346 790 l 346 525 l 501 525 z "},"Ṗ":{"ha":879,"x_min":76,"x_max":843,"o":"m 76 1032 l 529 1032 q 683 1006 615 1032 q 797 898 751 979 q 843 663 843 817 q 758 361 843 439 q 544 283 672 283 q 417 297 482 283 q 346 311 353 310 l 346 0 l 76 0 l 76 1032 m 501 525 q 558 558 542 525 q 574 660 574 590 q 556 758 574 725 q 501 790 539 790 l 346 790 l 346 525 l 501 525 m 369 1103 q 345 1112 354 1103 q 336 1135 336 1121 l 336 1289 q 344 1315 336 1306 q 369 1324 353 1324 l 494 1324 q 518 1314 510 1324 q 526 1289 526 1304 l 526 1135 q 518 1111 526 1119 q 494 1103 510 1103 l 369 1103 z "},"Þ":{"ha":838,"x_min":76,"x_max":801,"o":"m 76 1032 l 346 1032 l 346 879 l 488 879 q 642 854 574 879 q 756 751 710 829 q 801 524 801 672 q 716 233 801 308 q 503 158 631 158 q 439 165 475 158 q 374 179 403 172 l 346 186 l 346 0 l 76 0 l 76 1032 m 460 400 q 516 429 500 400 q 532 521 532 458 q 515 608 532 579 q 460 638 497 638 l 346 638 l 346 400 l 460 400 z "},"Q":{"ha":983,"x_min":50,"x_max":933,"o":"m 492 -8 q 241 33 335 -8 q 99 189 147 75 q 50 517 50 303 q 99 844 50 731 q 241 1000 147 958 q 492 1042 335 1042 q 742 1000 649 1042 q 885 844 836 958 q 933 517 933 731 q 885 189 933 303 q 742 33 836 75 q 492 -8 649 -8 m 492 233 q 599 256 564 233 q 649 339 635 279 q 664 517 664 399 q 650 698 664 639 q 600 778 636 757 q 492 800 564 800 q 383 778 419 800 q 333 698 347 757 q 319 517 319 639 q 334 339 319 399 q 384 256 349 279 q 492 233 419 233 m 721 -299 q 572 -272 642 -299 q 459 -190 503 -246 q 415 -53 415 -135 l 601 -53 q 635 -97 606 -83 q 706 -110 664 -110 q 760 -103 731 -110 q 800 -94 790 -96 l 800 -289 l 768 -293 q 721 -299 738 -299 z "},"R":{"ha":889,"x_min":76,"x_max":867,"o":"m 76 1032 l 517 1032 q 746 953 664 1032 q 828 685 828 875 q 791 502 828 565 q 688 400 754 439 l 867 0 l 593 0 l 449 356 l 346 356 l 346 0 l 76 0 l 76 1032 m 468 569 q 536 597 514 569 q 558 683 558 624 q 537 767 558 743 q 468 790 515 790 l 346 790 l 346 569 l 468 569 z "},"Ŕ":{"ha":889,"x_min":76,"x_max":867,"o":"m 76 1032 l 517 1032 q 746 953 664 1032 q 828 685 828 875 q 791 502 828 565 q 688 400 754 439 l 867 0 l 593 0 l 449 356 l 346 356 l 346 0 l 76 0 l 76 1032 m 468 569 q 536 597 514 569 q 558 683 558 624 q 537 767 558 743 q 468 790 515 790 l 346 790 l 346 569 l 468 569 m 447 1297 l 661 1297 l 511 1099 l 353 1099 l 447 1297 z "},"Ř":{"ha":889,"x_min":76,"x_max":867,"o":"m 76 1032 l 517 1032 q 746 953 664 1032 q 828 685 828 875 q 791 502 828 565 q 688 400 754 439 l 867 0 l 593 0 l 449 356 l 346 356 l 346 0 l 76 0 l 76 1032 m 468 569 q 536 597 514 569 q 558 683 558 624 q 537 767 558 743 q 468 790 515 790 l 346 790 l 346 569 l 468 569 m 200 1301 l 354 1301 l 422 1217 l 492 1301 l 647 1301 l 508 1099 l 326 1099 l 200 1301 z "},"Ŗ":{"ha":889,"x_min":76,"x_max":867,"o":"m 76 1032 l 517 1032 q 746 953 664 1032 q 828 685 828 875 q 791 502 828 565 q 688 400 754 439 l 867 0 l 593 0 l 449 356 l 346 356 l 346 0 l 76 0 l 76 1032 m 468 569 q 536 597 514 569 q 558 683 558 624 q 537 767 558 743 q 468 790 515 790 l 346 790 l 346 569 l 468 569 m 307 -203 l 343 -190 q 387 -164 376 -179 q 397 -110 397 -149 l 560 -110 q 523 -265 560 -218 q 392 -312 486 -312 l 307 -312 l 307 -203 z "},"Ȑ":{"ha":889,"x_min":76,"x_max":867,"o":"m 76 1032 l 517 1032 q 746 953 664 1032 q 828 685 828 875 q 791 502 828 565 q 688 400 754 439 l 867 0 l 593 0 l 449 356 l 346 356 l 346 0 l 76 0 l 76 1032 m 468 569 q 536 597 514 569 q 558 683 558 624 q 537 767 558 743 q 468 790 515 790 l 346 790 l 346 569 l 468 569 m 76 1297 l 290 1297 l 385 1099 l 226 1099 l 76 1297 m 354 1297 l 568 1297 l 663 1099 l 504 1099 l 354 1297 z "},"Ṛ":{"ha":889,"x_min":76,"x_max":867,"o":"m 76 1032 l 517 1032 q 746 953 664 1032 q 828 685 828 875 q 791 502 828 565 q 688 400 754 439 l 867 0 l 593 0 l 449 356 l 346 356 l 346 0 l 76 0 l 76 1032 m 468 569 q 536 597 514 569 q 558 683 558 624 q 537 767 558 743 q 468 790 515 790 l 346 790 l 346 569 l 468 569 m 369 -328 q 345 -319 354 -328 q 336 -296 336 -310 l 336 -142 q 344 -116 336 -125 q 369 -107 353 -107 l 494 -107 q 518 -117 510 -107 q 526 -142 526 -126 l 526 -296 q 518 -319 526 -311 q 494 -328 510 -328 l 369 -328 z "},"Ȓ":{"ha":889,"x_min":76,"x_max":867,"o":"m 76 1032 l 517 1032 q 746 953 664 1032 q 828 685 828 875 q 791 502 828 565 q 688 400 754 439 l 867 0 l 593 0 l 449 356 l 346 356 l 346 0 l 76 0 l 76 1032 m 468 569 q 536 597 514 569 q 558 683 558 624 q 537 767 558 743 q 468 790 515 790 l 346 790 l 346 569 l 468 569 m 426 1306 q 576 1251 525 1306 q 626 1088 626 1196 l 503 1088 q 481 1162 503 1139 q 426 1185 458 1185 q 350 1088 350 1185 l 224 1088 q 426 1306 224 1306 z "},"Ṟ":{"ha":889,"x_min":76,"x_max":867,"o":"m 76 1032 l 517 1032 q 746 953 664 1032 q 828 685 828 875 q 791 502 828 565 q 688 400 754 439 l 867 0 l 593 0 l 449 356 l 346 356 l 346 0 l 76 0 l 76 1032 m 468 569 q 536 597 514 569 q 558 683 558 624 q 537 767 558 743 q 468 790 515 790 l 346 790 l 346 569 l 468 569 m 235 -160 l 640 -160 l 640 -318 l 235 -318 l 235 -160 z "},"S":{"ha":829,"x_min":50,"x_max":779,"o":"m 400 -8 q 68 32 222 -8 l 68 246 q 386 233 207 233 q 490 249 457 233 q 524 304 524 265 l 524 321 q 503 366 524 350 q 451 382 482 382 l 378 382 q 131 455 213 382 q 50 690 50 528 l 50 736 q 140 964 50 888 q 406 1040 231 1040 q 728 1000 558 1040 l 728 786 q 439 799 572 799 q 339 783 372 799 q 306 722 306 767 l 306 708 q 396 638 306 638 l 488 638 q 703 560 628 638 q 779 357 779 482 l 779 311 q 735 113 779 183 q 609 17 690 43 q 400 -8 528 -8 z "},"Ś":{"ha":829,"x_min":50,"x_max":779,"o":"m 400 -8 q 68 32 222 -8 l 68 246 q 386 233 207 233 q 490 249 457 233 q 524 304 524 265 l 524 321 q 503 366 524 350 q 451 382 482 382 l 378 382 q 131 455 213 382 q 50 690 50 528 l 50 736 q 140 964 50 888 q 406 1040 231 1040 q 728 1000 558 1040 l 728 786 q 439 799 572 799 q 339 783 372 799 q 306 722 306 767 l 306 708 q 396 638 306 638 l 488 638 q 703 560 628 638 q 779 357 779 482 l 779 311 q 735 113 779 183 q 609 17 690 43 q 400 -8 528 -8 m 433 1297 l 647 1297 l 497 1099 l 339 1099 l 433 1297 z "},"Ṥ":{"ha":829,"x_min":50,"x_max":779,"o":"m 400 -8 q 68 32 222 -8 l 68 246 q 386 233 207 233 q 490 249 457 233 q 524 304 524 265 l 524 321 q 503 366 524 350 q 451 382 482 382 l 378 382 q 131 455 213 382 q 50 690 50 528 l 50 736 q 140 964 50 888 q 406 1040 231 1040 q 728 1000 558 1040 l 728 786 q 439 799 572 799 q 339 783 372 799 q 306 722 306 767 l 306 708 q 396 638 306 638 l 488 638 q 703 560 628 638 q 779 357 779 482 l 779 311 q 735 113 779 183 q 609 17 690 43 q 400 -8 528 -8 m 406 1297 l 619 1297 l 469 1099 l 311 1099 l 406 1297 m 411 1339 q 387 1348 396 1339 q 378 1371 378 1357 l 378 1525 q 386 1551 378 1542 q 411 1560 394 1560 l 536 1560 q 560 1550 551 1560 q 568 1525 568 1540 l 568 1371 q 560 1347 568 1356 q 536 1339 551 1339 l 411 1339 z "},"Š":{"ha":829,"x_min":50,"x_max":779,"o":"m 400 -8 q 68 32 222 -8 l 68 246 q 386 233 207 233 q 490 249 457 233 q 524 304 524 265 l 524 321 q 503 366 524 350 q 451 382 482 382 l 378 382 q 131 455 213 382 q 50 690 50 528 l 50 736 q 140 964 50 888 q 406 1040 231 1040 q 728 1000 558 1040 l 728 786 q 439 799 572 799 q 339 783 372 799 q 306 722 306 767 l 306 708 q 396 638 306 638 l 488 638 q 703 560 628 638 q 779 357 779 482 l 779 311 q 735 113 779 183 q 609 17 690 43 q 400 -8 528 -8 m 186 1301 l 340 1301 l 408 1217 l 478 1301 l 633 1301 l 494 1099 l 313 1099 l 186 1301 z "},"Ṧ":{"ha":829,"x_min":50,"x_max":779,"o":"m 400 -8 q 68 32 222 -8 l 68 246 q 386 233 207 233 q 490 249 457 233 q 524 304 524 265 l 524 321 q 503 366 524 350 q 451 382 482 382 l 378 382 q 131 455 213 382 q 50 690 50 528 l 50 736 q 140 964 50 888 q 406 1040 231 1040 q 728 1000 558 1040 l 728 786 q 439 799 572 799 q 339 783 372 799 q 306 722 306 767 l 306 708 q 396 638 306 638 l 488 638 q 703 560 628 638 q 779 357 779 482 l 779 311 q 735 113 779 183 q 609 17 690 43 q 400 -8 528 -8 m 186 1301 l 340 1301 l 408 1217 l 478 1301 l 633 1301 l 494 1099 l 313 1099 l 186 1301 m 342 1353 q 317 1362 326 1353 q 308 1385 308 1371 l 308 1539 q 317 1565 308 1556 q 342 1574 325 1574 l 467 1574 q 490 1564 482 1574 q 499 1539 499 1554 l 499 1385 q 490 1361 499 1369 q 467 1353 482 1353 l 342 1353 z "},"Ş":{"ha":829,"x_min":50,"x_max":779,"o":"m 488 638 q 703 560 628 638 q 779 357 779 482 l 779 311 q 707 77 779 147 q 489 -6 635 7 l 450 -68 q 513 -97 488 -74 q 538 -162 538 -121 q 499 -251 538 -219 q 381 -282 460 -282 l 299 -282 l 299 -172 l 319 -168 q 364 -131 364 -160 q 319 -86 364 -99 l 367 -8 q 68 32 211 -4 l 68 246 q 386 233 207 233 q 490 249 457 233 q 524 304 524 265 l 524 321 q 503 366 524 350 q 451 382 482 382 l 378 382 q 131 455 213 382 q 50 690 50 528 l 50 736 q 140 964 50 888 q 406 1040 231 1040 q 728 1000 558 1040 l 728 786 q 439 799 572 799 q 339 783 372 799 q 306 722 306 767 l 306 708 q 396 638 306 638 l 488 638 z "},"Ŝ":{"ha":829,"x_min":50,"x_max":779,"o":"m 400 -8 q 68 32 222 -8 l 68 246 q 386 233 207 233 q 490 249 457 233 q 524 304 524 265 l 524 321 q 503 366 524 350 q 451 382 482 382 l 378 382 q 131 455 213 382 q 50 690 50 528 l 50 736 q 140 964 50 888 q 406 1040 231 1040 q 728 1000 558 1040 l 728 786 q 439 799 572 799 q 339 783 372 799 q 306 722 306 767 l 306 708 q 396 638 306 638 l 488 638 q 703 560 628 638 q 779 357 779 482 l 779 311 q 735 113 779 183 q 609 17 690 43 q 400 -8 528 -8 m 322 1301 l 504 1301 l 631 1099 l 476 1099 l 408 1183 l 339 1099 l 183 1099 l 322 1301 z "},"Ș":{"ha":829,"x_min":50,"x_max":779,"o":"m 400 -8 q 68 32 222 -8 l 68 246 q 386 233 207 233 q 490 249 457 233 q 524 304 524 265 l 524 321 q 503 366 524 350 q 451 382 482 382 l 378 382 q 131 455 213 382 q 50 690 50 528 l 50 736 q 140 964 50 888 q 406 1040 231 1040 q 728 1000 558 1040 l 728 786 q 439 799 572 799 q 339 783 372 799 q 306 722 306 767 l 306 708 q 396 638 306 638 l 488 638 q 703 560 628 638 q 779 357 779 482 l 779 311 q 735 113 779 183 q 609 17 690 43 q 400 -8 528 -8 m 285 -203 l 321 -190 q 365 -164 354 -179 q 375 -110 375 -149 l 538 -110 q 501 -265 538 -218 q 369 -312 464 -312 l 285 -312 l 285 -203 z "},"Ṡ":{"ha":829,"x_min":50,"x_max":779,"o":"m 400 -8 q 68 32 222 -8 l 68 246 q 386 233 207 233 q 490 249 457 233 q 524 304 524 265 l 524 321 q 503 366 524 350 q 451 382 482 382 l 378 382 q 131 455 213 382 q 50 690 50 528 l 50 736 q 140 964 50 888 q 406 1040 231 1040 q 728 1000 558 1040 l 728 786 q 439 799 572 799 q 339 783 372 799 q 306 722 306 767 l 306 708 q 396 638 306 638 l 488 638 q 703 560 628 638 q 779 357 779 482 l 779 311 q 735 113 779 183 q 609 17 690 43 q 400 -8 528 -8 m 342 1103 q 317 1112 326 1103 q 308 1135 308 1121 l 308 1289 q 317 1315 308 1306 q 342 1324 325 1324 l 467 1324 q 490 1314 482 1324 q 499 1289 499 1304 l 499 1135 q 490 1111 499 1119 q 467 1103 482 1103 l 342 1103 z "},"Ṣ":{"ha":829,"x_min":50,"x_max":779,"o":"m 400 -8 q 68 32 222 -8 l 68 246 q 386 233 207 233 q 490 249 457 233 q 524 304 524 265 l 524 321 q 503 366 524 350 q 451 382 482 382 l 378 382 q 131 455 213 382 q 50 690 50 528 l 50 736 q 140 964 50 888 q 406 1040 231 1040 q 728 1000 558 1040 l 728 786 q 439 799 572 799 q 339 783 372 799 q 306 722 306 767 l 306 708 q 396 638 306 638 l 488 638 q 703 560 628 638 q 779 357 779 482 l 779 311 q 735 113 779 183 q 609 17 690 43 q 400 -8 528 -8 m 347 -328 q 323 -319 332 -328 q 314 -296 314 -310 l 314 -142 q 322 -116 314 -125 q 347 -107 331 -107 l 472 -107 q 496 -117 488 -107 q 504 -142 504 -126 l 504 -296 q 496 -319 504 -311 q 472 -328 488 -328 l 347 -328 z "},"Ṩ":{"ha":829,"x_min":50,"x_max":779,"o":"m 400 -8 q 68 32 222 -8 l 68 246 q 386 233 207 233 q 490 249 457 233 q 524 304 524 265 l 524 321 q 503 366 524 350 q 451 382 482 382 l 378 382 q 131 455 213 382 q 50 690 50 528 l 50 736 q 140 964 50 888 q 406 1040 231 1040 q 728 1000 558 1040 l 728 786 q 439 799 572 799 q 339 783 372 799 q 306 722 306 767 l 306 708 q 396 638 306 638 l 488 638 q 703 560 628 638 q 779 357 779 482 l 779 311 q 735 113 779 183 q 609 17 690 43 q 400 -8 528 -8 m 347 -328 q 323 -319 332 -328 q 314 -296 314 -310 l 314 -142 q 322 -116 314 -125 q 347 -107 331 -107 l 472 -107 q 496 -117 488 -107 q 504 -142 504 -126 l 504 -296 q 496 -319 504 -311 q 472 -328 488 -328 l 347 -328 m 342 1103 q 317 1112 326 1103 q 308 1135 308 1121 l 308 1289 q 317 1315 308 1306 q 342 1324 325 1324 l 467 1324 q 490 1314 482 1324 q 499 1289 499 1304 l 499 1135 q 490 1111 499 1119 q 467 1103 482 1103 l 342 1103 z "},"ẞ":{"ha":1051,"x_min":76,"x_max":1001,"o":"m 753 588 q 935 515 869 578 q 1001 332 1001 451 l 1001 286 q 962 103 1001 168 q 850 15 922 39 q 664 -8 778 -8 q 429 21 539 -8 l 429 235 l 622 235 q 706 250 679 235 q 732 304 732 265 l 732 314 q 708 363 732 350 q 632 375 685 375 l 461 375 l 461 589 l 622 790 l 425 790 q 365 772 385 790 q 346 725 346 754 l 346 0 l 76 0 l 76 721 q 170 957 76 882 q 414 1032 264 1032 q 692 1028 581 1032 q 926 1014 804 1024 l 926 804 l 753 588 z "},"Ə":{"ha":882,"x_min":35,"x_max":832,"o":"m 425 -8 q 138 101 242 -8 q 35 450 35 210 l 35 617 l 561 617 q 497 760 556 719 q 321 800 439 800 q 86 788 186 800 l 86 997 q 383 1042 201 1042 q 624 1001 526 1042 q 776 849 721 960 q 832 536 832 738 q 781 200 832 319 q 641 36 729 81 q 425 -8 553 -8 m 428 233 q 557 403 544 233 l 308 403 q 338 271 313 308 q 428 233 364 233 z "},"T":{"ha":833,"x_min":22,"x_max":811,"o":"m 282 790 l 22 790 l 22 1032 l 811 1032 l 811 790 l 551 790 l 551 0 l 282 0 l 282 790 z "},"Ŧ":{"ha":833,"x_min":22,"x_max":811,"o":"m 551 790 l 551 593 l 778 593 l 778 463 l 551 463 l 551 0 l 282 0 l 282 463 l 56 463 l 56 593 l 282 593 l 282 790 l 22 790 l 22 1032 l 811 1032 l 811 790 l 551 790 z "},"Ť":{"ha":833,"x_min":22,"x_max":811,"o":"m 282 790 l 22 790 l 22 1032 l 811 1032 l 811 790 l 551 790 l 551 0 l 282 0 l 282 790 m 194 1301 l 349 1301 l 417 1217 l 486 1301 l 642 1301 l 503 1099 l 321 1099 l 194 1301 z "},"Ţ":{"ha":833,"x_min":22,"x_max":811,"o":"m 811 1032 l 811 790 l 551 790 l 551 0 l 500 0 l 458 -68 q 521 -97 496 -74 q 546 -162 546 -121 q 507 -251 546 -219 q 389 -282 468 -282 l 307 -282 l 307 -172 l 328 -168 q 372 -131 372 -160 q 328 -86 372 -99 l 381 0 l 282 0 l 282 790 l 22 790 l 22 1032 l 811 1032 z "},"Ț":{"ha":833,"x_min":22,"x_max":811,"o":"m 282 790 l 22 790 l 22 1032 l 811 1032 l 811 790 l 551 790 l 551 0 l 282 0 l 282 790 m 251 -203 l 288 -190 q 331 -164 321 -179 q 342 -110 342 -149 l 504 -110 q 467 -265 504 -218 q 336 -312 431 -312 l 251 -312 l 251 -203 z "},"Ṫ":{"ha":833,"x_min":22,"x_max":811,"o":"m 282 790 l 22 790 l 22 1032 l 811 1032 l 811 790 l 551 790 l 551 0 l 282 0 l 282 790 m 350 1103 q 326 1112 335 1103 q 317 1135 317 1121 l 317 1289 q 325 1315 317 1306 q 350 1324 333 1324 l 475 1324 q 499 1314 490 1324 q 507 1289 507 1304 l 507 1135 q 499 1111 507 1119 q 475 1103 490 1103 l 350 1103 z "},"Ṭ":{"ha":833,"x_min":22,"x_max":811,"o":"m 282 790 l 22 790 l 22 1032 l 811 1032 l 811 790 l 551 790 l 551 0 l 282 0 l 282 790 m 356 -328 q 331 -319 340 -328 q 322 -296 322 -310 l 322 -142 q 331 -116 322 -125 q 356 -107 339 -107 l 481 -107 q 504 -117 496 -107 q 513 -142 513 -126 l 513 -296 q 504 -319 513 -311 q 481 -328 496 -328 l 356 -328 z "},"Ṯ":{"ha":833,"x_min":22,"x_max":811,"o":"m 282 790 l 22 790 l 22 1032 l 811 1032 l 811 790 l 551 790 l 551 0 l 282 0 l 282 790 m 221 -160 l 626 -160 l 626 -318 l 221 -318 l 221 -160 z "},"U":{"ha":961,"x_min":63,"x_max":899,"o":"m 481 -7 q 173 67 283 -7 q 63 340 63 140 l 63 1032 l 332 1032 l 332 342 q 370 262 332 289 q 481 235 408 235 q 591 262 553 235 q 629 342 629 289 l 629 1032 l 899 1032 l 899 340 q 788 67 899 140 q 481 -7 678 -7 z "},"Ú":{"ha":961,"x_min":63,"x_max":899,"o":"m 481 -7 q 173 67 283 -7 q 63 340 63 140 l 63 1032 l 332 1032 l 332 342 q 370 262 332 289 q 481 235 408 235 q 591 262 553 235 q 629 342 629 289 l 629 1032 l 899 1032 l 899 340 q 788 67 899 140 q 481 -7 678 -7 m 489 1297 l 703 1297 l 553 1099 l 394 1099 l 489 1297 z "},"Ŭ":{"ha":961,"x_min":63,"x_max":899,"o":"m 481 -7 q 173 67 283 -7 q 63 340 63 140 l 63 1032 l 332 1032 l 332 342 q 370 262 332 289 q 481 235 408 235 q 591 262 553 235 q 629 342 629 289 l 629 1032 l 899 1032 l 899 340 q 788 67 899 140 q 481 -7 678 -7 m 454 1083 q 305 1138 356 1083 q 254 1301 254 1193 l 378 1301 q 400 1227 378 1250 q 454 1204 422 1204 q 531 1301 531 1204 l 657 1301 q 454 1083 657 1083 z "},"Û":{"ha":961,"x_min":63,"x_max":899,"o":"m 481 -7 q 173 67 283 -7 q 63 340 63 140 l 63 1032 l 332 1032 l 332 342 q 370 262 332 289 q 481 235 408 235 q 591 262 553 235 q 629 342 629 289 l 629 1032 l 899 1032 l 899 340 q 788 67 899 140 q 481 -7 678 -7 m 378 1301 l 560 1301 l 686 1099 l 532 1099 l 464 1183 l 394 1099 l 239 1099 l 378 1301 z "},"Ȕ":{"ha":961,"x_min":63,"x_max":899,"o":"m 481 -7 q 173 67 283 -7 q 63 340 63 140 l 63 1032 l 332 1032 l 332 342 q 370 262 332 289 q 481 235 408 235 q 591 262 553 235 q 629 342 629 289 l 629 1032 l 899 1032 l 899 340 q 788 67 899 140 q 481 -7 678 -7 m 118 1297 l 332 1297 l 426 1099 l 268 1099 l 118 1297 m 396 1297 l 610 1297 l 704 1099 l 546 1099 l 396 1297 z "},"Ü":{"ha":961,"x_min":63,"x_max":899,"o":"m 481 -7 q 173 67 283 -7 q 63 340 63 140 l 63 1032 l 332 1032 l 332 342 q 370 262 332 289 q 481 235 408 235 q 591 262 553 235 q 629 342 629 289 l 629 1032 l 899 1032 l 899 340 q 788 67 899 140 q 481 -7 678 -7 m 257 1093 q 233 1102 242 1093 q 224 1125 224 1111 l 224 1279 q 232 1305 224 1296 q 257 1314 240 1314 l 382 1314 q 406 1304 397 1314 q 414 1279 414 1294 l 414 1125 q 406 1101 414 1110 q 382 1093 397 1093 l 257 1093 m 531 1093 q 506 1102 515 1093 q 497 1125 497 1111 l 497 1279 q 506 1305 497 1296 q 531 1314 514 1314 l 656 1314 q 679 1304 671 1314 q 688 1279 688 1294 l 688 1125 q 679 1101 688 1110 q 656 1093 671 1093 l 531 1093 z "},"Ụ":{"ha":961,"x_min":63,"x_max":899,"o":"m 481 -7 q 173 67 283 -7 q 63 340 63 140 l 63 1032 l 332 1032 l 332 342 q 370 262 332 289 q 481 235 408 235 q 591 262 553 235 q 629 342 629 289 l 629 1032 l 899 1032 l 899 340 q 788 67 899 140 q 481 -7 678 -7 m 403 -328 q 378 -319 388 -328 q 369 -296 369 -310 l 369 -142 q 378 -116 369 -125 q 403 -107 386 -107 l 528 -107 q 551 -117 543 -107 q 560 -142 560 -126 l 560 -296 q 551 -319 560 -311 q 528 -328 543 -328 l 403 -328 z "},"Ù":{"ha":961,"x_min":63,"x_max":899,"o":"m 481 -7 q 173 67 283 -7 q 63 340 63 140 l 63 1032 l 332 1032 l 332 342 q 370 262 332 289 q 481 235 408 235 q 591 262 553 235 q 629 342 629 289 l 629 1032 l 899 1032 l 899 340 q 788 67 899 140 q 481 -7 678 -7 m 269 1297 l 483 1297 l 578 1099 l 419 1099 l 269 1297 z "},"Ủ":{"ha":961,"x_min":63,"x_max":899,"o":"m 481 -7 q 173 67 283 -7 q 63 340 63 140 l 63 1032 l 332 1032 l 332 342 q 370 262 332 289 q 481 235 408 235 q 591 262 553 235 q 629 342 629 289 l 629 1032 l 899 1032 l 899 340 q 788 67 899 140 q 481 -7 678 -7 m 417 1183 q 457 1222 457 1194 q 424 1244 457 1244 q 382 1236 410 1244 l 382 1339 q 460 1351 419 1351 q 562 1321 528 1351 q 596 1232 596 1290 q 554 1132 596 1169 q 417 1067 513 1094 l 417 1183 z "},"Ư":{"ha":961,"x_min":63,"x_max":1015,"o":"m 1015 1182 q 985 1015 1015 1083 q 899 915 956 947 l 899 340 q 788 67 899 140 q 481 -7 678 -7 q 173 67 283 -7 q 63 340 63 140 l 63 1032 l 332 1032 l 332 342 q 370 262 332 289 q 481 235 408 235 q 591 262 553 235 q 629 342 629 289 l 629 1032 l 739 1032 q 809 1066 786 1032 q 832 1182 832 1100 l 1015 1182 z "},"Ứ":{"ha":961,"x_min":63,"x_max":1015,"o":"m 1015 1182 q 985 1015 1015 1083 q 899 915 956 947 l 899 340 q 788 67 899 140 q 481 -7 678 -7 q 173 67 283 -7 q 63 340 63 140 l 63 1032 l 332 1032 l 332 342 q 370 262 332 289 q 481 235 408 235 q 591 262 553 235 q 629 342 629 289 l 629 1032 l 739 1032 q 809 1066 786 1032 q 832 1182 832 1100 l 1015 1182 m 485 1297 l 699 1297 l 549 1099 l 390 1099 l 485 1297 z "},"Ự":{"ha":961,"x_min":63,"x_max":1015,"o":"m 1015 1182 q 985 1015 1015 1083 q 899 915 956 947 l 899 340 q 788 67 899 140 q 481 -7 678 -7 q 173 67 283 -7 q 63 340 63 140 l 63 1032 l 332 1032 l 332 342 q 370 262 332 289 q 481 235 408 235 q 591 262 553 235 q 629 342 629 289 l 629 1032 l 739 1032 q 809 1066 786 1032 q 832 1182 832 1100 l 1015 1182 m 401 -328 q 377 -319 386 -328 q 368 -296 368 -310 l 368 -142 q 376 -116 368 -125 q 401 -107 385 -107 l 526 -107 q 550 -117 542 -107 q 558 -142 558 -126 l 558 -296 q 550 -319 558 -311 q 526 -328 542 -328 l 401 -328 z "},"Ừ":{"ha":961,"x_min":63,"x_max":1015,"o":"m 1015 1182 q 985 1015 1015 1083 q 899 915 956 947 l 899 340 q 788 67 899 140 q 481 -7 678 -7 q 173 67 283 -7 q 63 340 63 140 l 63 1032 l 332 1032 l 332 342 q 370 262 332 289 q 481 235 408 235 q 591 262 553 235 q 629 342 629 289 l 629 1032 l 739 1032 q 809 1066 786 1032 q 832 1182 832 1100 l 1015 1182 m 265 1297 l 479 1297 l 574 1099 l 415 1099 l 265 1297 z "},"Ử":{"ha":961,"x_min":63,"x_max":1015,"o":"m 1015 1182 q 985 1015 1015 1083 q 899 915 956 947 l 899 340 q 788 67 899 140 q 481 -7 678 -7 q 173 67 283 -7 q 63 340 63 140 l 63 1032 l 332 1032 l 332 342 q 370 262 332 289 q 481 235 408 235 q 591 262 553 235 q 629 342 629 289 l 629 1032 l 739 1032 q 809 1066 786 1032 q 832 1182 832 1100 l 1015 1182 m 439 1183 q 479 1222 479 1194 q 446 1244 479 1244 q 404 1236 432 1244 l 404 1339 q 482 1351 442 1351 q 584 1321 550 1351 q 618 1232 618 1290 q 576 1132 618 1169 q 439 1067 535 1094 l 439 1183 z "},"Ữ":{"ha":961,"x_min":63,"x_max":1015,"o":"m 1015 1182 q 985 1015 1015 1083 q 899 915 956 947 l 899 340 q 788 67 899 140 q 481 -7 678 -7 q 173 67 283 -7 q 63 340 63 140 l 63 1032 l 332 1032 l 332 342 q 370 262 332 289 q 481 235 408 235 q 591 262 553 235 q 629 342 629 289 l 629 1032 l 739 1032 q 809 1066 786 1032 q 832 1182 832 1100 l 1015 1182 m 226 1079 q 274 1233 233 1185 q 381 1281 315 1281 q 444 1272 417 1281 q 500 1250 471 1264 q 540 1234 524 1239 q 575 1229 557 1229 q 618 1290 614 1229 l 751 1290 q 601 1082 742 1082 q 537 1090 567 1082 q 475 1114 507 1099 q 448 1124 471 1115 q 406 1133 425 1133 q 360 1079 368 1133 l 226 1079 z "},"Ű":{"ha":961,"x_min":63,"x_max":899,"o":"m 481 -7 q 173 67 283 -7 q 63 340 63 140 l 63 1032 l 332 1032 l 332 342 q 370 262 332 289 q 481 235 408 235 q 591 262 553 235 q 629 342 629 289 l 629 1032 l 899 1032 l 899 340 q 788 67 899 140 q 481 -7 678 -7 m 336 1297 l 536 1297 l 414 1099 l 256 1099 l 336 1297 m 576 1297 l 776 1297 l 654 1099 l 496 1099 l 576 1297 z "},"Ȗ":{"ha":961,"x_min":63,"x_max":899,"o":"m 481 -7 q 173 67 283 -7 q 63 340 63 140 l 63 1032 l 332 1032 l 332 342 q 370 262 332 289 q 481 235 408 235 q 591 262 553 235 q 629 342 629 289 l 629 1032 l 899 1032 l 899 340 q 788 67 899 140 q 481 -7 678 -7 m 468 1306 q 617 1251 567 1306 q 668 1088 668 1196 l 544 1088 q 522 1162 544 1139 q 468 1185 500 1185 q 392 1088 392 1185 l 265 1088 q 468 1306 265 1306 z "},"Ū":{"ha":961,"x_min":63,"x_max":899,"o":"m 481 -7 q 173 67 283 -7 q 63 340 63 140 l 63 1032 l 332 1032 l 332 342 q 370 262 332 289 q 481 235 408 235 q 591 262 553 235 q 629 342 629 289 l 629 1032 l 899 1032 l 899 340 q 788 67 899 140 q 481 -7 678 -7 m 254 1257 l 660 1257 l 660 1099 l 254 1099 l 254 1257 z "},"Ṻ":{"ha":961,"x_min":63,"x_max":899,"o":"m 481 -7 q 173 67 283 -7 q 63 340 63 140 l 63 1032 l 332 1032 l 332 342 q 370 262 332 289 q 481 235 408 235 q 591 262 553 235 q 629 342 629 289 l 629 1032 l 899 1032 l 899 340 q 788 67 899 140 q 481 -7 678 -7 m 254 1257 l 660 1257 l 660 1099 l 254 1099 l 254 1257 m 257 1301 q 233 1310 242 1301 q 224 1333 224 1319 l 224 1488 q 232 1513 224 1504 q 257 1522 240 1522 l 382 1522 q 406 1513 397 1522 q 414 1488 414 1503 l 414 1333 q 406 1310 414 1318 q 382 1301 397 1301 l 257 1301 m 531 1301 q 506 1310 515 1301 q 497 1333 497 1319 l 497 1488 q 506 1513 497 1504 q 531 1522 514 1522 l 656 1522 q 679 1513 671 1522 q 688 1488 688 1503 l 688 1333 q 679 1310 688 1318 q 656 1301 671 1301 l 531 1301 z "},"Ų":{"ha":961,"x_min":63,"x_max":899,"o":"m 899 1032 l 899 340 q 820 97 899 175 q 600 0 742 18 q 558 -40 569 -21 q 546 -82 546 -58 q 563 -124 546 -108 q 604 -140 581 -140 l 618 -140 l 618 -265 q 568 -272 604 -272 q 455 -234 490 -272 q 419 -144 419 -196 q 439 -64 419 -99 q 493 -7 458 -29 l 481 -7 q 173 67 283 -7 q 63 340 63 140 l 63 1032 l 332 1032 l 332 342 q 370 262 332 289 q 481 235 408 235 q 591 262 553 235 q 629 342 629 289 l 629 1032 l 899 1032 z "},"Ů":{"ha":961,"x_min":63,"x_max":899,"o":"m 481 -7 q 173 67 283 -7 q 63 340 63 140 l 63 1032 l 332 1032 l 332 342 q 370 262 332 289 q 481 235 408 235 q 591 262 553 235 q 629 342 629 289 l 629 1032 l 899 1032 l 899 340 q 788 67 899 140 q 481 -7 678 -7 m 465 1069 q 327 1106 372 1069 q 282 1232 282 1143 q 328 1358 282 1321 q 465 1396 374 1396 q 603 1358 558 1396 q 647 1232 647 1321 q 603 1106 647 1143 q 465 1069 558 1069 m 465 1165 q 511 1180 497 1165 q 525 1232 525 1194 q 511 1285 525 1269 q 465 1300 497 1300 q 419 1285 433 1300 q 404 1232 404 1269 q 419 1181 404 1196 q 465 1165 433 1165 z "},"Ũ":{"ha":961,"x_min":63,"x_max":899,"o":"m 481 -7 q 173 67 283 -7 q 63 340 63 140 l 63 1032 l 332 1032 l 332 342 q 370 262 332 289 q 481 235 408 235 q 591 262 553 235 q 629 342 629 289 l 629 1032 l 899 1032 l 899 340 q 788 67 899 140 q 481 -7 678 -7 m 189 1079 q 237 1233 196 1185 q 343 1281 278 1281 q 406 1272 379 1281 q 463 1250 433 1264 q 503 1234 486 1239 q 538 1229 519 1229 q 581 1290 576 1229 l 714 1290 q 564 1082 704 1082 q 499 1090 529 1082 q 438 1114 469 1099 q 410 1124 433 1115 q 368 1133 388 1133 q 322 1079 331 1133 l 189 1079 z "},"Ṹ":{"ha":961,"x_min":63,"x_max":899,"o":"m 481 -7 q 173 67 283 -7 q 63 340 63 140 l 63 1032 l 332 1032 l 332 342 q 370 262 332 289 q 481 235 408 235 q 591 262 553 235 q 629 342 629 289 l 629 1032 l 899 1032 l 899 340 q 788 67 899 140 q 481 -7 678 -7 m 189 1079 q 237 1233 196 1185 q 343 1281 278 1281 q 406 1272 379 1281 q 463 1250 433 1264 q 503 1234 486 1239 q 538 1229 519 1229 q 581 1290 576 1229 l 714 1290 q 564 1082 704 1082 q 499 1090 529 1082 q 438 1114 469 1099 q 410 1124 433 1115 q 368 1133 388 1133 q 322 1079 331 1133 l 189 1079 m 489 1506 l 703 1506 l 553 1307 l 394 1307 l 489 1506 z "},"V":{"ha":961,"x_min":7,"x_max":954,"o":"m 7 1032 l 286 1032 l 482 293 l 678 1032 l 954 1032 l 649 0 l 313 0 l 7 1032 z "},"W":{"ha":1376,"x_min":7,"x_max":1369,"o":"m 7 1032 l 286 1032 l 414 404 l 568 1032 l 810 1032 l 963 404 l 1090 1032 l 1369 1032 l 1133 0 l 864 0 l 689 631 l 513 0 l 243 0 l 7 1032 z "},"Ẃ":{"ha":1376,"x_min":7,"x_max":1369,"o":"m 7 1032 l 286 1032 l 414 404 l 568 1032 l 810 1032 l 963 404 l 1090 1032 l 1369 1032 l 1133 0 l 864 0 l 689 631 l 513 0 l 243 0 l 7 1032 m 767 1297 l 981 1297 l 831 1099 l 672 1099 l 767 1297 z "},"Ŵ":{"ha":1376,"x_min":7,"x_max":1369,"o":"m 7 1032 l 286 1032 l 414 404 l 568 1032 l 810 1032 l 963 404 l 1090 1032 l 1369 1032 l 1133 0 l 864 0 l 689 631 l 513 0 l 243 0 l 7 1032 m 656 1301 l 838 1301 l 964 1099 l 810 1099 l 742 1183 l 672 1099 l 517 1099 l 656 1301 z "},"Ẅ":{"ha":1376,"x_min":7,"x_max":1369,"o":"m 7 1032 l 286 1032 l 414 404 l 568 1032 l 810 1032 l 963 404 l 1090 1032 l 1369 1032 l 1133 0 l 864 0 l 689 631 l 513 0 l 243 0 l 7 1032 m 535 1093 q 510 1102 519 1093 q 501 1125 501 1111 l 501 1279 q 510 1305 501 1296 q 535 1314 518 1314 l 660 1314 q 683 1304 675 1314 q 692 1279 692 1294 l 692 1125 q 683 1101 692 1110 q 660 1093 675 1093 l 535 1093 m 808 1093 q 784 1102 793 1093 q 775 1125 775 1111 l 775 1279 q 783 1305 775 1296 q 808 1314 792 1314 l 933 1314 q 957 1304 949 1314 q 965 1279 965 1294 l 965 1125 q 957 1101 965 1110 q 933 1093 949 1093 l 808 1093 z "},"Ẁ":{"ha":1376,"x_min":7,"x_max":1369,"o":"m 7 1032 l 286 1032 l 414 404 l 568 1032 l 810 1032 l 963 404 l 1090 1032 l 1369 1032 l 1133 0 l 864 0 l 689 631 l 513 0 l 243 0 l 7 1032 m 547 1297 l 761 1297 l 856 1099 l 697 1099 l 547 1297 z "},"X":{"ha":958,"x_min":7,"x_max":951,"o":"m 631 506 l 944 0 l 647 0 l 467 290 l 308 0 l 11 0 l 325 518 l 7 1032 l 304 1032 l 490 731 l 654 1032 l 951 1032 l 631 506 z "},"Y":{"ha":881,"x_min":7,"x_max":874,"o":"m 306 293 l 7 1032 l 286 1032 l 446 568 l 606 1032 l 874 1032 l 575 293 l 575 0 l 306 0 l 306 293 z "},"Ý":{"ha":881,"x_min":7,"x_max":874,"o":"m 306 293 l 7 1032 l 286 1032 l 446 568 l 606 1032 l 874 1032 l 575 293 l 575 0 l 306 0 l 306 293 m 471 1297 l 685 1297 l 535 1099 l 376 1099 l 471 1297 z "},"Ŷ":{"ha":881,"x_min":7,"x_max":874,"o":"m 306 293 l 7 1032 l 286 1032 l 446 568 l 606 1032 l 874 1032 l 575 293 l 575 0 l 306 0 l 306 293 m 360 1301 l 542 1301 l 668 1099 l 514 1099 l 446 1183 l 376 1099 l 221 1099 l 360 1301 z "},"Ÿ":{"ha":881,"x_min":7,"x_max":874,"o":"m 306 293 l 7 1032 l 286 1032 l 446 568 l 606 1032 l 874 1032 l 575 293 l 575 0 l 306 0 l 306 293 m 239 1093 q 215 1102 224 1093 q 206 1125 206 1111 l 206 1279 q 214 1305 206 1296 q 239 1314 222 1314 l 364 1314 q 388 1304 379 1314 q 396 1279 396 1294 l 396 1125 q 388 1101 396 1110 q 364 1093 379 1093 l 239 1093 m 513 1093 q 488 1102 497 1093 q 479 1125 479 1111 l 479 1279 q 488 1305 479 1296 q 513 1314 496 1314 l 638 1314 q 661 1304 653 1314 q 669 1279 669 1294 l 669 1125 q 661 1101 669 1110 q 638 1093 653 1093 l 513 1093 z "},"Ẏ":{"ha":881,"x_min":7,"x_max":874,"o":"m 306 293 l 7 1032 l 286 1032 l 446 568 l 606 1032 l 874 1032 l 575 293 l 575 0 l 306 0 l 306 293 m 385 -328 q 360 -319 369 -328 q 351 -296 351 -310 l 351 -142 q 360 -116 351 -125 q 385 -107 368 -107 l 510 -107 q 533 -117 525 -107 q 542 -142 542 -126 l 542 -296 q 533 -319 542 -311 q 510 -328 525 -328 l 385 -328 z "},"Ỵ":{"ha":881,"x_min":7,"x_max":874,"o":"m 306 293 l 7 1032 l 286 1032 l 446 568 l 606 1032 l 874 1032 l 575 293 l 575 0 l 306 0 l 306 293 m 385 -328 q 360 -319 369 -328 q 351 -296 351 -310 l 351 -142 q 360 -116 351 -125 q 385 -107 368 -107 l 510 -107 q 533 -117 525 -107 q 542 -142 542 -126 l 542 -296 q 533 -319 542 -311 q 510 -328 525 -328 l 385 -328 z "},"Ỳ":{"ha":881,"x_min":7,"x_max":874,"o":"m 306 293 l 7 1032 l 286 1032 l 446 568 l 606 1032 l 874 1032 l 575 293 l 575 0 l 306 0 l 306 293 m 251 1297 l 465 1297 l 560 1099 l 401 1099 l 251 1297 z "},"Ỷ":{"ha":881,"x_min":7,"x_max":874,"o":"m 306 293 l 7 1032 l 286 1032 l 446 568 l 606 1032 l 874 1032 l 575 293 l 575 0 l 306 0 l 306 293 m 399 1183 q 439 1222 439 1194 q 406 1244 439 1244 q 364 1236 392 1244 l 364 1339 q 442 1351 401 1351 q 544 1321 510 1351 q 578 1232 578 1290 q 536 1132 578 1169 q 399 1067 494 1094 l 399 1183 z "},"Ȳ":{"ha":881,"x_min":7,"x_max":874,"o":"m 306 293 l 7 1032 l 286 1032 l 446 568 l 606 1032 l 874 1032 l 575 293 l 575 0 l 306 0 l 306 293 m 236 1257 l 642 1257 l 642 1099 l 236 1099 l 236 1257 z "},"Ỹ":{"ha":881,"x_min":7,"x_max":874,"o":"m 306 293 l 7 1032 l 286 1032 l 446 568 l 606 1032 l 874 1032 l 575 293 l 575 0 l 306 0 l 306 293 m 171 1079 q 219 1233 178 1185 q 325 1281 260 1281 q 388 1272 361 1281 q 444 1250 415 1264 q 485 1234 468 1239 q 519 1229 501 1229 q 563 1290 558 1229 l 696 1290 q 546 1082 686 1082 q 481 1090 511 1082 q 419 1114 451 1099 q 392 1124 415 1115 q 350 1133 369 1133 q 304 1079 313 1133 l 171 1079 z "},"Z":{"ha":810,"x_min":49,"x_max":761,"o":"m 49 214 l 433 790 l 49 790 l 49 1032 l 761 1032 l 761 818 l 376 242 l 761 242 l 761 0 l 49 0 l 49 214 z "},"Ź":{"ha":810,"x_min":49,"x_max":761,"o":"m 49 214 l 433 790 l 49 790 l 49 1032 l 761 1032 l 761 818 l 376 242 l 761 242 l 761 0 l 49 0 l 49 214 m 421 1297 l 635 1297 l 485 1099 l 326 1099 l 421 1297 z "},"Ž":{"ha":810,"x_min":49,"x_max":761,"o":"m 49 214 l 433 790 l 49 790 l 49 1032 l 761 1032 l 761 818 l 376 242 l 761 242 l 761 0 l 49 0 l 49 214 m 174 1301 l 328 1301 l 396 1217 l 465 1301 l 621 1301 l 482 1099 l 300 1099 l 174 1301 z "},"Ż":{"ha":810,"x_min":49,"x_max":761,"o":"m 49 214 l 433 790 l 49 790 l 49 1032 l 761 1032 l 761 818 l 376 242 l 761 242 l 761 0 l 49 0 l 49 214 m 329 1103 q 305 1112 314 1103 q 296 1135 296 1121 l 296 1289 q 304 1315 296 1306 q 329 1324 313 1324 l 454 1324 q 478 1314 469 1324 q 486 1289 486 1304 l 486 1135 q 478 1111 486 1119 q 454 1103 469 1103 l 329 1103 z "},"Ẓ":{"ha":810,"x_min":49,"x_max":761,"o":"m 49 214 l 433 790 l 49 790 l 49 1032 l 761 1032 l 761 818 l 376 242 l 761 242 l 761 0 l 49 0 l 49 214 m 335 -328 q 310 -319 319 -328 q 301 -296 301 -310 l 301 -142 q 310 -116 301 -125 q 335 -107 318 -107 l 460 -107 q 483 -117 475 -107 q 492 -142 492 -126 l 492 -296 q 483 -319 492 -311 q 460 -328 475 -328 l 335 -328 z "},"a":{"ha":769,"x_min":36,"x_max":711,"o":"m 229 -8 q 89 43 142 -8 q 36 182 36 94 l 36 258 q 100 399 36 346 q 292 453 164 453 l 442 453 l 442 476 q 432 522 442 507 q 392 542 422 536 q 299 549 363 549 l 81 549 l 81 703 q 222 742 146 728 q 400 757 299 757 q 633 701 554 757 q 711 496 711 644 l 711 0 l 497 0 l 456 75 q 365 17 422 42 q 229 -8 308 -8 m 371 175 q 409 181 388 175 q 442 193 431 188 l 442 328 l 385 319 q 325 299 344 314 q 306 254 306 283 l 306 226 q 322 187 306 199 q 371 175 339 175 z "},"á":{"ha":769,"x_min":36,"x_max":711,"o":"m 229 -8 q 89 43 142 -8 q 36 182 36 94 l 36 258 q 100 399 36 346 q 292 453 164 453 l 442 453 l 442 476 q 432 522 442 507 q 392 542 422 536 q 299 549 363 549 l 81 549 l 81 703 q 222 742 146 728 q 400 757 299 757 q 633 701 554 757 q 711 496 711 644 l 711 0 l 497 0 l 456 75 q 365 17 422 42 q 229 -8 308 -8 m 371 175 q 409 181 388 175 q 442 193 431 188 l 442 328 l 385 319 q 325 299 344 314 q 306 254 306 283 l 306 226 q 322 187 306 199 q 371 175 339 175 m 400 1075 l 614 1075 l 464 876 l 306 876 l 400 1075 z "},"ă":{"ha":769,"x_min":36,"x_max":711,"o":"m 229 -8 q 89 43 142 -8 q 36 182 36 94 l 36 258 q 100 399 36 346 q 292 453 164 453 l 442 453 l 442 476 q 432 522 442 507 q 392 542 422 536 q 299 549 363 549 l 81 549 l 81 703 q 222 742 146 728 q 400 757 299 757 q 633 701 554 757 q 711 496 711 644 l 711 0 l 497 0 l 456 75 q 365 17 422 42 q 229 -8 308 -8 m 371 175 q 409 181 388 175 q 442 193 431 188 l 442 328 l 385 319 q 325 299 344 314 q 306 254 306 283 l 306 226 q 322 187 306 199 q 371 175 339 175 m 365 861 q 216 916 267 861 q 165 1079 165 971 l 289 1079 q 311 1005 289 1028 q 365 982 333 982 q 442 1079 442 982 l 568 1079 q 365 861 568 861 z "},"ắ":{"ha":769,"x_min":36,"x_max":711,"o":"m 229 -8 q 89 43 142 -8 q 36 182 36 94 l 36 258 q 100 399 36 346 q 292 453 164 453 l 442 453 l 442 476 q 432 522 442 507 q 392 542 422 536 q 299 549 363 549 l 81 549 l 81 703 q 222 742 146 728 q 400 757 299 757 q 633 701 554 757 q 711 496 711 644 l 711 0 l 497 0 l 456 75 q 365 17 422 42 q 229 -8 308 -8 m 371 175 q 409 181 388 175 q 442 193 431 188 l 442 328 l 385 319 q 325 299 344 314 q 306 254 306 283 l 306 226 q 322 187 306 199 q 371 175 339 175 m 386 1256 l 600 1256 l 450 1057 l 292 1057 l 386 1256 m 289 1010 q 310 956 289 972 q 365 940 332 940 q 442 1010 442 940 l 568 1010 q 365 833 568 833 q 216 878 267 833 q 165 1010 165 922 l 289 1010 z "},"ặ":{"ha":769,"x_min":36,"x_max":711,"o":"m 229 -8 q 89 43 142 -8 q 36 182 36 94 l 36 258 q 100 399 36 346 q 292 453 164 453 l 442 453 l 442 476 q 432 522 442 507 q 392 542 422 536 q 299 549 363 549 l 81 549 l 81 703 q 222 742 146 728 q 400 757 299 757 q 633 701 554 757 q 711 496 711 644 l 711 0 l 497 0 l 456 75 q 365 17 422 42 q 229 -8 308 -8 m 371 175 q 409 181 388 175 q 442 193 431 188 l 442 328 l 385 319 q 325 299 344 314 q 306 254 306 283 l 306 226 q 322 187 306 199 q 371 175 339 175 m 365 861 q 216 916 267 861 q 165 1079 165 971 l 289 1079 q 311 1005 289 1028 q 365 982 333 982 q 442 1079 442 982 l 568 1079 q 365 861 568 861 m 306 -328 q 281 -319 290 -328 q 272 -296 272 -310 l 272 -142 q 281 -116 272 -125 q 306 -107 289 -107 l 431 -107 q 454 -117 446 -107 q 463 -142 463 -126 l 463 -296 q 454 -319 463 -311 q 431 -328 446 -328 l 306 -328 z "},"ằ":{"ha":769,"x_min":36,"x_max":711,"o":"m 229 -8 q 89 43 142 -8 q 36 182 36 94 l 36 258 q 100 399 36 346 q 292 453 164 453 l 442 453 l 442 476 q 432 522 442 507 q 392 542 422 536 q 299 549 363 549 l 81 549 l 81 703 q 222 742 146 728 q 400 757 299 757 q 633 701 554 757 q 711 496 711 644 l 711 0 l 497 0 l 456 75 q 365 17 422 42 q 229 -8 308 -8 m 371 175 q 409 181 388 175 q 442 193 431 188 l 442 328 l 385 319 q 325 299 344 314 q 306 254 306 283 l 306 226 q 322 187 306 199 q 371 175 339 175 m 139 1256 l 353 1256 l 447 1057 l 289 1057 l 139 1256 m 289 1010 q 310 956 289 972 q 365 940 332 940 q 442 1010 442 940 l 568 1010 q 365 833 568 833 q 216 878 267 833 q 165 1010 165 922 l 289 1010 z "},"ẳ":{"ha":769,"x_min":36,"x_max":711,"o":"m 229 -8 q 89 43 142 -8 q 36 182 36 94 l 36 258 q 100 399 36 346 q 292 453 164 453 l 442 453 l 442 476 q 432 522 442 507 q 392 542 422 536 q 299 549 363 549 l 81 549 l 81 703 q 222 742 146 728 q 400 757 299 757 q 633 701 554 757 q 711 496 711 644 l 711 0 l 497 0 l 456 75 q 365 17 422 42 q 229 -8 308 -8 m 371 175 q 409 181 388 175 q 442 193 431 188 l 442 328 l 385 319 q 325 299 344 314 q 306 254 306 283 l 306 226 q 322 187 306 199 q 371 175 339 175 m 332 1114 q 372 1153 372 1125 q 339 1175 372 1175 q 297 1167 325 1175 l 297 1269 q 375 1282 335 1282 q 477 1251 443 1282 q 511 1163 511 1221 q 469 1063 511 1100 q 332 997 428 1025 l 332 1114 m 365 833 q 216 878 267 833 q 165 1010 165 922 l 289 1010 q 310 956 289 972 q 365 940 332 940 q 442 1010 442 940 l 568 1010 q 365 833 568 833 z "},"ẵ":{"ha":769,"x_min":36,"x_max":711,"o":"m 229 -8 q 89 43 142 -8 q 36 182 36 94 l 36 258 q 100 399 36 346 q 292 453 164 453 l 442 453 l 442 476 q 432 522 442 507 q 392 542 422 536 q 299 549 363 549 l 81 549 l 81 703 q 222 742 146 728 q 400 757 299 757 q 633 701 554 757 q 711 496 711 644 l 711 0 l 497 0 l 456 75 q 365 17 422 42 q 229 -8 308 -8 m 371 175 q 409 181 388 175 q 442 193 431 188 l 442 328 l 385 319 q 325 299 344 314 q 306 254 306 283 l 306 226 q 322 187 306 199 q 371 175 339 175 m 268 1218 q 358 1203 300 1218 q 410 1192 397 1192 q 450 1228 450 1192 l 583 1228 q 563 1127 578 1163 q 524 1078 549 1092 q 461 1065 500 1065 q 401 1073 432 1065 q 364 1082 369 1081 q 318 1092 331 1092 q 288 1083 299 1092 q 275 1063 278 1074 l 142 1063 q 181 1187 150 1156 q 268 1218 211 1218 m 289 1010 q 310 956 289 972 q 365 940 332 940 q 442 1010 442 940 l 568 1010 q 365 833 568 833 q 216 878 267 833 q 165 1010 165 922 l 289 1010 z "},"â":{"ha":769,"x_min":36,"x_max":711,"o":"m 229 -8 q 89 43 142 -8 q 36 182 36 94 l 36 258 q 100 399 36 346 q 292 453 164 453 l 442 453 l 442 476 q 432 522 442 507 q 392 542 422 536 q 299 549 363 549 l 81 549 l 81 703 q 222 742 146 728 q 400 757 299 757 q 633 701 554 757 q 711 496 711 644 l 711 0 l 497 0 l 456 75 q 365 17 422 42 q 229 -8 308 -8 m 371 175 q 409 181 388 175 q 442 193 431 188 l 442 328 l 385 319 q 325 299 344 314 q 306 254 306 283 l 306 226 q 322 187 306 199 q 371 175 339 175 m 289 1079 l 471 1079 l 597 876 l 443 876 l 375 961 l 306 876 l 150 876 l 289 1079 z "},"ấ":{"ha":769,"x_min":36,"x_max":753,"o":"m 229 -8 q 89 43 142 -8 q 36 182 36 94 l 36 258 q 100 399 36 346 q 292 453 164 453 l 442 453 l 442 476 q 432 522 442 507 q 392 542 422 536 q 299 549 363 549 l 81 549 l 81 703 q 222 742 146 728 q 400 757 299 757 q 633 701 554 757 q 711 496 711 644 l 711 0 l 497 0 l 456 75 q 365 17 422 42 q 229 -8 308 -8 m 371 175 q 409 181 388 175 q 442 193 431 188 l 442 328 l 385 319 q 325 299 344 314 q 306 254 306 283 l 306 226 q 322 187 306 199 q 371 175 339 175 m 753 1172 l 672 1001 l 514 1001 l 539 1172 l 753 1172 m 471 1038 l 597 876 l 443 876 l 375 919 l 306 876 l 150 876 l 289 1038 l 471 1038 z "},"ậ":{"ha":769,"x_min":36,"x_max":711,"o":"m 229 -8 q 89 43 142 -8 q 36 182 36 94 l 36 258 q 100 399 36 346 q 292 453 164 453 l 442 453 l 442 476 q 432 522 442 507 q 392 542 422 536 q 299 549 363 549 l 81 549 l 81 703 q 222 742 146 728 q 400 757 299 757 q 633 701 554 757 q 711 496 711 644 l 711 0 l 497 0 l 456 75 q 365 17 422 42 q 229 -8 308 -8 m 371 175 q 409 181 388 175 q 442 193 431 188 l 442 328 l 385 319 q 325 299 344 314 q 306 254 306 283 l 306 226 q 322 187 306 199 q 371 175 339 175 m 289 1079 l 471 1079 l 597 876 l 443 876 l 375 961 l 306 876 l 150 876 l 289 1079 m 306 -328 q 281 -319 290 -328 q 272 -296 272 -310 l 272 -142 q 281 -116 272 -125 q 306 -107 289 -107 l 431 -107 q 454 -117 446 -107 q 463 -142 463 -126 l 463 -296 q 454 -319 463 -311 q 431 -328 446 -328 l 306 -328 z "},"ầ":{"ha":769,"x_min":0,"x_max":711,"o":"m 229 -8 q 89 43 142 -8 q 36 182 36 94 l 36 258 q 100 399 36 346 q 292 453 164 453 l 442 453 l 442 476 q 432 522 442 507 q 392 542 422 536 q 299 549 363 549 l 81 549 l 81 703 q 222 742 146 728 q 400 757 299 757 q 633 701 554 757 q 711 496 711 644 l 711 0 l 497 0 l 456 75 q 365 17 422 42 q 229 -8 308 -8 m 371 175 q 409 181 388 175 q 442 193 431 188 l 442 328 l 385 319 q 325 299 344 314 q 306 254 306 283 l 306 226 q 322 187 306 199 q 371 175 339 175 m 214 1172 l 239 1001 l 81 1001 l 0 1172 l 214 1172 m 471 1038 l 597 876 l 443 876 l 375 919 l 306 876 l 150 876 l 289 1038 l 471 1038 z "},"ẩ":{"ha":769,"x_min":36,"x_max":711,"o":"m 229 -8 q 89 43 142 -8 q 36 182 36 94 l 36 258 q 100 399 36 346 q 292 453 164 453 l 442 453 l 442 476 q 432 522 442 507 q 392 542 422 536 q 299 549 363 549 l 81 549 l 81 703 q 222 742 146 728 q 400 757 299 757 q 633 701 554 757 q 711 496 711 644 l 711 0 l 497 0 l 456 75 q 365 17 422 42 q 229 -8 308 -8 m 371 175 q 409 181 388 175 q 442 193 431 188 l 442 328 l 385 319 q 325 299 344 314 q 306 254 306 283 l 306 226 q 322 187 306 199 q 371 175 339 175 m 549 1072 q 575 1103 575 1081 q 556 1122 575 1122 q 514 1114 542 1122 l 514 1203 q 592 1215 551 1215 q 700 1121 700 1215 q 664 1017 700 1057 q 549 956 628 978 l 549 1072 m 289 1038 l 471 1038 l 597 876 l 443 876 l 375 919 l 306 876 l 150 876 l 289 1038 z "},"ẫ":{"ha":769,"x_min":36,"x_max":711,"o":"m 229 -8 q 89 43 142 -8 q 36 182 36 94 l 36 258 q 100 399 36 346 q 292 453 164 453 l 442 453 l 442 476 q 432 522 442 507 q 392 542 422 536 q 299 549 363 549 l 81 549 l 81 703 q 222 742 146 728 q 400 757 299 757 q 633 701 554 757 q 711 496 711 644 l 711 0 l 497 0 l 456 75 q 365 17 422 42 q 229 -8 308 -8 m 371 175 q 409 181 388 175 q 442 193 431 188 l 442 328 l 385 319 q 325 299 344 314 q 306 254 306 283 l 306 226 q 322 187 306 199 q 371 175 339 175 m 268 1246 q 313 1241 290 1246 q 357 1231 336 1236 q 410 1219 396 1219 q 450 1256 450 1219 l 583 1256 q 563 1155 578 1190 q 524 1106 549 1119 q 461 1093 500 1093 q 394 1101 428 1093 q 356 1110 361 1108 q 304 1119 317 1119 q 275 1090 282 1119 l 142 1090 q 181 1215 150 1183 q 268 1246 211 1246 m 597 876 l 443 876 l 375 919 l 306 876 l 150 876 l 289 1038 l 471 1038 l 597 876 z "},"ȁ":{"ha":769,"x_min":29,"x_max":711,"o":"m 229 -8 q 89 43 142 -8 q 36 182 36 94 l 36 258 q 100 399 36 346 q 292 453 164 453 l 442 453 l 442 476 q 432 522 442 507 q 392 542 422 536 q 299 549 363 549 l 81 549 l 81 703 q 222 742 146 728 q 400 757 299 757 q 633 701 554 757 q 711 496 711 644 l 711 0 l 497 0 l 456 75 q 365 17 422 42 q 229 -8 308 -8 m 371 175 q 409 181 388 175 q 442 193 431 188 l 442 328 l 385 319 q 325 299 344 314 q 306 254 306 283 l 306 226 q 322 187 306 199 q 371 175 339 175 m 29 1075 l 243 1075 l 338 876 l 179 876 l 29 1075 m 307 1075 l 521 1075 l 615 876 l 457 876 l 307 1075 z "},"ä":{"ha":769,"x_min":36,"x_max":711,"o":"m 229 -8 q 89 43 142 -8 q 36 182 36 94 l 36 258 q 100 399 36 346 q 292 453 164 453 l 442 453 l 442 476 q 432 522 442 507 q 392 542 422 536 q 299 549 363 549 l 81 549 l 81 703 q 222 742 146 728 q 400 757 299 757 q 633 701 554 757 q 711 496 711 644 l 711 0 l 497 0 l 456 75 q 365 17 422 42 q 229 -8 308 -8 m 371 175 q 409 181 388 175 q 442 193 431 188 l 442 328 l 385 319 q 325 299 344 314 q 306 254 306 283 l 306 226 q 322 187 306 199 q 371 175 339 175 m 168 871 q 144 880 153 871 q 135 903 135 889 l 135 1057 q 143 1083 135 1074 q 168 1092 151 1092 l 293 1092 q 317 1082 308 1092 q 325 1057 325 1072 l 325 903 q 317 879 325 888 q 293 871 308 871 l 168 871 m 442 871 q 417 880 426 871 q 408 903 408 889 l 408 1057 q 417 1083 408 1074 q 442 1092 425 1092 l 567 1092 q 590 1082 582 1092 q 599 1057 599 1072 l 599 903 q 590 879 599 888 q 567 871 582 871 l 442 871 z "},"ạ":{"ha":769,"x_min":36,"x_max":711,"o":"m 229 -8 q 89 43 142 -8 q 36 182 36 94 l 36 258 q 100 399 36 346 q 292 453 164 453 l 442 453 l 442 476 q 432 522 442 507 q 392 542 422 536 q 299 549 363 549 l 81 549 l 81 703 q 222 742 146 728 q 400 757 299 757 q 633 701 554 757 q 711 496 711 644 l 711 0 l 497 0 l 456 75 q 365 17 422 42 q 229 -8 308 -8 m 371 175 q 409 181 388 175 q 442 193 431 188 l 442 328 l 385 319 q 325 299 344 314 q 306 254 306 283 l 306 226 q 322 187 306 199 q 371 175 339 175 m 306 -328 q 281 -319 290 -328 q 272 -296 272 -310 l 272 -142 q 281 -116 272 -125 q 306 -107 289 -107 l 431 -107 q 454 -117 446 -107 q 463 -142 463 -126 l 463 -296 q 454 -319 463 -311 q 431 -328 446 -328 l 306 -328 z "},"à":{"ha":769,"x_min":36,"x_max":711,"o":"m 229 -8 q 89 43 142 -8 q 36 182 36 94 l 36 258 q 100 399 36 346 q 292 453 164 453 l 442 453 l 442 476 q 432 522 442 507 q 392 542 422 536 q 299 549 363 549 l 81 549 l 81 703 q 222 742 146 728 q 400 757 299 757 q 633 701 554 757 q 711 496 711 644 l 711 0 l 497 0 l 456 75 q 365 17 422 42 q 229 -8 308 -8 m 371 175 q 409 181 388 175 q 442 193 431 188 l 442 328 l 385 319 q 325 299 344 314 q 306 254 306 283 l 306 226 q 322 187 306 199 q 371 175 339 175 m 181 1075 l 394 1075 l 489 876 l 331 876 l 181 1075 z "},"ả":{"ha":769,"x_min":36,"x_max":711,"o":"m 229 -8 q 89 43 142 -8 q 36 182 36 94 l 36 258 q 100 399 36 346 q 292 453 164 453 l 442 453 l 442 476 q 432 522 442 507 q 392 542 422 536 q 299 549 363 549 l 81 549 l 81 703 q 222 742 146 728 q 400 757 299 757 q 633 701 554 757 q 711 496 711 644 l 711 0 l 497 0 l 456 75 q 365 17 422 42 q 229 -8 308 -8 m 371 175 q 409 181 388 175 q 442 193 431 188 l 442 328 l 385 319 q 325 299 344 314 q 306 254 306 283 l 306 226 q 322 187 306 199 q 371 175 339 175 m 328 933 q 368 972 368 944 q 335 994 368 994 q 293 986 321 994 l 293 1089 q 371 1101 331 1101 q 473 1071 439 1101 q 507 982 507 1040 q 465 882 507 919 q 328 817 424 844 l 328 933 z "},"ȃ":{"ha":769,"x_min":36,"x_max":711,"o":"m 229 -8 q 89 43 142 -8 q 36 182 36 94 l 36 258 q 100 399 36 346 q 292 453 164 453 l 442 453 l 442 476 q 432 522 442 507 q 392 542 422 536 q 299 549 363 549 l 81 549 l 81 703 q 222 742 146 728 q 400 757 299 757 q 633 701 554 757 q 711 496 711 644 l 711 0 l 497 0 l 456 75 q 365 17 422 42 q 229 -8 308 -8 m 371 175 q 409 181 388 175 q 442 193 431 188 l 442 328 l 385 319 q 325 299 344 314 q 306 254 306 283 l 306 226 q 322 187 306 199 q 371 175 339 175 m 382 1083 q 531 1028 481 1083 q 582 865 582 974 l 458 865 q 436 940 458 917 q 382 963 414 963 q 306 865 306 963 l 179 865 q 382 1083 179 1083 z "},"ā":{"ha":769,"x_min":36,"x_max":711,"o":"m 229 -8 q 89 43 142 -8 q 36 182 36 94 l 36 258 q 100 399 36 346 q 292 453 164 453 l 442 453 l 442 476 q 432 522 442 507 q 392 542 422 536 q 299 549 363 549 l 81 549 l 81 703 q 222 742 146 728 q 400 757 299 757 q 633 701 554 757 q 711 496 711 644 l 711 0 l 497 0 l 456 75 q 365 17 422 42 q 229 -8 308 -8 m 371 175 q 409 181 388 175 q 442 193 431 188 l 442 328 l 385 319 q 325 299 344 314 q 306 254 306 283 l 306 226 q 322 187 306 199 q 371 175 339 175 m 165 1035 l 571 1035 l 571 876 l 165 876 l 165 1035 z "},"ą":{"ha":769,"x_min":36,"x_max":729,"o":"m 729 -140 l 729 -265 q 679 -272 715 -272 q 566 -234 601 -272 q 531 -144 531 -196 q 553 -58 531 -94 q 615 0 576 -22 l 497 0 l 456 75 q 365 17 422 42 q 229 -8 308 -8 q 89 43 142 -8 q 36 182 36 94 l 36 258 q 100 399 36 346 q 292 453 164 453 l 442 453 l 442 476 q 432 522 442 507 q 392 542 422 536 q 299 549 363 549 l 81 549 l 81 703 q 222 742 146 728 q 400 757 299 757 q 633 701 554 757 q 711 496 711 644 l 711 0 q 669 -40 681 -21 q 657 -82 657 -58 q 674 -124 657 -108 q 715 -140 692 -140 l 729 -140 m 442 328 l 385 319 q 325 299 344 314 q 306 254 306 283 l 306 226 q 322 187 306 199 q 371 175 339 175 q 409 181 388 175 q 442 193 431 188 l 442 328 z "},"å":{"ha":769,"x_min":36,"x_max":711,"o":"m 229 -8 q 89 43 142 -8 q 36 182 36 94 l 36 258 q 100 399 36 346 q 292 453 164 453 l 442 453 l 442 476 q 432 522 442 507 q 392 542 422 536 q 299 549 363 549 l 81 549 l 81 703 q 222 742 146 728 q 400 757 299 757 q 633 701 554 757 q 711 496 711 644 l 711 0 l 497 0 l 456 75 q 365 17 422 42 q 229 -8 308 -8 m 371 175 q 409 181 388 175 q 442 193 431 188 l 442 328 l 385 319 q 325 299 344 314 q 306 254 306 283 l 306 226 q 322 187 306 199 q 371 175 339 175 m 376 806 q 238 842 283 806 q 193 968 193 879 q 239 1094 193 1057 q 376 1132 285 1132 q 514 1094 469 1132 q 558 968 558 1057 q 514 842 558 879 q 376 806 469 806 m 376 901 q 422 916 408 901 q 436 968 436 931 q 422 1021 436 1006 q 376 1036 408 1036 q 330 1021 344 1036 q 315 968 315 1006 q 330 917 315 932 q 376 901 344 901 z "},"ǻ":{"ha":769,"x_min":36,"x_max":711,"o":"m 376 806 q 238 842 283 806 q 193 968 193 879 q 225 1080 193 1042 q 321 1128 257 1118 l 401 1297 l 615 1297 l 478 1115 q 558 968 558 1083 q 514 842 558 879 q 376 806 469 806 m 376 901 q 422 916 408 901 q 436 968 436 931 q 422 1021 436 1006 q 376 1036 408 1036 q 330 1021 344 1036 q 315 968 315 1006 q 330 917 315 932 q 376 901 344 901 m 400 757 q 633 701 554 757 q 711 496 711 644 l 711 0 l 497 0 l 456 75 q 365 17 422 42 q 229 -8 308 -8 q 89 43 142 -8 q 36 182 36 94 l 36 258 q 100 399 36 346 q 292 453 164 453 l 442 453 l 442 476 q 432 522 442 507 q 392 542 422 536 q 299 549 363 549 l 81 549 l 81 703 q 222 742 146 728 q 400 757 299 757 m 442 328 l 385 319 q 325 299 344 314 q 306 254 306 283 l 306 226 q 322 187 306 199 q 371 175 339 175 q 409 181 388 175 q 442 193 431 188 l 442 328 z "},"ã":{"ha":769,"x_min":36,"x_max":711,"o":"m 229 -8 q 89 43 142 -8 q 36 182 36 94 l 36 258 q 100 399 36 346 q 292 453 164 453 l 442 453 l 442 476 q 432 522 442 507 q 392 542 422 536 q 299 549 363 549 l 81 549 l 81 703 q 222 742 146 728 q 400 757 299 757 q 633 701 554 757 q 711 496 711 644 l 711 0 l 497 0 l 456 75 q 365 17 422 42 q 229 -8 308 -8 m 371 175 q 409 181 388 175 q 442 193 431 188 l 442 328 l 385 319 q 325 299 344 314 q 306 254 306 283 l 306 226 q 322 187 306 199 q 371 175 339 175 m 114 857 q 162 1010 121 963 q 268 1058 203 1058 q 331 1050 304 1058 q 388 1028 358 1042 q 428 1012 411 1017 q 463 1007 444 1007 q 506 1068 501 1007 l 639 1068 q 489 860 629 860 q 424 868 454 860 q 363 892 394 876 q 335 902 358 893 q 293 911 313 911 q 247 857 256 911 l 114 857 z "},"æ":{"ha":1156,"x_min":42,"x_max":1100,"o":"m 243 -8 q 90 48 138 -8 q 42 185 42 104 l 42 256 q 103 397 42 342 q 300 453 165 453 l 447 453 l 447 482 q 420 535 447 522 q 322 549 393 549 l 86 549 l 86 703 q 217 744 156 731 q 351 757 279 757 q 485 740 425 757 q 586 696 546 722 q 687 744 636 726 q 807 761 738 761 q 978 738 915 761 q 1070 654 1040 714 q 1100 485 1100 594 q 1032 328 1100 375 q 825 282 964 282 l 710 282 q 731 223 711 242 q 788 198 750 204 q 892 192 825 192 l 1074 192 l 1074 35 q 927 1 1006 11 q 753 -8 849 -8 q 610 21 679 -8 q 510 97 540 50 q 396 23 467 54 q 243 -8 325 -8 m 817 447 q 851 460 843 447 q 860 492 860 472 q 840 547 860 533 q 785 561 821 561 q 724 536 739 561 q 710 447 710 511 l 817 447 m 376 175 q 457 204 414 175 q 447 258 451 224 q 443 328 443 292 l 356 311 q 323 291 335 307 q 311 257 311 275 l 311 231 q 328 187 311 199 q 376 175 346 175 z "},"ǽ":{"ha":1156,"x_min":42,"x_max":1100,"o":"m 243 -8 q 90 48 138 -8 q 42 185 42 104 l 42 256 q 103 397 42 342 q 300 453 165 453 l 447 453 l 447 482 q 420 535 447 522 q 322 549 393 549 l 86 549 l 86 703 q 217 744 156 731 q 351 757 279 757 q 485 740 425 757 q 586 696 546 722 q 687 744 636 726 q 807 761 738 761 q 978 738 915 761 q 1070 654 1040 714 q 1100 485 1100 594 q 1032 328 1100 375 q 825 282 964 282 l 710 282 q 731 223 711 242 q 788 198 750 204 q 892 192 825 192 l 1074 192 l 1074 35 q 927 1 1006 11 q 753 -8 849 -8 q 610 21 679 -8 q 510 97 540 50 q 396 23 467 54 q 243 -8 325 -8 m 817 447 q 851 460 843 447 q 860 492 860 472 q 840 547 860 533 q 785 561 821 561 q 724 536 739 561 q 710 447 710 511 l 817 447 m 376 175 q 457 204 414 175 q 447 258 451 224 q 443 328 443 292 l 356 311 q 323 291 335 307 q 311 257 311 275 l 311 231 q 328 187 311 199 q 376 175 346 175 m 608 1075 l 822 1075 l 672 876 l 514 876 l 608 1075 z "},"b":{"ha":819,"x_min":61,"x_max":778,"o":"m 528 -8 q 419 10 461 -8 q 331 68 378 29 l 289 0 l 61 0 l 61 1060 l 331 1060 l 331 707 q 514 761 433 761 q 671 720 614 761 q 753 593 728 679 q 778 365 778 507 q 716 81 778 169 q 528 -8 654 -8 m 422 210 q 485 244 461 210 q 508 379 508 278 q 496 488 508 451 q 465 535 483 525 q 422 546 447 546 q 370 537 399 546 q 331 518 342 528 l 331 231 q 422 210 367 210 z "},"ḃ":{"ha":819,"x_min":61,"x_max":778,"o":"m 528 -8 q 419 10 461 -8 q 331 68 378 29 l 289 0 l 61 0 l 61 1060 l 331 1060 l 331 707 q 514 761 433 761 q 671 720 614 761 q 753 593 728 679 q 778 365 778 507 q 716 81 778 169 q 528 -8 654 -8 m 422 210 q 485 244 461 210 q 508 379 508 278 q 496 488 508 451 q 465 535 483 525 q 422 546 447 546 q 370 537 399 546 q 331 518 342 528 l 331 231 q 422 210 367 210 m 131 1158 q 106 1167 115 1158 q 97 1190 97 1176 l 97 1344 q 106 1370 97 1361 q 131 1379 114 1379 l 256 1379 q 279 1369 271 1379 q 288 1344 288 1360 l 288 1190 q 279 1167 288 1175 q 256 1158 271 1158 l 131 1158 z "},"c":{"ha":681,"x_min":42,"x_max":653,"o":"m 365 -8 q 126 78 211 -8 q 42 369 42 165 q 78 603 42 518 q 188 725 115 689 q 374 761 260 761 q 509 751 449 761 q 643 718 569 742 l 643 564 l 461 564 q 368 548 400 564 q 324 492 336 532 q 311 374 311 451 q 323 256 311 293 q 366 206 335 219 q 464 193 397 193 l 653 193 l 653 42 q 519 6 600 19 q 365 -8 438 -8 z "},"ć":{"ha":681,"x_min":42,"x_max":653,"o":"m 365 -8 q 126 78 211 -8 q 42 369 42 165 q 78 603 42 518 q 188 725 115 689 q 374 761 260 761 q 509 751 449 761 q 643 718 569 742 l 643 564 l 461 564 q 368 548 400 564 q 324 492 336 532 q 311 374 311 451 q 323 256 311 293 q 366 206 335 219 q 464 193 397 193 l 653 193 l 653 42 q 519 6 600 19 q 365 -8 438 -8 m 400 1075 l 614 1075 l 464 876 l 306 876 l 400 1075 z "},"č":{"ha":681,"x_min":42,"x_max":653,"o":"m 365 -8 q 126 78 211 -8 q 42 369 42 165 q 78 603 42 518 q 188 725 115 689 q 374 761 260 761 q 509 751 449 761 q 643 718 569 742 l 643 564 l 461 564 q 368 548 400 564 q 324 492 336 532 q 311 374 311 451 q 323 256 311 293 q 366 206 335 219 q 464 193 397 193 l 653 193 l 653 42 q 519 6 600 19 q 365 -8 438 -8 m 153 1079 l 307 1079 l 375 994 l 444 1079 l 600 1079 l 461 876 l 279 876 l 153 1079 z "},"ç":{"ha":681,"x_min":42,"x_max":653,"o":"m 653 42 q 456 -3 581 11 l 417 -68 q 479 -97 454 -74 q 504 -162 504 -121 q 465 -251 504 -219 q 347 -282 426 -282 l 265 -282 l 265 -172 l 286 -168 q 331 -131 331 -160 q 286 -86 331 -99 l 335 -7 q 118 89 194 1 q 42 369 42 176 q 78 603 42 518 q 188 725 115 689 q 374 761 260 761 q 509 751 449 761 q 643 718 569 742 l 643 564 l 461 564 q 368 548 400 564 q 324 492 336 532 q 311 374 311 451 q 323 256 311 293 q 366 206 335 219 q 464 193 397 193 l 653 193 l 653 42 z "},"ḉ":{"ha":681,"x_min":42,"x_max":653,"o":"m 464 876 l 306 876 l 400 1075 l 614 1075 l 464 876 m 653 42 q 456 -3 581 11 l 417 -68 q 479 -97 454 -74 q 504 -162 504 -121 q 465 -251 504 -219 q 347 -282 426 -282 l 265 -282 l 265 -172 l 286 -168 q 331 -131 331 -160 q 286 -86 331 -99 l 335 -7 q 118 89 194 1 q 42 369 42 176 q 78 603 42 518 q 188 725 115 689 q 374 761 260 761 q 509 751 449 761 q 643 718 569 742 l 643 564 l 461 564 q 368 548 400 564 q 324 492 336 532 q 311 374 311 451 q 323 256 311 293 q 366 206 335 219 q 464 193 397 193 l 653 193 l 653 42 z "},"ĉ":{"ha":681,"x_min":42,"x_max":653,"o":"m 365 -8 q 126 78 211 -8 q 42 369 42 165 q 78 603 42 518 q 188 725 115 689 q 374 761 260 761 q 509 751 449 761 q 643 718 569 742 l 643 564 l 461 564 q 368 548 400 564 q 324 492 336 532 q 311 374 311 451 q 323 256 311 293 q 366 206 335 219 q 464 193 397 193 l 653 193 l 653 42 q 519 6 600 19 q 365 -8 438 -8 m 289 1079 l 471 1079 l 597 876 l 443 876 l 375 961 l 306 876 l 150 876 l 289 1079 z "},"ċ":{"ha":681,"x_min":42,"x_max":653,"o":"m 365 -8 q 126 78 211 -8 q 42 369 42 165 q 78 603 42 518 q 188 725 115 689 q 374 761 260 761 q 509 751 449 761 q 643 718 569 742 l 643 564 l 461 564 q 368 548 400 564 q 324 492 336 532 q 311 374 311 451 q 323 256 311 293 q 366 206 335 219 q 464 193 397 193 l 653 193 l 653 42 q 519 6 600 19 q 365 -8 438 -8 m 310 881 q 285 890 294 881 q 276 913 276 899 l 276 1067 q 285 1092 276 1083 q 310 1101 293 1101 l 435 1101 q 458 1092 450 1101 q 467 1067 467 1082 l 467 913 q 458 889 467 897 q 435 881 450 881 l 310 881 z "},"d":{"ha":817,"x_min":42,"x_max":758,"o":"m 308 -8 q 108 78 175 -8 q 42 365 42 164 q 67 594 42 508 q 153 720 92 679 q 322 761 214 761 q 489 732 407 761 l 489 1060 l 758 1060 l 758 0 l 531 0 l 489 68 q 308 -8 404 -8 m 407 207 q 489 235 456 207 l 489 538 q 453 553 474 546 q 414 561 432 561 q 352 548 374 561 q 321 496 331 535 q 311 379 311 457 q 320 267 311 303 q 349 219 329 231 q 407 207 368 207 z "},"ð":{"ha":797,"x_min":42,"x_max":756,"o":"m 756 376 q 723 147 756 229 q 614 29 690 65 q 399 -7 538 -7 q 187 30 264 -7 q 76 147 110 67 q 42 363 42 226 q 78 583 42 503 q 185 697 115 664 q 360 729 254 729 q 489 708 436 729 q 418 831 467 786 l 192 744 l 160 828 l 310 886 q 158 901 244 901 l 158 1060 q 387 1040 290 1060 q 551 978 483 1019 l 707 1038 l 739 953 l 629 911 q 726 704 697 833 q 756 378 756 575 l 756 376 m 399 207 q 453 217 436 207 q 478 259 471 226 q 486 364 486 292 q 478 468 486 436 q 453 510 471 500 q 399 519 436 519 q 344 510 361 519 q 319 468 326 500 q 311 364 311 436 q 319 259 311 292 q 344 217 326 226 q 399 207 361 207 z "},"ď":{"ha":817,"x_min":42,"x_max":1058,"o":"m 308 -8 q 108 78 175 -8 q 42 365 42 164 q 67 594 42 508 q 153 720 92 679 q 322 761 214 761 q 489 732 407 761 l 489 1060 l 758 1060 l 758 0 l 531 0 l 489 68 q 308 -8 404 -8 m 407 207 q 489 235 456 207 l 489 538 q 453 553 474 546 q 414 561 432 561 q 352 548 374 561 q 321 496 331 535 q 311 379 311 457 q 320 267 311 303 q 349 219 329 231 q 407 207 368 207 m 815 994 l 815 1088 l 1058 1088 l 1058 994 l 1044 808 l 831 808 l 815 994 z "},"đ":{"ha":817,"x_min":42,"x_max":831,"o":"m 831 842 l 758 842 l 758 0 l 531 0 l 489 68 q 308 -8 404 -8 q 108 78 175 -8 q 42 365 42 164 q 67 594 42 508 q 153 720 92 679 q 322 761 214 761 q 489 732 407 761 l 489 842 l 347 842 l 347 944 l 489 944 l 489 1060 l 758 1060 l 758 944 l 831 944 l 831 842 m 489 538 q 453 553 474 546 q 414 561 432 561 q 352 548 374 561 q 321 496 331 535 q 311 379 311 457 q 320 267 311 303 q 349 219 329 231 q 407 207 368 207 q 489 235 456 207 l 489 538 z "},"ḋ":{"ha":817,"x_min":42,"x_max":758,"o":"m 308 -8 q 108 78 175 -8 q 42 365 42 164 q 67 594 42 508 q 153 720 92 679 q 322 761 214 761 q 489 732 407 761 l 489 1060 l 758 1060 l 758 0 l 531 0 l 489 68 q 308 -8 404 -8 m 407 207 q 489 235 456 207 l 489 538 q 453 553 474 546 q 414 561 432 561 q 352 548 374 561 q 321 496 331 535 q 311 379 311 457 q 320 267 311 303 q 349 219 329 231 q 407 207 368 207 m 558 1158 q 534 1167 543 1158 q 525 1190 525 1176 l 525 1344 q 533 1370 525 1361 q 558 1379 542 1379 l 683 1379 q 707 1369 699 1379 q 715 1344 715 1360 l 715 1190 q 707 1167 715 1175 q 683 1158 699 1158 l 558 1158 z "},"ḍ":{"ha":817,"x_min":42,"x_max":758,"o":"m 308 -8 q 108 78 175 -8 q 42 365 42 164 q 67 594 42 508 q 153 720 92 679 q 322 761 214 761 q 489 732 407 761 l 489 1060 l 758 1060 l 758 0 l 531 0 l 489 68 q 308 -8 404 -8 m 407 207 q 489 235 456 207 l 489 538 q 453 553 474 546 q 414 561 432 561 q 352 548 374 561 q 321 496 331 535 q 311 379 311 457 q 320 267 311 303 q 349 219 329 231 q 407 207 368 207 m 319 -328 q 295 -319 304 -328 q 286 -296 286 -310 l 286 -142 q 294 -116 286 -125 q 319 -107 303 -107 l 444 -107 q 468 -117 460 -107 q 476 -142 476 -126 l 476 -296 q 468 -319 476 -311 q 444 -328 460 -328 l 319 -328 z "},"ḏ":{"ha":817,"x_min":42,"x_max":758,"o":"m 308 -8 q 108 78 175 -8 q 42 365 42 164 q 67 594 42 508 q 153 720 92 679 q 322 761 214 761 q 489 732 407 761 l 489 1060 l 758 1060 l 758 0 l 531 0 l 489 68 q 308 -8 404 -8 m 407 207 q 489 235 456 207 l 489 538 q 453 553 474 546 q 414 561 432 561 q 352 548 374 561 q 321 496 331 535 q 311 379 311 457 q 320 267 311 303 q 349 219 329 231 q 407 207 368 207 m 193 -160 l 599 -160 l 599 -318 l 193 -318 l 193 -160 z "},"e":{"ha":743,"x_min":42,"x_max":701,"o":"m 396 -7 q 187 26 263 -7 q 76 140 111 58 q 42 372 42 222 q 73 611 42 528 q 177 728 104 694 q 383 761 250 761 q 574 738 507 761 q 672 659 642 715 q 701 496 701 603 q 635 331 701 379 q 442 282 568 282 l 308 282 q 326 227 313 246 q 372 200 339 208 q 469 192 404 192 l 674 192 l 674 35 q 545 4 610 15 q 396 -7 481 -7 m 413 439 q 453 451 440 439 q 465 494 465 464 q 446 552 465 535 q 383 569 426 569 q 324 542 342 569 q 306 439 306 514 l 413 439 z "},"é":{"ha":743,"x_min":42,"x_max":701,"o":"m 396 -7 q 187 26 263 -7 q 76 140 111 58 q 42 372 42 222 q 73 611 42 528 q 177 728 104 694 q 383 761 250 761 q 574 738 507 761 q 672 659 642 715 q 701 496 701 603 q 635 331 701 379 q 442 282 568 282 l 308 282 q 326 227 313 246 q 372 200 339 208 q 469 192 404 192 l 674 192 l 674 35 q 545 4 610 15 q 396 -7 481 -7 m 413 439 q 453 451 440 439 q 465 494 465 464 q 446 552 465 535 q 383 569 426 569 q 324 542 342 569 q 306 439 306 514 l 413 439 m 400 1075 l 614 1075 l 464 876 l 306 876 l 400 1075 z "},"ĕ":{"ha":743,"x_min":42,"x_max":701,"o":"m 396 -7 q 187 26 263 -7 q 76 140 111 58 q 42 372 42 222 q 73 611 42 528 q 177 728 104 694 q 383 761 250 761 q 574 738 507 761 q 672 659 642 715 q 701 496 701 603 q 635 331 701 379 q 442 282 568 282 l 308 282 q 326 227 313 246 q 372 200 339 208 q 469 192 404 192 l 674 192 l 674 35 q 545 4 610 15 q 396 -7 481 -7 m 413 439 q 453 451 440 439 q 465 494 465 464 q 446 552 465 535 q 383 569 426 569 q 324 542 342 569 q 306 439 306 514 l 413 439 m 365 861 q 216 916 267 861 q 165 1079 165 971 l 289 1079 q 311 1005 289 1028 q 365 982 333 982 q 442 1079 442 982 l 568 1079 q 365 861 568 861 z "},"ě":{"ha":743,"x_min":42,"x_max":701,"o":"m 396 -7 q 187 26 263 -7 q 76 140 111 58 q 42 372 42 222 q 73 611 42 528 q 177 728 104 694 q 383 761 250 761 q 574 738 507 761 q 672 659 642 715 q 701 496 701 603 q 635 331 701 379 q 442 282 568 282 l 308 282 q 326 227 313 246 q 372 200 339 208 q 469 192 404 192 l 674 192 l 674 35 q 545 4 610 15 q 396 -7 481 -7 m 413 439 q 453 451 440 439 q 465 494 465 464 q 446 552 465 535 q 383 569 426 569 q 324 542 342 569 q 306 439 306 514 l 413 439 m 153 1079 l 307 1079 l 375 994 l 444 1079 l 600 1079 l 461 876 l 279 876 l 153 1079 z "},"ḝ":{"ha":743,"x_min":42,"x_max":701,"o":"m 365 861 q 216 916 267 861 q 165 1079 165 971 l 289 1079 q 311 1005 289 1028 q 365 982 333 982 q 442 1079 442 982 l 568 1079 q 365 861 568 861 m 308 282 q 326 227 313 246 q 372 200 339 208 q 469 192 404 192 l 674 192 l 674 35 q 454 -6 564 1 l 417 -68 q 479 -97 454 -74 q 504 -162 504 -121 q 465 -251 504 -219 q 347 -282 426 -282 l 265 -282 l 265 -172 l 286 -168 q 331 -131 331 -160 q 286 -86 331 -99 l 335 -6 q 163 38 226 1 q 71 154 100 75 q 42 372 42 233 q 73 611 42 528 q 177 728 104 694 q 383 761 250 761 q 574 738 507 761 q 672 659 642 715 q 701 496 701 603 q 635 331 701 379 q 442 282 568 282 l 308 282 m 383 569 q 324 542 342 569 q 306 439 306 514 l 413 439 q 453 451 440 439 q 465 494 465 464 q 446 552 465 535 q 383 569 426 569 z "},"ê":{"ha":743,"x_min":42,"x_max":701,"o":"m 396 -7 q 187 26 263 -7 q 76 140 111 58 q 42 372 42 222 q 73 611 42 528 q 177 728 104 694 q 383 761 250 761 q 574 738 507 761 q 672 659 642 715 q 701 496 701 603 q 635 331 701 379 q 442 282 568 282 l 308 282 q 326 227 313 246 q 372 200 339 208 q 469 192 404 192 l 674 192 l 674 35 q 545 4 610 15 q 396 -7 481 -7 m 413 439 q 453 451 440 439 q 465 494 465 464 q 446 552 465 535 q 383 569 426 569 q 324 542 342 569 q 306 439 306 514 l 413 439 m 289 1079 l 471 1079 l 597 876 l 443 876 l 375 961 l 306 876 l 150 876 l 289 1079 z "},"ế":{"ha":743,"x_min":42,"x_max":753,"o":"m 396 -7 q 187 26 263 -7 q 76 140 111 58 q 42 372 42 222 q 73 611 42 528 q 177 728 104 694 q 383 761 250 761 q 574 738 507 761 q 672 659 642 715 q 701 496 701 603 q 635 331 701 379 q 442 282 568 282 l 308 282 q 326 227 313 246 q 372 200 339 208 q 469 192 404 192 l 674 192 l 674 35 q 545 4 610 15 q 396 -7 481 -7 m 413 439 q 453 451 440 439 q 465 494 465 464 q 446 552 465 535 q 383 569 426 569 q 324 542 342 569 q 306 439 306 514 l 413 439 m 753 1172 l 672 1001 l 514 1001 l 539 1172 l 753 1172 m 471 1038 l 597 876 l 443 876 l 375 919 l 306 876 l 150 876 l 289 1038 l 471 1038 z "},"ệ":{"ha":743,"x_min":42,"x_max":701,"o":"m 396 -7 q 187 26 263 -7 q 76 140 111 58 q 42 372 42 222 q 73 611 42 528 q 177 728 104 694 q 383 761 250 761 q 574 738 507 761 q 672 659 642 715 q 701 496 701 603 q 635 331 701 379 q 442 282 568 282 l 308 282 q 326 227 313 246 q 372 200 339 208 q 469 192 404 192 l 674 192 l 674 35 q 545 4 610 15 q 396 -7 481 -7 m 413 439 q 453 451 440 439 q 465 494 465 464 q 446 552 465 535 q 383 569 426 569 q 324 542 342 569 q 306 439 306 514 l 413 439 m 289 1079 l 471 1079 l 597 876 l 443 876 l 375 961 l 306 876 l 150 876 l 289 1079 m 306 -328 q 281 -319 290 -328 q 272 -296 272 -310 l 272 -142 q 281 -116 272 -125 q 306 -107 289 -107 l 431 -107 q 454 -117 446 -107 q 463 -142 463 -126 l 463 -296 q 454 -319 463 -311 q 431 -328 446 -328 l 306 -328 z "},"ề":{"ha":743,"x_min":0,"x_max":701,"o":"m 396 -7 q 187 26 263 -7 q 76 140 111 58 q 42 372 42 222 q 73 611 42 528 q 177 728 104 694 q 383 761 250 761 q 574 738 507 761 q 672 659 642 715 q 701 496 701 603 q 635 331 701 379 q 442 282 568 282 l 308 282 q 326 227 313 246 q 372 200 339 208 q 469 192 404 192 l 674 192 l 674 35 q 545 4 610 15 q 396 -7 481 -7 m 413 439 q 453 451 440 439 q 465 494 465 464 q 446 552 465 535 q 383 569 426 569 q 324 542 342 569 q 306 439 306 514 l 413 439 m 214 1172 l 239 1001 l 81 1001 l 0 1172 l 214 1172 m 471 1038 l 597 876 l 443 876 l 375 919 l 306 876 l 150 876 l 289 1038 l 471 1038 z "},"ể":{"ha":743,"x_min":42,"x_max":701,"o":"m 396 -7 q 187 26 263 -7 q 76 140 111 58 q 42 372 42 222 q 73 611 42 528 q 177 728 104 694 q 383 761 250 761 q 574 738 507 761 q 672 659 642 715 q 701 496 701 603 q 635 331 701 379 q 442 282 568 282 l 308 282 q 326 227 313 246 q 372 200 339 208 q 469 192 404 192 l 674 192 l 674 35 q 545 4 610 15 q 396 -7 481 -7 m 413 439 q 453 451 440 439 q 465 494 465 464 q 446 552 465 535 q 383 569 426 569 q 324 542 342 569 q 306 439 306 514 l 413 439 m 549 1072 q 575 1103 575 1081 q 556 1122 575 1122 q 514 1114 542 1122 l 514 1203 q 592 1215 551 1215 q 700 1121 700 1215 q 664 1017 700 1057 q 549 956 628 978 l 549 1072 m 289 1038 l 471 1038 l 597 876 l 443 876 l 375 919 l 306 876 l 150 876 l 289 1038 z "},"ễ":{"ha":743,"x_min":42,"x_max":701,"o":"m 396 -7 q 187 26 263 -7 q 76 140 111 58 q 42 372 42 222 q 73 611 42 528 q 177 728 104 694 q 383 761 250 761 q 574 738 507 761 q 672 659 642 715 q 701 496 701 603 q 635 331 701 379 q 442 282 568 282 l 308 282 q 326 227 313 246 q 372 200 339 208 q 469 192 404 192 l 674 192 l 674 35 q 545 4 610 15 q 396 -7 481 -7 m 413 439 q 453 451 440 439 q 465 494 465 464 q 446 552 465 535 q 383 569 426 569 q 324 542 342 569 q 306 439 306 514 l 413 439 m 268 1246 q 313 1241 290 1246 q 357 1231 336 1236 q 410 1219 396 1219 q 450 1256 450 1219 l 583 1256 q 563 1155 578 1190 q 524 1106 549 1119 q 461 1093 500 1093 q 394 1101 428 1093 q 356 1110 361 1108 q 304 1119 317 1119 q 275 1090 282 1119 l 142 1090 q 181 1215 150 1183 q 268 1246 211 1246 m 597 876 l 443 876 l 375 919 l 306 876 l 150 876 l 289 1038 l 471 1038 l 597 876 z "},"ȅ":{"ha":743,"x_min":29,"x_max":701,"o":"m 396 -7 q 187 26 263 -7 q 76 140 111 58 q 42 372 42 222 q 73 611 42 528 q 177 728 104 694 q 383 761 250 761 q 574 738 507 761 q 672 659 642 715 q 701 496 701 603 q 635 331 701 379 q 442 282 568 282 l 308 282 q 326 227 313 246 q 372 200 339 208 q 469 192 404 192 l 674 192 l 674 35 q 545 4 610 15 q 396 -7 481 -7 m 413 439 q 453 451 440 439 q 465 494 465 464 q 446 552 465 535 q 383 569 426 569 q 324 542 342 569 q 306 439 306 514 l 413 439 m 29 1075 l 243 1075 l 338 876 l 179 876 l 29 1075 m 307 1075 l 521 1075 l 615 876 l 457 876 l 307 1075 z "},"ë":{"ha":743,"x_min":42,"x_max":701,"o":"m 396 -7 q 187 26 263 -7 q 76 140 111 58 q 42 372 42 222 q 73 611 42 528 q 177 728 104 694 q 383 761 250 761 q 574 738 507 761 q 672 659 642 715 q 701 496 701 603 q 635 331 701 379 q 442 282 568 282 l 308 282 q 326 227 313 246 q 372 200 339 208 q 469 192 404 192 l 674 192 l 674 35 q 545 4 610 15 q 396 -7 481 -7 m 413 439 q 453 451 440 439 q 465 494 465 464 q 446 552 465 535 q 383 569 426 569 q 324 542 342 569 q 306 439 306 514 l 413 439 m 168 871 q 144 880 153 871 q 135 903 135 889 l 135 1057 q 143 1083 135 1074 q 168 1092 151 1092 l 293 1092 q 317 1082 308 1092 q 325 1057 325 1072 l 325 903 q 317 879 325 888 q 293 871 308 871 l 168 871 m 442 871 q 417 880 426 871 q 408 903 408 889 l 408 1057 q 417 1083 408 1074 q 442 1092 425 1092 l 567 1092 q 590 1082 582 1092 q 599 1057 599 1072 l 599 903 q 590 879 599 888 q 567 871 582 871 l 442 871 z "},"ė":{"ha":743,"x_min":42,"x_max":701,"o":"m 396 -7 q 187 26 263 -7 q 76 140 111 58 q 42 372 42 222 q 73 611 42 528 q 177 728 104 694 q 383 761 250 761 q 574 738 507 761 q 672 659 642 715 q 701 496 701 603 q 635 331 701 379 q 442 282 568 282 l 308 282 q 326 227 313 246 q 372 200 339 208 q 469 192 404 192 l 674 192 l 674 35 q 545 4 610 15 q 396 -7 481 -7 m 413 439 q 453 451 440 439 q 465 494 465 464 q 446 552 465 535 q 383 569 426 569 q 324 542 342 569 q 306 439 306 514 l 413 439 m 310 881 q 285 890 294 881 q 276 913 276 899 l 276 1067 q 285 1092 276 1083 q 310 1101 293 1101 l 435 1101 q 458 1092 450 1101 q 467 1067 467 1082 l 467 913 q 458 889 467 897 q 435 881 450 881 l 310 881 z "},"ẹ":{"ha":743,"x_min":42,"x_max":701,"o":"m 396 -7 q 187 26 263 -7 q 76 140 111 58 q 42 372 42 222 q 73 611 42 528 q 177 728 104 694 q 383 761 250 761 q 574 738 507 761 q 672 659 642 715 q 701 496 701 603 q 635 331 701 379 q 442 282 568 282 l 308 282 q 326 227 313 246 q 372 200 339 208 q 469 192 404 192 l 674 192 l 674 35 q 545 4 610 15 q 396 -7 481 -7 m 413 439 q 453 451 440 439 q 465 494 465 464 q 446 552 465 535 q 383 569 426 569 q 324 542 342 569 q 306 439 306 514 l 413 439 m 306 -328 q 281 -319 290 -328 q 272 -296 272 -310 l 272 -142 q 281 -116 272 -125 q 306 -107 289 -107 l 431 -107 q 454 -117 446 -107 q 463 -142 463 -126 l 463 -296 q 454 -319 463 -311 q 431 -328 446 -328 l 306 -328 z "},"è":{"ha":743,"x_min":42,"x_max":701,"o":"m 396 -7 q 187 26 263 -7 q 76 140 111 58 q 42 372 42 222 q 73 611 42 528 q 177 728 104 694 q 383 761 250 761 q 574 738 507 761 q 672 659 642 715 q 701 496 701 603 q 635 331 701 379 q 442 282 568 282 l 308 282 q 326 227 313 246 q 372 200 339 208 q 469 192 404 192 l 674 192 l 674 35 q 545 4 610 15 q 396 -7 481 -7 m 413 439 q 453 451 440 439 q 465 494 465 464 q 446 552 465 535 q 383 569 426 569 q 324 542 342 569 q 306 439 306 514 l 413 439 m 181 1075 l 394 1075 l 489 876 l 331 876 l 181 1075 z "},"ẻ":{"ha":743,"x_min":42,"x_max":701,"o":"m 396 -7 q 187 26 263 -7 q 76 140 111 58 q 42 372 42 222 q 73 611 42 528 q 177 728 104 694 q 383 761 250 761 q 574 738 507 761 q 672 659 642 715 q 701 496 701 603 q 635 331 701 379 q 442 282 568 282 l 308 282 q 326 227 313 246 q 372 200 339 208 q 469 192 404 192 l 674 192 l 674 35 q 545 4 610 15 q 396 -7 481 -7 m 413 439 q 453 451 440 439 q 465 494 465 464 q 446 552 465 535 q 383 569 426 569 q 324 542 342 569 q 306 439 306 514 l 413 439 m 328 933 q 368 972 368 944 q 335 994 368 994 q 293 986 321 994 l 293 1089 q 371 1101 331 1101 q 473 1071 439 1101 q 507 982 507 1040 q 465 882 507 919 q 328 817 424 844 l 328 933 z "},"ȇ":{"ha":743,"x_min":42,"x_max":701,"o":"m 396 -7 q 187 26 263 -7 q 76 140 111 58 q 42 372 42 222 q 73 611 42 528 q 177 728 104 694 q 383 761 250 761 q 574 738 507 761 q 672 659 642 715 q 701 496 701 603 q 635 331 701 379 q 442 282 568 282 l 308 282 q 326 227 313 246 q 372 200 339 208 q 469 192 404 192 l 674 192 l 674 35 q 545 4 610 15 q 396 -7 481 -7 m 413 439 q 453 451 440 439 q 465 494 465 464 q 446 552 465 535 q 383 569 426 569 q 324 542 342 569 q 306 439 306 514 l 413 439 m 382 1083 q 531 1028 481 1083 q 582 865 582 974 l 458 865 q 436 940 458 917 q 382 963 414 963 q 306 865 306 963 l 179 865 q 382 1083 179 1083 z "},"ē":{"ha":743,"x_min":42,"x_max":701,"o":"m 396 -7 q 187 26 263 -7 q 76 140 111 58 q 42 372 42 222 q 73 611 42 528 q 177 728 104 694 q 383 761 250 761 q 574 738 507 761 q 672 659 642 715 q 701 496 701 603 q 635 331 701 379 q 442 282 568 282 l 308 282 q 326 227 313 246 q 372 200 339 208 q 469 192 404 192 l 674 192 l 674 35 q 545 4 610 15 q 396 -7 481 -7 m 413 439 q 453 451 440 439 q 465 494 465 464 q 446 552 465 535 q 383 569 426 569 q 324 542 342 569 q 306 439 306 514 l 413 439 m 165 1035 l 571 1035 l 571 876 l 165 876 l 165 1035 z "},"ḗ":{"ha":743,"x_min":42,"x_max":701,"o":"m 396 -7 q 187 26 263 -7 q 76 140 111 58 q 42 372 42 222 q 73 611 42 528 q 177 728 104 694 q 383 761 250 761 q 574 738 507 761 q 672 659 642 715 q 701 496 701 603 q 635 331 701 379 q 442 282 568 282 l 308 282 q 326 227 313 246 q 372 200 339 208 q 469 192 404 192 l 674 192 l 674 35 q 545 4 610 15 q 396 -7 481 -7 m 413 439 q 453 451 440 439 q 465 494 465 464 q 446 552 465 535 q 383 569 426 569 q 324 542 342 569 q 306 439 306 514 l 413 439 m 165 1035 l 571 1035 l 571 876 l 165 876 l 165 1035 m 386 1269 l 600 1269 l 450 1071 l 292 1071 l 386 1269 z "},"ḕ":{"ha":743,"x_min":42,"x_max":701,"o":"m 396 -7 q 187 26 263 -7 q 76 140 111 58 q 42 372 42 222 q 73 611 42 528 q 177 728 104 694 q 383 761 250 761 q 574 738 507 761 q 672 659 642 715 q 701 496 701 603 q 635 331 701 379 q 442 282 568 282 l 308 282 q 326 227 313 246 q 372 200 339 208 q 469 192 404 192 l 674 192 l 674 35 q 545 4 610 15 q 396 -7 481 -7 m 413 439 q 453 451 440 439 q 465 494 465 464 q 446 552 465 535 q 383 569 426 569 q 324 542 342 569 q 306 439 306 514 l 413 439 m 165 1035 l 571 1035 l 571 876 l 165 876 l 165 1035 m 139 1269 l 353 1269 l 447 1071 l 289 1071 l 139 1269 z "},"ę":{"ha":743,"x_min":42,"x_max":701,"o":"m 619 -47 q 637 -90 619 -74 q 678 -106 654 -106 l 692 -106 l 692 -231 q 642 -237 678 -237 q 528 -199 564 -237 q 493 -110 493 -161 q 538 3 493 -42 q 396 -7 465 -7 q 187 26 263 -7 q 76 140 111 58 q 42 372 42 222 q 73 611 42 528 q 177 728 104 694 q 383 761 250 761 q 574 738 507 761 q 672 659 642 715 q 701 496 701 603 q 635 331 701 379 q 442 282 568 282 l 308 282 q 326 227 313 246 q 372 200 339 208 q 469 192 404 192 l 674 192 l 674 35 q 631 -5 643 14 q 619 -47 619 -24 m 383 569 q 324 542 342 569 q 306 439 306 514 l 413 439 q 453 451 440 439 q 465 494 465 464 q 446 552 465 535 q 383 569 426 569 z "},"ẽ":{"ha":743,"x_min":42,"x_max":701,"o":"m 396 -7 q 187 26 263 -7 q 76 140 111 58 q 42 372 42 222 q 73 611 42 528 q 177 728 104 694 q 383 761 250 761 q 574 738 507 761 q 672 659 642 715 q 701 496 701 603 q 635 331 701 379 q 442 282 568 282 l 308 282 q 326 227 313 246 q 372 200 339 208 q 469 192 404 192 l 674 192 l 674 35 q 545 4 610 15 q 396 -7 481 -7 m 413 439 q 453 451 440 439 q 465 494 465 464 q 446 552 465 535 q 383 569 426 569 q 324 542 342 569 q 306 439 306 514 l 413 439 m 114 857 q 162 1010 121 963 q 268 1058 203 1058 q 331 1050 304 1058 q 388 1028 358 1042 q 428 1012 411 1017 q 463 1007 444 1007 q 506 1068 501 1007 l 639 1068 q 489 860 629 860 q 424 868 454 860 q 363 892 394 876 q 335 902 358 893 q 293 911 313 911 q 247 857 256 911 l 114 857 z "},"ə":{"ha":743,"x_min":42,"x_max":701,"o":"m 347 760 q 556 727 481 760 q 667 613 632 694 q 701 381 701 531 q 670 142 701 225 q 566 25 639 58 q 360 -8 493 -8 q 169 15 236 -8 q 72 94 101 38 q 42 257 42 150 q 108 422 42 374 q 301 471 175 471 l 435 471 q 417 526 431 507 q 372 553 404 544 q 274 561 339 561 l 69 561 l 69 718 q 198 749 133 738 q 347 760 263 760 m 331 314 q 290 301 303 314 q 278 258 278 289 q 297 201 278 218 q 360 183 317 183 q 419 211 401 183 q 438 314 438 239 l 331 314 z "},"f":{"ha":568,"x_min":21,"x_max":554,"o":"m 121 535 l 21 535 l 21 707 l 121 749 l 121 775 q 185 1000 121 932 q 392 1068 250 1068 q 481 1060 436 1068 q 554 1043 525 1053 l 554 850 l 447 850 q 403 837 417 850 q 390 790 390 824 l 390 749 l 554 749 l 554 535 l 390 535 l 390 0 l 121 0 l 121 535 z "},"ḟ":{"ha":568,"x_min":21,"x_max":554,"o":"m 121 535 l 21 535 l 21 707 l 121 749 l 121 775 q 185 1000 121 932 q 392 1068 250 1068 q 481 1060 436 1068 q 554 1043 525 1053 l 554 850 l 447 850 q 403 837 417 850 q 390 790 390 824 l 390 749 l 554 749 l 554 535 l 390 535 l 390 0 l 121 0 l 121 535 m 324 1200 q 299 1209 308 1200 q 290 1232 290 1218 l 290 1386 q 299 1412 290 1403 q 324 1421 307 1421 l 449 1421 q 472 1411 464 1421 q 481 1386 481 1401 l 481 1232 q 472 1208 481 1217 q 449 1200 464 1200 l 324 1200 z "},"g":{"ha":814,"x_min":17,"x_max":793,"o":"m 793 601 l 714 576 q 743 444 743 533 q 676 276 743 336 q 469 215 610 215 l 328 215 q 288 207 303 215 q 272 182 272 199 q 328 153 272 153 l 508 153 q 715 98 643 153 q 788 -85 788 43 l 788 -97 q 715 -282 788 -217 q 496 -347 643 -347 l 261 -347 q 86 -300 156 -347 q 17 -171 17 -253 l 17 -156 q 45 -64 17 -104 q 124 1 74 -24 q 47 135 47 50 q 80 233 47 192 q 168 289 113 275 q 58 501 58 360 q 136 687 58 625 q 385 749 214 749 l 793 749 l 793 601 m 439 415 q 488 431 474 415 q 501 483 501 447 q 488 534 501 519 q 439 549 474 549 l 363 549 q 314 534 328 549 q 300 483 300 519 q 314 431 300 447 q 363 415 328 415 l 439 415 m 340 -47 q 289 -62 306 -47 q 272 -100 272 -76 l 272 -107 q 289 -146 272 -131 q 340 -161 306 -161 l 463 -161 q 513 -149 493 -161 q 532 -112 532 -136 l 532 -96 q 513 -60 532 -72 q 463 -47 493 -47 l 340 -47 z "},"ğ":{"ha":814,"x_min":17,"x_max":793,"o":"m 793 601 l 714 576 q 743 444 743 533 q 676 276 743 336 q 469 215 610 215 l 328 215 q 288 207 303 215 q 272 182 272 199 q 328 153 272 153 l 508 153 q 715 98 643 153 q 788 -85 788 43 l 788 -97 q 715 -282 788 -217 q 496 -347 643 -347 l 261 -347 q 86 -300 156 -347 q 17 -171 17 -253 l 17 -156 q 45 -64 17 -104 q 124 1 74 -24 q 47 135 47 50 q 80 233 47 192 q 168 289 113 275 q 58 501 58 360 q 136 687 58 625 q 385 749 214 749 l 793 749 l 793 601 m 439 415 q 488 431 474 415 q 501 483 501 447 q 488 534 501 519 q 439 549 474 549 l 363 549 q 314 534 328 549 q 300 483 300 519 q 314 431 300 447 q 363 415 328 415 l 439 415 m 340 -47 q 289 -62 306 -47 q 272 -100 272 -76 l 272 -107 q 289 -146 272 -131 q 340 -161 306 -161 l 463 -161 q 513 -149 493 -161 q 532 -112 532 -136 l 532 -96 q 513 -60 532 -72 q 463 -47 493 -47 l 340 -47 m 394 861 q 245 916 296 861 q 194 1079 194 971 l 318 1079 q 340 1005 318 1028 q 394 982 363 982 q 471 1079 471 982 l 597 1079 q 394 861 597 861 z "},"ǧ":{"ha":814,"x_min":17,"x_max":793,"o":"m 793 601 l 714 576 q 743 444 743 533 q 676 276 743 336 q 469 215 610 215 l 328 215 q 288 207 303 215 q 272 182 272 199 q 328 153 272 153 l 508 153 q 715 98 643 153 q 788 -85 788 43 l 788 -97 q 715 -282 788 -217 q 496 -347 643 -347 l 261 -347 q 86 -300 156 -347 q 17 -171 17 -253 l 17 -156 q 45 -64 17 -104 q 124 1 74 -24 q 47 135 47 50 q 80 233 47 192 q 168 289 113 275 q 58 501 58 360 q 136 687 58 625 q 385 749 214 749 l 793 749 l 793 601 m 439 415 q 488 431 474 415 q 501 483 501 447 q 488 534 501 519 q 439 549 474 549 l 363 549 q 314 534 328 549 q 300 483 300 519 q 314 431 300 447 q 363 415 328 415 l 439 415 m 340 -47 q 289 -62 306 -47 q 272 -100 272 -76 l 272 -107 q 289 -146 272 -131 q 340 -161 306 -161 l 463 -161 q 513 -149 493 -161 q 532 -112 532 -136 l 532 -96 q 513 -60 532 -72 q 463 -47 493 -47 l 340 -47 m 182 1079 l 336 1079 l 404 994 l 474 1079 l 629 1079 l 490 876 l 308 876 l 182 1079 z "},"ĝ":{"ha":814,"x_min":17,"x_max":793,"o":"m 793 601 l 714 576 q 743 444 743 533 q 676 276 743 336 q 469 215 610 215 l 328 215 q 288 207 303 215 q 272 182 272 199 q 328 153 272 153 l 508 153 q 715 98 643 153 q 788 -85 788 43 l 788 -97 q 715 -282 788 -217 q 496 -347 643 -347 l 261 -347 q 86 -300 156 -347 q 17 -171 17 -253 l 17 -156 q 45 -64 17 -104 q 124 1 74 -24 q 47 135 47 50 q 80 233 47 192 q 168 289 113 275 q 58 501 58 360 q 136 687 58 625 q 385 749 214 749 l 793 749 l 793 601 m 439 415 q 488 431 474 415 q 501 483 501 447 q 488 534 501 519 q 439 549 474 549 l 363 549 q 314 534 328 549 q 300 483 300 519 q 314 431 300 447 q 363 415 328 415 l 439 415 m 340 -47 q 289 -62 306 -47 q 272 -100 272 -76 l 272 -107 q 289 -146 272 -131 q 340 -161 306 -161 l 463 -161 q 513 -149 493 -161 q 532 -112 532 -136 l 532 -96 q 513 -60 532 -72 q 463 -47 493 -47 l 340 -47 m 318 1079 l 500 1079 l 626 876 l 472 876 l 404 961 l 335 876 l 179 876 l 318 1079 z "},"ģ":{"ha":814,"x_min":17,"x_max":793,"o":"m 793 601 l 714 576 q 743 444 743 533 q 676 276 743 336 q 469 215 610 215 l 328 215 q 288 207 303 215 q 272 182 272 199 q 328 153 272 153 l 508 153 q 715 98 643 153 q 788 -85 788 43 l 788 -97 q 715 -282 788 -217 q 496 -347 643 -347 l 261 -347 q 86 -300 156 -347 q 17 -171 17 -253 l 17 -156 q 45 -64 17 -104 q 124 1 74 -24 q 47 135 47 50 q 80 233 47 192 q 168 289 113 275 q 58 501 58 360 q 136 687 58 625 q 385 749 214 749 l 793 749 l 793 601 m 439 415 q 488 431 474 415 q 501 483 501 447 q 488 534 501 519 q 439 549 474 549 l 363 549 q 314 534 328 549 q 300 483 300 519 q 314 431 300 447 q 363 415 328 415 l 439 415 m 340 -47 q 289 -62 306 -47 q 272 -100 272 -76 l 272 -107 q 289 -146 272 -131 q 340 -161 306 -161 l 463 -161 q 513 -149 493 -161 q 532 -112 532 -136 l 532 -96 q 513 -60 532 -72 q 463 -47 493 -47 l 340 -47 m 294 868 q 331 1024 294 976 q 463 1071 368 1071 l 547 1071 l 547 961 l 511 949 q 467 922 478 938 q 457 868 457 907 l 294 868 z "},"ġ":{"ha":814,"x_min":17,"x_max":793,"o":"m 793 601 l 714 576 q 743 444 743 533 q 676 276 743 336 q 469 215 610 215 l 328 215 q 288 207 303 215 q 272 182 272 199 q 328 153 272 153 l 508 153 q 715 98 643 153 q 788 -85 788 43 l 788 -97 q 715 -282 788 -217 q 496 -347 643 -347 l 261 -347 q 86 -300 156 -347 q 17 -171 17 -253 l 17 -156 q 45 -64 17 -104 q 124 1 74 -24 q 47 135 47 50 q 80 233 47 192 q 168 289 113 275 q 58 501 58 360 q 136 687 58 625 q 385 749 214 749 l 793 749 l 793 601 m 439 415 q 488 431 474 415 q 501 483 501 447 q 488 534 501 519 q 439 549 474 549 l 363 549 q 314 534 328 549 q 300 483 300 519 q 314 431 300 447 q 363 415 328 415 l 439 415 m 340 -47 q 289 -62 306 -47 q 272 -100 272 -76 l 272 -107 q 289 -146 272 -131 q 340 -161 306 -161 l 463 -161 q 513 -149 493 -161 q 532 -112 532 -136 l 532 -96 q 513 -60 532 -72 q 463 -47 493 -47 l 340 -47 m 339 881 q 315 890 324 881 q 306 913 306 899 l 306 1067 q 314 1092 306 1083 q 339 1101 322 1101 l 464 1101 q 488 1092 479 1101 q 496 1067 496 1082 l 496 913 q 488 889 496 897 q 464 881 479 881 l 339 881 z "},"ḡ":{"ha":814,"x_min":17,"x_max":793,"o":"m 793 601 l 714 576 q 743 444 743 533 q 676 276 743 336 q 469 215 610 215 l 328 215 q 288 207 303 215 q 272 182 272 199 q 328 153 272 153 l 508 153 q 715 98 643 153 q 788 -85 788 43 l 788 -97 q 715 -282 788 -217 q 496 -347 643 -347 l 261 -347 q 86 -300 156 -347 q 17 -171 17 -253 l 17 -156 q 45 -64 17 -104 q 124 1 74 -24 q 47 135 47 50 q 80 233 47 192 q 168 289 113 275 q 58 501 58 360 q 136 687 58 625 q 385 749 214 749 l 793 749 l 793 601 m 439 415 q 488 431 474 415 q 501 483 501 447 q 488 534 501 519 q 439 549 474 549 l 363 549 q 314 534 328 549 q 300 483 300 519 q 314 431 300 447 q 363 415 328 415 l 439 415 m 340 -47 q 289 -62 306 -47 q 272 -100 272 -76 l 272 -107 q 289 -146 272 -131 q 340 -161 306 -161 l 463 -161 q 513 -149 493 -161 q 532 -112 532 -136 l 532 -96 q 513 -60 532 -72 q 463 -47 493 -47 l 340 -47 m 194 1035 l 600 1035 l 600 876 l 194 876 l 194 1035 z "},"h":{"ha":833,"x_min":61,"x_max":775,"o":"m 61 1058 l 331 1058 l 331 676 q 426 735 365 710 q 544 761 486 761 q 723 692 671 761 q 775 486 775 622 l 775 0 l 506 0 l 506 450 q 432 519 506 519 q 377 507 406 519 q 331 476 349 494 l 331 0 l 61 0 l 61 1058 z "},"ħ":{"ha":833,"x_min":-14,"x_max":775,"o":"m 544 761 q 723 692 671 761 q 775 486 775 622 l 775 0 l 506 0 l 506 450 q 432 519 506 519 q 377 507 406 519 q 331 476 349 494 l 331 0 l 61 0 l 61 842 l -14 842 l -14 944 l 61 944 l 61 1058 l 331 1058 l 331 944 l 469 944 l 469 842 l 331 842 l 331 676 q 426 735 365 710 q 544 761 486 761 z "},"ḫ":{"ha":833,"x_min":61,"x_max":775,"o":"m 61 1058 l 331 1058 l 331 676 q 426 735 365 710 q 544 761 486 761 q 723 692 671 761 q 775 486 775 622 l 775 0 l 506 0 l 506 450 q 432 519 506 519 q 377 507 406 519 q 331 476 349 494 l 331 0 l 61 0 l 61 1058 m 419 -319 q 270 -265 321 -319 q 219 -101 219 -210 l 343 -101 q 365 -176 343 -153 q 419 -199 388 -199 q 496 -101 496 -199 l 622 -101 q 419 -319 622 -319 z "},"ĥ":{"ha":833,"x_min":-29,"x_max":775,"o":"m 61 1058 l 331 1058 l 331 676 q 426 735 365 710 q 544 761 486 761 q 723 692 671 761 q 775 486 775 622 l 775 0 l 506 0 l 506 450 q 432 519 506 519 q 377 507 406 519 q 331 476 349 494 l 331 0 l 61 0 l 61 1058 m 110 1357 l 292 1357 l 418 1154 l 264 1154 l 196 1239 l 126 1154 l -29 1154 l 110 1357 z "},"ḥ":{"ha":833,"x_min":61,"x_max":775,"o":"m 61 1058 l 331 1058 l 331 676 q 426 735 365 710 q 544 761 486 761 q 723 692 671 761 q 775 486 775 622 l 775 0 l 506 0 l 506 450 q 432 519 506 519 q 377 507 406 519 q 331 476 349 494 l 331 0 l 61 0 l 61 1058 m 346 -328 q 322 -319 331 -328 q 313 -296 313 -310 l 313 -142 q 321 -116 313 -125 q 346 -107 329 -107 l 471 -107 q 494 -117 486 -107 q 503 -142 503 -126 l 503 -296 q 494 -319 503 -311 q 471 -328 486 -328 l 346 -328 z "},"i":{"ha":392,"x_min":58,"x_max":333,"o":"m 92 843 q 67 852 76 843 q 58 875 58 861 l 58 1029 q 67 1055 58 1046 q 92 1064 75 1064 l 303 1064 q 326 1054 318 1064 q 333 1029 333 1044 l 333 875 q 303 843 333 843 l 92 843 m 61 749 l 331 749 l 331 0 l 61 0 l 61 749 z "},"ı":{"ha":392,"x_min":61,"x_max":331,"o":"m 61 749 l 331 749 l 331 0 l 61 0 l 61 749 z "},"í":{"ha":392,"x_min":61,"x_max":435,"o":"m 61 749 l 331 749 l 331 0 l 61 0 l 61 749 m 221 1075 l 435 1075 l 285 876 l 126 876 l 221 1075 z "},"ĭ":{"ha":392,"x_min":-14,"x_max":389,"o":"m 61 749 l 331 749 l 331 0 l 61 0 l 61 749 m 186 861 q 37 916 88 861 q -14 1079 -14 971 l 110 1079 q 132 1005 110 1028 q 186 982 154 982 q 263 1079 263 982 l 389 1079 q 186 861 389 861 z "},"î":{"ha":392,"x_min":-29,"x_max":418,"o":"m 61 749 l 331 749 l 331 0 l 61 0 l 61 749 m 110 1079 l 292 1079 l 418 876 l 264 876 l 196 961 l 126 876 l -29 876 l 110 1079 z "},"ȉ":{"ha":392,"x_min":-150,"x_max":436,"o":"m 61 749 l 331 749 l 331 0 l 61 0 l 61 749 m -150 1075 l 64 1075 l 158 876 l 0 876 l -150 1075 m 128 1075 l 342 1075 l 436 876 l 278 876 l 128 1075 z "},"ï":{"ha":392,"x_min":-44,"x_max":419,"o":"m 61 749 l 331 749 l 331 0 l 61 0 l 61 749 m -11 871 q -35 880 -26 871 q -44 903 -44 889 l -44 1057 q -36 1083 -44 1074 q -11 1092 -28 1092 l 114 1092 q 138 1082 129 1092 q 146 1057 146 1072 l 146 903 q 138 879 146 888 q 114 871 129 871 l -11 871 m 263 871 q 238 880 247 871 q 229 903 229 889 l 229 1057 q 238 1083 229 1074 q 263 1092 246 1092 l 388 1092 q 411 1082 403 1092 q 419 1057 419 1072 l 419 903 q 411 879 419 888 q 388 871 403 871 l 263 871 z "},"ḯ":{"ha":392,"x_min":-44,"x_max":421,"o":"m 61 749 l 331 749 l 331 0 l 61 0 l 61 749 m -11 871 q -35 880 -26 871 q -44 903 -44 889 l -44 1057 q -36 1083 -44 1074 q -11 1092 -28 1092 l 114 1092 q 138 1082 129 1092 q 146 1057 146 1072 l 146 903 q 138 879 146 888 q 114 871 129 871 l -11 871 m 263 871 q 238 880 247 871 q 229 903 229 889 l 229 1057 q 238 1083 229 1074 q 263 1092 246 1092 l 388 1092 q 411 1082 403 1092 q 419 1057 419 1072 l 419 903 q 411 879 419 888 q 388 871 403 871 l 263 871 m 207 1353 l 421 1353 l 271 1154 l 113 1154 l 207 1353 z "},"ị":{"ha":392,"x_min":58,"x_max":333,"o":"m 92 843 q 67 852 76 843 q 58 875 58 861 l 58 1029 q 67 1055 58 1046 q 92 1064 75 1064 l 303 1064 q 326 1054 318 1064 q 333 1029 333 1044 l 333 875 q 303 843 333 843 l 92 843 m 61 749 l 331 749 l 331 0 l 61 0 l 61 749 m 126 -328 q 102 -319 111 -328 q 93 -296 93 -310 l 93 -142 q 101 -116 93 -125 q 126 -107 110 -107 l 251 -107 q 275 -117 267 -107 q 283 -142 283 -126 l 283 -296 q 275 -319 283 -311 q 251 -328 267 -328 l 126 -328 z "},"ì":{"ha":392,"x_min":1,"x_max":331,"o":"m 61 749 l 331 749 l 331 0 l 61 0 l 61 749 m 1 1075 l 215 1075 l 310 876 l 151 876 l 1 1075 z "},"ỉ":{"ha":392,"x_min":61,"x_max":331,"o":"m 61 749 l 331 749 l 331 0 l 61 0 l 61 749 m 149 933 q 189 972 189 944 q 156 994 189 994 q 114 986 142 994 l 114 1089 q 192 1101 151 1101 q 294 1071 260 1101 q 328 982 328 1040 q 286 882 328 919 q 149 817 244 844 l 149 933 z "},"ȋ":{"ha":392,"x_min":0,"x_max":403,"o":"m 61 749 l 331 749 l 331 0 l 61 0 l 61 749 m 203 1083 q 352 1028 301 1083 q 403 865 403 974 l 279 865 q 257 940 279 917 q 203 963 235 963 q 126 865 126 963 l 0 865 q 203 1083 0 1083 z "},"ī":{"ha":392,"x_min":-14,"x_max":392,"o":"m 61 749 l 331 749 l 331 0 l 61 0 l 61 749 m -14 1035 l 392 1035 l 392 876 l -14 876 l -14 1035 z "},"į":{"ha":392,"x_min":58,"x_max":349,"o":"m 92 843 q 67 852 76 843 q 58 875 58 861 l 58 1029 q 67 1055 58 1046 q 92 1064 75 1064 l 303 1064 q 326 1054 318 1064 q 333 1029 333 1044 l 333 875 q 303 843 333 843 l 92 843 m 61 749 l 331 749 l 331 0 l 61 0 l 61 749 m 299 -272 q 185 -234 221 -272 q 150 -144 150 -196 q 173 -58 150 -94 q 235 0 196 -22 l 331 0 q 288 -40 300 -21 q 276 -82 276 -58 q 294 -124 276 -108 q 335 -140 311 -140 l 349 -140 l 349 -265 q 299 -272 335 -272 z "},"ĩ":{"ha":392,"x_min":-65,"x_max":460,"o":"m 61 749 l 331 749 l 331 0 l 61 0 l 61 749 m -65 857 q -17 1010 -58 963 q 89 1058 24 1058 q 152 1050 125 1058 q 208 1028 179 1042 q 249 1012 232 1017 q 283 1007 265 1007 q 326 1068 322 1007 l 460 1068 q 310 860 450 860 q 245 868 275 860 q 183 892 215 876 q 156 902 179 893 q 114 911 133 911 q 68 857 76 911 l -65 857 z "},"j":{"ha":392,"x_min":57,"x_max":332,"o":"m 90 843 q 66 852 75 843 q 57 875 57 861 l 57 1029 q 65 1055 57 1046 q 90 1064 74 1064 l 301 1064 q 324 1054 317 1064 q 332 1029 332 1044 l 332 875 q 301 843 332 843 l 90 843 m 61 749 l 331 749 l 331 -6 q 313 -177 331 -87 q 267 -329 296 -267 l 61 -329 l 61 749 z "},"ȷ":{"ha":392,"x_min":61,"x_max":331,"o":"m 61 749 l 331 749 l 331 -6 q 313 -177 331 -87 q 267 -329 296 -267 l 61 -329 l 61 749 z "},"ĵ":{"ha":392,"x_min":-29,"x_max":418,"o":"m 61 749 l 331 749 l 331 -6 q 313 -177 331 -87 q 267 -329 296 -267 l 61 -329 l 61 749 m 110 1079 l 292 1079 l 418 876 l 264 876 l 196 961 l 126 876 l -29 876 l 110 1079 z "},"k":{"ha":814,"x_min":61,"x_max":824,"o":"m 61 1060 l 331 1060 l 331 514 l 406 514 l 528 749 l 799 749 l 606 393 l 824 0 l 554 0 l 404 272 l 331 272 l 331 0 l 61 0 l 61 1060 z "},"ķ":{"ha":814,"x_min":61,"x_max":824,"o":"m 61 1060 l 331 1060 l 331 514 l 406 514 l 528 749 l 799 749 l 606 393 l 824 0 l 554 0 l 404 272 l 331 272 l 331 0 l 61 0 l 61 1060 m 279 -203 l 315 -190 q 359 -164 349 -179 q 369 -110 369 -149 l 532 -110 q 495 -265 532 -218 q 364 -312 458 -312 l 279 -312 l 279 -203 z "},"ĸ":{"ha":814,"x_min":61,"x_max":824,"o":"m 61 749 l 331 749 l 331 494 l 397 494 l 519 749 l 799 749 l 606 374 l 824 0 l 553 0 l 406 253 l 331 253 l 331 0 l 61 0 l 61 749 z "},"l":{"ha":453,"x_min":61,"x_max":436,"o":"m 321 -4 q 125 58 189 -4 q 61 243 61 119 l 61 1060 l 331 1060 l 331 285 q 344 224 331 244 q 390 199 358 204 l 436 192 l 436 -4 l 321 -4 z "},"ĺ":{"ha":453,"x_min":61,"x_max":436,"o":"m 321 -4 q 125 58 189 -4 q 61 243 61 119 l 61 1060 l 331 1060 l 331 285 q 344 224 331 244 q 390 199 358 204 l 436 192 l 436 -4 l 321 -4 m 221 1353 l 435 1353 l 285 1154 l 126 1154 l 221 1353 z "},"ľ":{"ha":453,"x_min":61,"x_max":629,"o":"m 321 -4 q 125 58 189 -4 q 61 243 61 119 l 61 1060 l 331 1060 l 331 285 q 344 224 331 244 q 390 199 358 204 l 436 192 l 436 -4 l 321 -4 m 386 994 l 386 1088 l 629 1088 l 629 994 l 615 808 l 401 808 l 386 994 z "},"ļ":{"ha":453,"x_min":61,"x_max":436,"o":"m 321 -4 q 125 58 189 -4 q 61 243 61 119 l 61 1060 l 331 1060 l 331 285 q 344 224 331 244 q 390 199 358 204 l 436 192 l 436 -4 l 321 -4 m 151 -203 l 188 -190 q 231 -164 221 -179 q 242 -110 242 -149 l 404 -110 q 367 -265 404 -218 q 236 -312 331 -312 l 151 -312 l 151 -203 z "},"ŀ":{"ha":572,"x_min":61,"x_max":600,"o":"m 321 -4 q 125 58 189 -4 q 61 243 61 119 l 61 1060 l 331 1060 l 331 285 q 344 224 331 244 q 390 199 358 204 l 436 192 l 436 -4 l 321 -4 m 408 396 q 384 405 393 396 q 375 428 375 414 l 375 590 q 383 616 375 607 q 408 625 392 625 l 565 625 q 600 590 600 625 l 600 428 q 565 396 600 396 l 408 396 z "},"ḷ":{"ha":453,"x_min":61,"x_max":436,"o":"m 321 -4 q 125 58 189 -4 q 61 243 61 119 l 61 1060 l 331 1060 l 331 285 q 344 224 331 244 q 390 199 358 204 l 436 192 l 436 -4 l 321 -4 m 206 -328 q 181 -319 190 -328 q 172 -296 172 -310 l 172 -142 q 181 -116 172 -125 q 206 -107 189 -107 l 331 -107 q 354 -117 346 -107 q 363 -142 363 -126 l 363 -296 q 354 -319 363 -311 q 331 -328 346 -328 l 206 -328 z "},"ḻ":{"ha":453,"x_min":61,"x_max":485,"o":"m 321 -4 q 125 58 189 -4 q 61 243 61 119 l 61 1060 l 331 1060 l 331 285 q 344 224 331 244 q 390 199 358 204 l 436 192 l 436 -4 l 321 -4 m 79 -160 l 485 -160 l 485 -318 l 79 -318 l 79 -160 z "},"ł":{"ha":453,"x_min":-11,"x_max":439,"o":"m 331 572 l 331 285 q 344 224 331 244 q 390 199 358 204 l 436 192 l 436 -4 l 321 -4 q 125 58 189 -4 q 61 243 61 119 l 61 485 l -11 453 l -11 593 l 61 625 l 61 1060 l 331 1060 l 331 713 l 439 760 l 439 619 l 331 572 z "},"m":{"ha":1278,"x_min":61,"x_max":1219,"o":"m 61 749 l 286 749 l 331 676 q 435 740 386 718 q 561 761 485 761 q 674 734 628 761 q 744 660 719 707 q 981 761 878 761 q 1168 690 1117 761 q 1219 472 1219 619 l 1219 0 l 950 0 l 950 447 q 931 503 950 488 q 876 519 911 519 q 821 507 849 519 q 775 476 793 494 l 775 442 l 775 0 l 506 0 l 506 447 q 486 503 506 488 q 432 519 467 519 q 376 507 404 519 q 331 476 349 494 l 331 0 l 61 0 l 61 749 z "},"ṁ":{"ha":1278,"x_min":61,"x_max":1219,"o":"m 61 749 l 286 749 l 331 676 q 435 740 386 718 q 561 761 485 761 q 674 734 628 761 q 744 660 719 707 q 981 761 878 761 q 1168 690 1117 761 q 1219 472 1219 619 l 1219 0 l 950 0 l 950 447 q 931 503 950 488 q 876 519 911 519 q 821 507 849 519 q 775 476 793 494 l 775 442 l 775 0 l 506 0 l 506 447 q 486 503 506 488 q 432 519 467 519 q 376 507 404 519 q 331 476 349 494 l 331 0 l 61 0 l 61 749 m 603 881 q 578 890 588 881 q 569 913 569 899 l 569 1067 q 578 1092 569 1083 q 603 1101 586 1101 l 728 1101 q 751 1092 743 1101 q 760 1067 760 1082 l 760 913 q 751 889 760 897 q 728 881 743 881 l 603 881 z "},"ṃ":{"ha":1278,"x_min":61,"x_max":1219,"o":"m 61 749 l 286 749 l 331 676 q 435 740 386 718 q 561 761 485 761 q 674 734 628 761 q 744 660 719 707 q 981 761 878 761 q 1168 690 1117 761 q 1219 472 1219 619 l 1219 0 l 950 0 l 950 447 q 931 503 950 488 q 876 519 911 519 q 821 507 849 519 q 775 476 793 494 l 775 442 l 775 0 l 506 0 l 506 447 q 486 503 506 488 q 432 519 467 519 q 376 507 404 519 q 331 476 349 494 l 331 0 l 61 0 l 61 749 m 571 -328 q 547 -319 556 -328 q 538 -296 538 -310 l 538 -142 q 546 -116 538 -125 q 571 -107 554 -107 l 696 -107 q 719 -117 711 -107 q 728 -142 728 -126 l 728 -296 q 719 -319 728 -311 q 696 -328 711 -328 l 571 -328 z "},"n":{"ha":833,"x_min":61,"x_max":775,"o":"m 61 749 l 286 749 l 331 676 q 427 736 368 711 q 542 761 486 761 q 726 689 676 761 q 775 483 775 617 l 775 0 l 506 0 l 506 447 q 486 503 506 488 q 432 519 467 519 q 376 507 404 519 q 331 476 349 494 l 331 0 l 61 0 l 61 749 z "},"ń":{"ha":833,"x_min":61,"x_max":775,"o":"m 61 749 l 286 749 l 331 676 q 427 736 368 711 q 542 761 486 761 q 726 689 676 761 q 775 483 775 617 l 775 0 l 506 0 l 506 447 q 486 503 506 488 q 432 519 467 519 q 376 507 404 519 q 331 476 349 494 l 331 0 l 61 0 l 61 749 m 442 1075 l 656 1075 l 506 876 l 347 876 l 442 1075 z "},"ň":{"ha":833,"x_min":61,"x_max":775,"o":"m 61 749 l 286 749 l 331 676 q 427 736 368 711 q 542 761 486 761 q 726 689 676 761 q 775 483 775 617 l 775 0 l 506 0 l 506 447 q 486 503 506 488 q 432 519 467 519 q 376 507 404 519 q 331 476 349 494 l 331 0 l 61 0 l 61 749 m 194 1079 l 349 1079 l 417 994 l 486 1079 l 642 1079 l 503 876 l 321 876 l 194 1079 z "},"ņ":{"ha":833,"x_min":61,"x_max":775,"o":"m 61 749 l 286 749 l 331 676 q 427 736 368 711 q 542 761 486 761 q 726 689 676 761 q 775 483 775 617 l 775 0 l 506 0 l 506 447 q 486 503 506 488 q 432 519 467 519 q 376 507 404 519 q 331 476 349 494 l 331 0 l 61 0 l 61 749 m 293 -203 l 329 -190 q 373 -164 363 -179 q 383 -110 383 -149 l 546 -110 q 509 -265 546 -218 q 378 -312 472 -312 l 293 -312 l 293 -203 z "},"ṅ":{"ha":833,"x_min":61,"x_max":775,"o":"m 61 749 l 286 749 l 331 676 q 427 736 368 711 q 542 761 486 761 q 726 689 676 761 q 775 483 775 617 l 775 0 l 506 0 l 506 447 q 486 503 506 488 q 432 519 467 519 q 376 507 404 519 q 331 476 349 494 l 331 0 l 61 0 l 61 749 m 347 -328 q 323 -319 332 -328 q 314 -296 314 -310 l 314 -142 q 322 -116 314 -125 q 347 -107 331 -107 l 472 -107 q 496 -117 488 -107 q 504 -142 504 -126 l 504 -296 q 496 -319 504 -311 q 472 -328 488 -328 l 347 -328 z "},"ṇ":{"ha":833,"x_min":61,"x_max":775,"o":"m 61 749 l 286 749 l 331 676 q 427 736 368 711 q 542 761 486 761 q 726 689 676 761 q 775 483 775 617 l 775 0 l 506 0 l 506 447 q 486 503 506 488 q 432 519 467 519 q 376 507 404 519 q 331 476 349 494 l 331 0 l 61 0 l 61 749 m 347 -328 q 323 -319 332 -328 q 314 -296 314 -310 l 314 -142 q 322 -116 314 -125 q 347 -107 331 -107 l 472 -107 q 496 -117 488 -107 q 504 -142 504 -126 l 504 -296 q 496 -319 504 -311 q 472 -328 488 -328 l 347 -328 z "},"ŋ":{"ha":833,"x_min":61,"x_max":775,"o":"m 542 761 q 726 689 676 761 q 775 483 775 617 l 775 -62 q 735 -228 775 -161 q 633 -329 694 -296 l 419 -329 q 481 -228 456 -286 q 506 -69 506 -169 l 506 447 q 486 503 506 488 q 432 519 467 519 q 376 507 404 519 q 331 476 349 494 l 331 0 l 61 0 l 61 749 l 286 749 l 331 676 q 427 736 368 711 q 542 761 486 761 z "},"ṉ":{"ha":833,"x_min":61,"x_max":775,"o":"m 61 749 l 286 749 l 331 676 q 427 736 368 711 q 542 761 486 761 q 726 689 676 761 q 775 483 775 617 l 775 0 l 506 0 l 506 447 q 486 503 506 488 q 432 519 467 519 q 376 507 404 519 q 331 476 349 494 l 331 0 l 61 0 l 61 749 m 221 -160 l 626 -160 l 626 -318 l 221 -318 l 221 -160 z "},"ñ":{"ha":833,"x_min":61,"x_max":775,"o":"m 61 749 l 286 749 l 331 676 q 427 736 368 711 q 542 761 486 761 q 726 689 676 761 q 775 483 775 617 l 775 0 l 506 0 l 506 447 q 486 503 506 488 q 432 519 467 519 q 376 507 404 519 q 331 476 349 494 l 331 0 l 61 0 l 61 749 m 156 857 q 203 1010 163 963 q 310 1058 244 1058 q 373 1050 346 1058 q 429 1028 400 1042 q 469 1012 453 1017 q 504 1007 486 1007 q 547 1068 543 1007 l 681 1068 q 531 860 671 860 q 466 868 496 860 q 404 892 436 876 q 377 902 400 893 q 335 911 354 911 q 289 857 297 911 l 156 857 z "},"o":{"ha":797,"x_min":42,"x_max":756,"o":"m 399 -7 q 187 31 264 -7 q 76 152 110 69 q 42 376 42 235 q 76 610 42 528 q 186 727 110 693 q 399 761 263 761 q 611 726 535 761 q 722 607 688 690 q 756 376 756 524 q 723 147 756 229 q 614 29 690 65 q 399 -7 538 -7 m 399 207 q 453 217 436 207 q 478 263 471 228 q 486 378 486 299 q 478 491 486 456 q 453 537 471 526 q 399 547 436 547 q 344 537 361 547 q 319 491 326 526 q 311 378 311 456 q 319 263 311 299 q 344 217 326 228 q 399 207 361 207 z "},"ó":{"ha":797,"x_min":42,"x_max":756,"o":"m 399 -7 q 187 31 264 -7 q 76 152 110 69 q 42 376 42 235 q 76 610 42 528 q 186 727 110 693 q 399 761 263 761 q 611 726 535 761 q 722 607 688 690 q 756 376 756 524 q 723 147 756 229 q 614 29 690 65 q 399 -7 538 -7 m 399 207 q 453 217 436 207 q 478 263 471 228 q 486 378 486 299 q 478 491 486 456 q 453 537 471 526 q 399 547 436 547 q 344 537 361 547 q 319 491 326 526 q 311 378 311 456 q 319 263 311 299 q 344 217 326 228 q 399 207 361 207 m 424 1075 l 638 1075 l 488 876 l 329 876 l 424 1075 z "},"ŏ":{"ha":797,"x_min":42,"x_max":756,"o":"m 399 -7 q 187 31 264 -7 q 76 152 110 69 q 42 376 42 235 q 76 610 42 528 q 186 727 110 693 q 399 761 263 761 q 611 726 535 761 q 722 607 688 690 q 756 376 756 524 q 723 147 756 229 q 614 29 690 65 q 399 -7 538 -7 m 399 207 q 453 217 436 207 q 478 263 471 228 q 486 378 486 299 q 478 491 486 456 q 453 537 471 526 q 399 547 436 547 q 344 537 361 547 q 319 491 326 526 q 311 378 311 456 q 319 263 311 299 q 344 217 326 228 q 399 207 361 207 m 389 861 q 240 916 290 861 q 189 1079 189 971 l 313 1079 q 335 1005 313 1028 q 389 982 357 982 q 465 1079 465 982 l 592 1079 q 389 861 592 861 z "},"ô":{"ha":797,"x_min":42,"x_max":756,"o":"m 399 -7 q 187 31 264 -7 q 76 152 110 69 q 42 376 42 235 q 76 610 42 528 q 186 727 110 693 q 399 761 263 761 q 611 726 535 761 q 722 607 688 690 q 756 376 756 524 q 723 147 756 229 q 614 29 690 65 q 399 -7 538 -7 m 399 207 q 453 217 436 207 q 478 263 471 228 q 486 378 486 299 q 478 491 486 456 q 453 537 471 526 q 399 547 436 547 q 344 537 361 547 q 319 491 326 526 q 311 378 311 456 q 319 263 311 299 q 344 217 326 228 q 399 207 361 207 m 313 1079 l 494 1079 l 621 876 l 467 876 l 399 961 l 329 876 l 174 876 l 313 1079 z "},"ố":{"ha":797,"x_min":42,"x_max":776,"o":"m 399 -7 q 187 31 264 -7 q 76 152 110 69 q 42 376 42 235 q 76 610 42 528 q 186 727 110 693 q 399 761 263 761 q 611 726 535 761 q 722 607 688 690 q 756 376 756 524 q 723 147 756 229 q 614 29 690 65 q 399 -7 538 -7 m 399 207 q 453 217 436 207 q 478 263 471 228 q 486 378 486 299 q 478 491 486 456 q 453 537 471 526 q 399 547 436 547 q 344 537 361 547 q 319 491 326 526 q 311 378 311 456 q 319 263 311 299 q 344 217 326 228 q 399 207 361 207 m 776 1172 l 696 1001 l 538 1001 l 563 1172 l 776 1172 m 494 1038 l 621 876 l 467 876 l 399 919 l 329 876 l 174 876 l 313 1038 l 494 1038 z "},"ộ":{"ha":797,"x_min":42,"x_max":756,"o":"m 399 -7 q 187 31 264 -7 q 76 152 110 69 q 42 376 42 235 q 76 610 42 528 q 186 727 110 693 q 399 761 263 761 q 611 726 535 761 q 722 607 688 690 q 756 376 756 524 q 723 147 756 229 q 614 29 690 65 q 399 -7 538 -7 m 399 207 q 453 217 436 207 q 478 263 471 228 q 486 378 486 299 q 478 491 486 456 q 453 537 471 526 q 399 547 436 547 q 344 537 361 547 q 319 491 326 526 q 311 378 311 456 q 319 263 311 299 q 344 217 326 228 q 399 207 361 207 m 313 1079 l 494 1079 l 621 876 l 467 876 l 399 961 l 329 876 l 174 876 l 313 1079 m 329 -328 q 305 -319 314 -328 q 296 -296 296 -310 l 296 -142 q 304 -116 296 -125 q 329 -107 313 -107 l 454 -107 q 478 -117 469 -107 q 486 -142 486 -126 l 486 -296 q 478 -319 486 -311 q 454 -328 469 -328 l 329 -328 z "},"ồ":{"ha":797,"x_min":24,"x_max":756,"o":"m 399 -7 q 187 31 264 -7 q 76 152 110 69 q 42 376 42 235 q 76 610 42 528 q 186 727 110 693 q 399 761 263 761 q 611 726 535 761 q 722 607 688 690 q 756 376 756 524 q 723 147 756 229 q 614 29 690 65 q 399 -7 538 -7 m 399 207 q 453 217 436 207 q 478 263 471 228 q 486 378 486 299 q 478 491 486 456 q 453 537 471 526 q 399 547 436 547 q 344 537 361 547 q 319 491 326 526 q 311 378 311 456 q 319 263 311 299 q 344 217 326 228 q 399 207 361 207 m 238 1172 l 263 1001 l 104 1001 l 24 1172 l 238 1172 m 494 1038 l 621 876 l 467 876 l 399 919 l 329 876 l 174 876 l 313 1038 l 494 1038 z "},"ổ":{"ha":797,"x_min":42,"x_max":756,"o":"m 399 -7 q 187 31 264 -7 q 76 152 110 69 q 42 376 42 235 q 76 610 42 528 q 186 727 110 693 q 399 761 263 761 q 611 726 535 761 q 722 607 688 690 q 756 376 756 524 q 723 147 756 229 q 614 29 690 65 q 399 -7 538 -7 m 399 207 q 453 217 436 207 q 478 263 471 228 q 486 378 486 299 q 478 491 486 456 q 453 537 471 526 q 399 547 436 547 q 344 537 361 547 q 319 491 326 526 q 311 378 311 456 q 319 263 311 299 q 344 217 326 228 q 399 207 361 207 m 572 1072 q 599 1103 599 1081 q 579 1122 599 1122 q 538 1114 565 1122 l 538 1203 q 615 1215 575 1215 q 724 1121 724 1215 q 688 1017 724 1057 q 572 956 651 978 l 572 1072 m 313 1038 l 494 1038 l 621 876 l 467 876 l 399 919 l 329 876 l 174 876 l 313 1038 z "},"ỗ":{"ha":797,"x_min":42,"x_max":756,"o":"m 399 -7 q 187 31 264 -7 q 76 152 110 69 q 42 376 42 235 q 76 610 42 528 q 186 727 110 693 q 399 761 263 761 q 611 726 535 761 q 722 607 688 690 q 756 376 756 524 q 723 147 756 229 q 614 29 690 65 q 399 -7 538 -7 m 399 207 q 453 217 436 207 q 478 263 471 228 q 486 378 486 299 q 478 491 486 456 q 453 537 471 526 q 399 547 436 547 q 344 537 361 547 q 319 491 326 526 q 311 378 311 456 q 319 263 311 299 q 344 217 326 228 q 399 207 361 207 m 292 1246 q 337 1241 314 1246 q 381 1231 360 1236 q 433 1219 419 1219 q 474 1256 474 1219 l 607 1256 q 587 1155 601 1190 q 548 1106 572 1119 q 485 1093 524 1093 q 418 1101 451 1093 q 379 1110 385 1108 q 328 1119 340 1119 q 299 1090 306 1119 l 165 1090 q 204 1215 174 1183 q 292 1246 235 1246 m 621 876 l 467 876 l 399 919 l 329 876 l 174 876 l 313 1038 l 494 1038 l 621 876 z "},"ȍ":{"ha":797,"x_min":42,"x_max":756,"o":"m 399 -7 q 187 31 264 -7 q 76 152 110 69 q 42 376 42 235 q 76 610 42 528 q 186 727 110 693 q 399 761 263 761 q 611 726 535 761 q 722 607 688 690 q 756 376 756 524 q 723 147 756 229 q 614 29 690 65 q 399 -7 538 -7 m 399 207 q 453 217 436 207 q 478 263 471 228 q 486 378 486 299 q 478 491 486 456 q 453 537 471 526 q 399 547 436 547 q 344 537 361 547 q 319 491 326 526 q 311 378 311 456 q 319 263 311 299 q 344 217 326 228 q 399 207 361 207 m 53 1075 l 267 1075 l 361 876 l 203 876 l 53 1075 m 331 1075 l 544 1075 l 639 876 l 481 876 l 331 1075 z "},"ö":{"ha":797,"x_min":42,"x_max":756,"o":"m 399 -7 q 187 31 264 -7 q 76 152 110 69 q 42 376 42 235 q 76 610 42 528 q 186 727 110 693 q 399 761 263 761 q 611 726 535 761 q 722 607 688 690 q 756 376 756 524 q 723 147 756 229 q 614 29 690 65 q 399 -7 538 -7 m 399 207 q 453 217 436 207 q 478 263 471 228 q 486 378 486 299 q 478 491 486 456 q 453 537 471 526 q 399 547 436 547 q 344 537 361 547 q 319 491 326 526 q 311 378 311 456 q 319 263 311 299 q 344 217 326 228 q 399 207 361 207 m 192 871 q 167 880 176 871 q 158 903 158 889 l 158 1057 q 167 1083 158 1074 q 192 1092 175 1092 l 317 1092 q 340 1082 332 1092 q 349 1057 349 1072 l 349 903 q 340 879 349 888 q 317 871 332 871 l 192 871 m 465 871 q 441 880 450 871 q 432 903 432 889 l 432 1057 q 440 1083 432 1074 q 465 1092 449 1092 l 590 1092 q 614 1082 606 1092 q 622 1057 622 1072 l 622 903 q 614 879 622 888 q 590 871 606 871 l 465 871 z "},"ȫ":{"ha":797,"x_min":42,"x_max":756,"o":"m 399 -7 q 187 31 264 -7 q 76 152 110 69 q 42 376 42 235 q 76 610 42 528 q 186 727 110 693 q 399 761 263 761 q 611 726 535 761 q 722 607 688 690 q 756 376 756 524 q 723 147 756 229 q 614 29 690 65 q 399 -7 538 -7 m 399 207 q 453 217 436 207 q 478 263 471 228 q 486 378 486 299 q 478 491 486 456 q 453 537 471 526 q 399 547 436 547 q 344 537 361 547 q 319 491 326 526 q 311 378 311 456 q 319 263 311 299 q 344 217 326 228 q 399 207 361 207 m 192 871 q 167 880 176 871 q 158 903 158 889 l 158 1057 q 167 1083 158 1074 q 192 1092 175 1092 l 317 1092 q 340 1082 332 1092 q 349 1057 349 1072 l 349 903 q 340 879 349 888 q 317 871 332 871 l 192 871 m 465 871 q 441 880 450 871 q 432 903 432 889 l 432 1057 q 440 1083 432 1074 q 465 1092 449 1092 l 590 1092 q 614 1082 606 1092 q 622 1057 622 1072 l 622 903 q 614 879 622 888 q 590 871 606 871 l 465 871 m 189 1313 l 594 1313 l 594 1154 l 189 1154 l 189 1313 z "},"ȱ":{"ha":797,"x_min":42,"x_max":756,"o":"m 399 -7 q 187 31 264 -7 q 76 152 110 69 q 42 376 42 235 q 76 610 42 528 q 186 727 110 693 q 399 761 263 761 q 611 726 535 761 q 722 607 688 690 q 756 376 756 524 q 723 147 756 229 q 614 29 690 65 q 399 -7 538 -7 m 399 207 q 453 217 436 207 q 478 263 471 228 q 486 378 486 299 q 478 491 486 456 q 453 537 471 526 q 399 547 436 547 q 344 537 361 547 q 319 491 326 526 q 311 378 311 456 q 319 263 311 299 q 344 217 326 228 q 399 207 361 207 m 333 881 q 309 890 318 881 q 300 913 300 899 l 300 1067 q 308 1092 300 1083 q 333 1101 317 1101 l 458 1101 q 482 1092 474 1101 q 490 1067 490 1082 l 490 913 q 482 889 490 897 q 458 881 474 881 l 333 881 m 189 1313 l 594 1313 l 594 1154 l 189 1154 l 189 1313 z "},"ọ":{"ha":797,"x_min":42,"x_max":756,"o":"m 399 -7 q 187 31 264 -7 q 76 152 110 69 q 42 376 42 235 q 76 610 42 528 q 186 727 110 693 q 399 761 263 761 q 611 726 535 761 q 722 607 688 690 q 756 376 756 524 q 723 147 756 229 q 614 29 690 65 q 399 -7 538 -7 m 399 207 q 453 217 436 207 q 478 263 471 228 q 486 378 486 299 q 478 491 486 456 q 453 537 471 526 q 399 547 436 547 q 344 537 361 547 q 319 491 326 526 q 311 378 311 456 q 319 263 311 299 q 344 217 326 228 q 399 207 361 207 m 329 -328 q 305 -319 314 -328 q 296 -296 296 -310 l 296 -142 q 304 -116 296 -125 q 329 -107 313 -107 l 454 -107 q 478 -117 469 -107 q 486 -142 486 -126 l 486 -296 q 478 -319 486 -311 q 454 -328 469 -328 l 329 -328 z "},"ò":{"ha":797,"x_min":42,"x_max":756,"o":"m 399 -7 q 187 31 264 -7 q 76 152 110 69 q 42 376 42 235 q 76 610 42 528 q 186 727 110 693 q 399 761 263 761 q 611 726 535 761 q 722 607 688 690 q 756 376 756 524 q 723 147 756 229 q 614 29 690 65 q 399 -7 538 -7 m 399 207 q 453 217 436 207 q 478 263 471 228 q 486 378 486 299 q 478 491 486 456 q 453 537 471 526 q 399 547 436 547 q 344 537 361 547 q 319 491 326 526 q 311 378 311 456 q 319 263 311 299 q 344 217 326 228 q 399 207 361 207 m 204 1075 l 418 1075 l 513 876 l 354 876 l 204 1075 z "},"ỏ":{"ha":797,"x_min":42,"x_max":756,"o":"m 399 -7 q 187 31 264 -7 q 76 152 110 69 q 42 376 42 235 q 76 610 42 528 q 186 727 110 693 q 399 761 263 761 q 611 726 535 761 q 722 607 688 690 q 756 376 756 524 q 723 147 756 229 q 614 29 690 65 q 399 -7 538 -7 m 399 207 q 453 217 436 207 q 478 263 471 228 q 486 378 486 299 q 478 491 486 456 q 453 537 471 526 q 399 547 436 547 q 344 537 361 547 q 319 491 326 526 q 311 378 311 456 q 319 263 311 299 q 344 217 326 228 q 399 207 361 207 m 351 933 q 392 972 392 944 q 358 994 392 994 q 317 986 344 994 l 317 1089 q 394 1101 354 1101 q 497 1071 463 1101 q 531 982 531 1040 q 489 882 531 919 q 351 817 447 844 l 351 933 z "},"ơ":{"ha":797,"x_min":42,"x_max":797,"o":"m 797 899 q 772 747 797 811 q 701 646 747 682 q 743 536 731 601 q 756 376 756 471 q 723 147 756 229 q 614 29 690 65 q 399 -7 538 -7 q 187 31 264 -7 q 76 152 110 69 q 42 376 42 235 q 76 610 42 528 q 186 727 110 693 q 399 761 263 761 q 536 750 474 761 q 595 789 576 754 q 614 899 614 824 l 797 899 m 399 207 q 453 217 436 207 q 478 263 471 228 q 486 378 486 299 q 478 491 486 456 q 453 537 471 526 q 399 547 436 547 q 344 537 361 547 q 319 491 326 526 q 311 378 311 456 q 319 263 311 299 q 344 217 326 228 q 399 207 361 207 z "},"ớ":{"ha":797,"x_min":42,"x_max":797,"o":"m 797 899 q 772 747 797 811 q 701 646 747 682 q 743 536 731 601 q 756 376 756 471 q 723 147 756 229 q 614 29 690 65 q 399 -7 538 -7 q 187 31 264 -7 q 76 152 110 69 q 42 376 42 235 q 76 610 42 528 q 186 727 110 693 q 399 761 263 761 q 536 750 474 761 q 595 789 576 754 q 614 899 614 824 l 797 899 m 399 207 q 453 217 436 207 q 478 263 471 228 q 486 378 486 299 q 478 491 486 456 q 453 537 471 526 q 399 547 436 547 q 344 537 361 547 q 319 491 326 526 q 311 378 311 456 q 319 263 311 299 q 344 217 326 228 q 399 207 361 207 m 388 1075 l 601 1075 l 451 876 l 293 876 l 388 1075 z "},"ợ":{"ha":797,"x_min":42,"x_max":797,"o":"m 797 899 q 772 747 797 811 q 701 646 747 682 q 743 536 731 601 q 756 376 756 471 q 723 147 756 229 q 614 29 690 65 q 399 -7 538 -7 q 187 31 264 -7 q 76 152 110 69 q 42 376 42 235 q 76 610 42 528 q 186 727 110 693 q 399 761 263 761 q 536 750 474 761 q 595 789 576 754 q 614 899 614 824 l 797 899 m 399 207 q 453 217 436 207 q 478 263 471 228 q 486 378 486 299 q 478 491 486 456 q 453 537 471 526 q 399 547 436 547 q 344 537 361 547 q 319 491 326 526 q 311 378 311 456 q 319 263 311 299 q 344 217 326 228 q 399 207 361 207 m 336 -328 q 312 -319 321 -328 q 303 -296 303 -310 l 303 -142 q 311 -116 303 -125 q 336 -107 319 -107 l 461 -107 q 485 -117 476 -107 q 493 -142 493 -126 l 493 -296 q 485 -319 493 -311 q 461 -328 476 -328 l 336 -328 z "},"ờ":{"ha":797,"x_min":42,"x_max":797,"o":"m 797 899 q 772 747 797 811 q 701 646 747 682 q 743 536 731 601 q 756 376 756 471 q 723 147 756 229 q 614 29 690 65 q 399 -7 538 -7 q 187 31 264 -7 q 76 152 110 69 q 42 376 42 235 q 76 610 42 528 q 186 727 110 693 q 399 761 263 761 q 536 750 474 761 q 595 789 576 754 q 614 899 614 824 l 797 899 m 399 207 q 453 217 436 207 q 478 263 471 228 q 486 378 486 299 q 478 491 486 456 q 453 537 471 526 q 399 547 436 547 q 344 537 361 547 q 319 491 326 526 q 311 378 311 456 q 319 263 311 299 q 344 217 326 228 q 399 207 361 207 m 168 1075 l 382 1075 l 476 876 l 318 876 l 168 1075 z "},"ở":{"ha":797,"x_min":42,"x_max":797,"o":"m 797 899 q 772 747 797 811 q 701 646 747 682 q 743 536 731 601 q 756 376 756 471 q 723 147 756 229 q 614 29 690 65 q 399 -7 538 -7 q 187 31 264 -7 q 76 152 110 69 q 42 376 42 235 q 76 610 42 528 q 186 727 110 693 q 399 761 263 761 q 536 750 474 761 q 595 789 576 754 q 614 899 614 824 l 797 899 m 399 207 q 453 217 436 207 q 478 263 471 228 q 486 378 486 299 q 478 491 486 456 q 453 537 471 526 q 399 547 436 547 q 344 537 361 547 q 319 491 326 526 q 311 378 311 456 q 319 263 311 299 q 344 217 326 228 q 399 207 361 207 m 356 933 q 396 972 396 944 q 363 994 396 994 q 321 986 349 994 l 321 1089 q 399 1101 358 1101 q 501 1071 467 1101 q 535 982 535 1040 q 493 882 535 919 q 356 817 451 844 l 356 933 z "},"ỡ":{"ha":797,"x_min":42,"x_max":797,"o":"m 797 899 q 772 747 797 811 q 701 646 747 682 q 743 536 731 601 q 756 376 756 471 q 723 147 756 229 q 614 29 690 65 q 399 -7 538 -7 q 187 31 264 -7 q 76 152 110 69 q 42 376 42 235 q 76 610 42 528 q 186 727 110 693 q 399 761 263 761 q 536 750 474 761 q 595 789 576 754 q 614 899 614 824 l 797 899 m 399 207 q 453 217 436 207 q 478 263 471 228 q 486 378 486 299 q 478 491 486 456 q 453 537 471 526 q 399 547 436 547 q 344 537 361 547 q 319 491 326 526 q 311 378 311 456 q 319 263 311 299 q 344 217 326 228 q 399 207 361 207 m 101 857 q 149 1010 108 963 q 256 1058 190 1058 q 319 1050 292 1058 q 375 1028 346 1042 q 415 1012 399 1017 q 450 1007 432 1007 q 493 1068 489 1007 l 626 1068 q 476 860 617 860 q 412 868 442 860 q 350 892 382 876 q 323 902 346 893 q 281 911 300 911 q 235 857 243 911 l 101 857 z "},"ő":{"ha":797,"x_min":42,"x_max":756,"o":"m 399 -7 q 187 31 264 -7 q 76 152 110 69 q 42 376 42 235 q 76 610 42 528 q 186 727 110 693 q 399 761 263 761 q 611 726 535 761 q 722 607 688 690 q 756 376 756 524 q 723 147 756 229 q 614 29 690 65 q 399 -7 538 -7 m 399 207 q 453 217 436 207 q 478 263 471 228 q 486 378 486 299 q 478 491 486 456 q 453 537 471 526 q 399 547 436 547 q 344 537 361 547 q 319 491 326 526 q 311 378 311 456 q 319 263 311 299 q 344 217 326 228 q 399 207 361 207 m 271 1075 l 471 1075 l 349 876 l 190 876 l 271 1075 m 511 1075 l 711 1075 l 589 876 l 431 876 l 511 1075 z "},"ȏ":{"ha":797,"x_min":42,"x_max":756,"o":"m 399 -7 q 187 31 264 -7 q 76 152 110 69 q 42 376 42 235 q 76 610 42 528 q 186 727 110 693 q 399 761 263 761 q 611 726 535 761 q 722 607 688 690 q 756 376 756 524 q 723 147 756 229 q 614 29 690 65 q 399 -7 538 -7 m 399 207 q 453 217 436 207 q 478 263 471 228 q 486 378 486 299 q 478 491 486 456 q 453 537 471 526 q 399 547 436 547 q 344 537 361 547 q 319 491 326 526 q 311 378 311 456 q 319 263 311 299 q 344 217 326 228 q 399 207 361 207 m 406 1083 q 555 1028 504 1083 q 606 865 606 974 l 482 865 q 460 940 482 917 q 406 963 438 963 q 329 865 329 963 l 203 865 q 406 1083 203 1083 z "},"ō":{"ha":797,"x_min":42,"x_max":756,"o":"m 399 -7 q 187 31 264 -7 q 76 152 110 69 q 42 376 42 235 q 76 610 42 528 q 186 727 110 693 q 399 761 263 761 q 611 726 535 761 q 722 607 688 690 q 756 376 756 524 q 723 147 756 229 q 614 29 690 65 q 399 -7 538 -7 m 399 207 q 453 217 436 207 q 478 263 471 228 q 486 378 486 299 q 478 491 486 456 q 453 537 471 526 q 399 547 436 547 q 344 537 361 547 q 319 491 326 526 q 311 378 311 456 q 319 263 311 299 q 344 217 326 228 q 399 207 361 207 m 189 1035 l 594 1035 l 594 876 l 189 876 l 189 1035 z "},"ṓ":{"ha":797,"x_min":42,"x_max":756,"o":"m 399 -7 q 187 31 264 -7 q 76 152 110 69 q 42 376 42 235 q 76 610 42 528 q 186 727 110 693 q 399 761 263 761 q 611 726 535 761 q 722 607 688 690 q 756 376 756 524 q 723 147 756 229 q 614 29 690 65 q 399 -7 538 -7 m 399 207 q 453 217 436 207 q 478 263 471 228 q 486 378 486 299 q 478 491 486 456 q 453 537 471 526 q 399 547 436 547 q 344 537 361 547 q 319 491 326 526 q 311 378 311 456 q 319 263 311 299 q 344 217 326 228 q 399 207 361 207 m 189 1035 l 594 1035 l 594 876 l 189 876 l 189 1035 m 410 1269 l 624 1269 l 474 1071 l 315 1071 l 410 1269 z "},"ṑ":{"ha":797,"x_min":42,"x_max":756,"o":"m 399 -7 q 187 31 264 -7 q 76 152 110 69 q 42 376 42 235 q 76 610 42 528 q 186 727 110 693 q 399 761 263 761 q 611 726 535 761 q 722 607 688 690 q 756 376 756 524 q 723 147 756 229 q 614 29 690 65 q 399 -7 538 -7 m 399 207 q 453 217 436 207 q 478 263 471 228 q 486 378 486 299 q 478 491 486 456 q 453 537 471 526 q 399 547 436 547 q 344 537 361 547 q 319 491 326 526 q 311 378 311 456 q 319 263 311 299 q 344 217 326 228 q 399 207 361 207 m 189 1035 l 594 1035 l 594 876 l 189 876 l 189 1035 m 176 1269 l 390 1269 l 485 1071 l 326 1071 l 176 1269 z "},"ǫ":{"ha":797,"x_min":42,"x_max":756,"o":"m 493 -3 q 453 -40 464 -22 q 442 -82 442 -58 q 459 -124 442 -108 q 500 -140 476 -140 l 514 -140 l 514 -265 q 464 -272 500 -272 q 351 -234 386 -272 q 315 -144 315 -196 q 335 -64 315 -99 q 389 -7 354 -29 q 182 33 257 -6 q 74 153 107 71 q 42 376 42 236 q 76 610 42 528 q 186 727 110 693 q 399 761 263 761 q 611 726 535 761 q 722 607 688 690 q 756 376 756 524 q 731 169 756 247 q 650 50 707 92 q 493 -3 593 8 m 311 378 q 319 263 311 299 q 344 217 326 228 q 399 207 361 207 q 453 217 436 207 q 478 263 471 228 q 486 378 486 299 q 478 491 486 456 q 453 537 471 526 q 399 547 436 547 q 344 537 361 547 q 319 491 326 526 q 311 378 311 456 z "},"ø":{"ha":797,"x_min":18,"x_max":779,"o":"m 697 653 q 742 541 728 608 q 756 376 756 474 q 723 147 756 229 q 614 29 690 65 q 399 -7 538 -7 q 171 39 250 -7 l 138 0 l 18 0 l 104 100 q 56 213 71 144 q 42 376 42 281 q 76 610 42 528 q 186 727 110 693 q 399 761 263 761 q 631 715 553 761 l 660 749 l 779 749 l 697 653 m 311 342 l 467 524 q 442 542 457 538 q 399 547 426 547 q 344 537 361 547 q 319 491 326 526 q 311 378 311 456 l 311 342 m 486 407 l 333 228 q 357 211 342 215 q 399 207 372 207 q 453 217 436 207 q 478 263 471 228 q 486 378 486 299 l 486 407 z "},"ǿ":{"ha":797,"x_min":18,"x_max":779,"o":"m 697 653 q 742 541 728 608 q 756 376 756 474 q 723 147 756 229 q 614 29 690 65 q 399 -7 538 -7 q 171 39 250 -7 l 138 0 l 18 0 l 104 100 q 56 213 71 144 q 42 376 42 281 q 76 610 42 528 q 186 727 110 693 q 399 761 263 761 q 631 715 553 761 l 660 749 l 779 749 l 697 653 m 311 342 l 467 524 q 442 542 457 538 q 399 547 426 547 q 344 537 361 547 q 319 491 326 526 q 311 378 311 456 l 311 342 m 486 407 l 333 228 q 357 211 342 215 q 399 207 372 207 q 453 217 436 207 q 478 263 471 228 q 486 378 486 299 l 486 407 m 424 1075 l 638 1075 l 488 876 l 329 876 l 424 1075 z "},"õ":{"ha":797,"x_min":42,"x_max":756,"o":"m 399 -7 q 187 31 264 -7 q 76 152 110 69 q 42 376 42 235 q 76 610 42 528 q 186 727 110 693 q 399 761 263 761 q 611 726 535 761 q 722 607 688 690 q 756 376 756 524 q 723 147 756 229 q 614 29 690 65 q 399 -7 538 -7 m 399 207 q 453 217 436 207 q 478 263 471 228 q 486 378 486 299 q 478 491 486 456 q 453 537 471 526 q 399 547 436 547 q 344 537 361 547 q 319 491 326 526 q 311 378 311 456 q 319 263 311 299 q 344 217 326 228 q 399 207 361 207 m 138 857 q 185 1010 144 963 q 292 1058 226 1058 q 355 1050 328 1058 q 411 1028 382 1042 q 451 1012 435 1017 q 486 1007 468 1007 q 529 1068 525 1007 l 663 1068 q 513 860 653 860 q 448 868 478 860 q 386 892 418 876 q 359 902 382 893 q 317 911 336 911 q 271 857 279 911 l 138 857 z "},"ṍ":{"ha":797,"x_min":42,"x_max":756,"o":"m 399 -7 q 187 31 264 -7 q 76 152 110 69 q 42 376 42 235 q 76 610 42 528 q 186 727 110 693 q 399 761 263 761 q 611 726 535 761 q 722 607 688 690 q 756 376 756 524 q 723 147 756 229 q 614 29 690 65 q 399 -7 538 -7 m 399 207 q 453 217 436 207 q 478 263 471 228 q 486 378 486 299 q 478 491 486 456 q 453 537 471 526 q 399 547 436 547 q 344 537 361 547 q 319 491 326 526 q 311 378 311 456 q 319 263 311 299 q 344 217 326 228 q 399 207 361 207 m 138 857 q 185 1010 144 963 q 292 1058 226 1058 q 355 1050 328 1058 q 411 1028 382 1042 q 451 1012 435 1017 q 486 1007 468 1007 q 529 1068 525 1007 l 663 1068 q 513 860 653 860 q 448 868 478 860 q 386 892 418 876 q 359 902 382 893 q 317 911 336 911 q 271 857 279 911 l 138 857 m 410 1297 l 624 1297 l 474 1099 l 315 1099 l 410 1297 z "},"ṏ":{"ha":797,"x_min":42,"x_max":756,"o":"m 399 -7 q 187 31 264 -7 q 76 152 110 69 q 42 376 42 235 q 76 610 42 528 q 186 727 110 693 q 399 761 263 761 q 611 726 535 761 q 722 607 688 690 q 756 376 756 524 q 723 147 756 229 q 614 29 690 65 q 399 -7 538 -7 m 399 207 q 453 217 436 207 q 478 263 471 228 q 486 378 486 299 q 478 491 486 456 q 453 537 471 526 q 399 547 436 547 q 344 537 361 547 q 319 491 326 526 q 311 378 311 456 q 319 263 311 299 q 344 217 326 228 q 399 207 361 207 m 138 857 q 185 1010 144 963 q 292 1058 226 1058 q 355 1050 328 1058 q 411 1028 382 1042 q 451 1012 435 1017 q 486 1007 468 1007 q 529 1068 525 1007 l 663 1068 q 513 860 653 860 q 448 868 478 860 q 386 892 418 876 q 359 902 382 893 q 317 911 336 911 q 271 857 279 911 l 138 857 m 206 1107 q 181 1116 190 1107 q 172 1139 172 1125 l 172 1293 q 181 1319 172 1310 q 206 1328 189 1328 l 331 1328 q 354 1318 346 1328 q 363 1293 363 1308 l 363 1139 q 354 1115 363 1124 q 331 1107 346 1107 l 206 1107 m 479 1107 q 455 1116 464 1107 q 446 1139 446 1125 l 446 1293 q 454 1319 446 1310 q 479 1328 463 1328 l 604 1328 q 628 1318 619 1328 q 636 1293 636 1308 l 636 1139 q 628 1115 636 1124 q 604 1107 619 1107 l 479 1107 z "},"ȭ":{"ha":797,"x_min":42,"x_max":756,"o":"m 399 -7 q 187 31 264 -7 q 76 152 110 69 q 42 376 42 235 q 76 610 42 528 q 186 727 110 693 q 399 761 263 761 q 611 726 535 761 q 722 607 688 690 q 756 376 756 524 q 723 147 756 229 q 614 29 690 65 q 399 -7 538 -7 m 399 207 q 453 217 436 207 q 478 263 471 228 q 486 378 486 299 q 478 491 486 456 q 453 537 471 526 q 399 547 436 547 q 344 537 361 547 q 319 491 326 526 q 311 378 311 456 q 319 263 311 299 q 344 217 326 228 q 399 207 361 207 m 189 1313 l 594 1313 l 594 1154 l 189 1154 l 189 1313 m 110 857 q 158 1010 117 963 q 264 1058 199 1058 q 327 1050 300 1058 q 383 1028 354 1042 q 424 1012 407 1017 q 458 1007 440 1007 q 501 1068 497 1007 l 635 1068 q 485 860 625 860 q 420 868 450 860 q 358 892 390 876 q 331 902 354 893 q 289 911 308 911 q 243 857 251 911 l 110 857 z "},"œ":{"ha":1176,"x_min":42,"x_max":1135,"o":"m 742 282 q 777 211 744 231 q 889 192 810 192 l 1107 192 l 1107 35 q 807 -7 969 -7 q 619 50 686 -7 q 399 -7 551 -7 q 187 31 264 -7 q 76 152 110 69 q 42 376 42 235 q 76 610 42 528 q 186 727 110 693 q 399 761 263 761 q 527 747 474 761 q 618 704 581 733 q 817 761 685 761 q 1008 736 940 761 q 1106 649 1076 711 q 1135 468 1135 586 q 1069 329 1135 376 q 903 282 1003 282 l 742 282 m 818 569 q 757 540 775 569 q 739 439 739 511 l 850 439 q 888 453 876 439 q 899 499 899 468 q 880 551 899 533 q 818 569 861 569 m 399 193 q 453 205 436 193 q 478 255 471 217 q 486 378 486 293 q 478 501 486 463 q 453 550 471 539 q 399 561 436 561 q 344 550 361 561 q 319 501 326 539 q 311 378 311 463 q 319 255 311 293 q 344 205 326 217 q 399 193 361 193 z "},"p":{"ha":819,"x_min":61,"x_max":778,"o":"m 61 749 l 289 749 l 331 681 q 419 742 379 722 q 514 761 458 761 q 713 666 649 761 q 778 372 778 571 q 756 163 778 246 q 675 35 733 81 q 514 -11 617 -11 q 331 24 401 -11 l 331 -329 l 61 -329 l 61 749 m 422 210 q 508 372 508 210 q 488 509 508 472 q 424 546 467 546 q 372 538 397 546 q 331 518 346 529 l 331 231 q 370 215 344 221 q 422 210 396 210 z "},"ṗ":{"ha":819,"x_min":61,"x_max":778,"o":"m 61 749 l 289 749 l 331 681 q 419 742 379 722 q 514 761 458 761 q 713 666 649 761 q 778 372 778 571 q 756 163 778 246 q 675 35 733 81 q 514 -11 617 -11 q 331 24 401 -11 l 331 -329 l 61 -329 l 61 749 m 422 210 q 508 372 508 210 q 488 509 508 472 q 424 546 467 546 q 372 538 397 546 q 331 518 346 529 l 331 231 q 370 215 344 221 q 422 210 396 210 m 333 881 q 309 890 318 881 q 300 913 300 899 l 300 1067 q 308 1092 300 1083 q 333 1101 317 1101 l 458 1101 q 482 1092 474 1101 q 490 1067 490 1082 l 490 913 q 482 889 490 897 q 458 881 474 881 l 333 881 z "},"þ":{"ha":819,"x_min":61,"x_max":778,"o":"m 61 1060 l 331 1060 l 331 681 q 419 742 379 722 q 514 761 458 761 q 709 664 640 761 q 778 372 778 567 q 717 88 778 186 q 514 -11 657 -11 q 331 24 401 -11 l 331 -329 l 61 -329 l 61 1060 m 422 210 q 508 358 508 210 q 488 506 508 467 q 424 546 467 546 q 372 538 397 546 q 331 518 346 529 l 331 231 q 370 215 344 221 q 422 210 396 210 z "},"q":{"ha":817,"x_min":42,"x_max":758,"o":"m 489 68 q 409 14 456 36 q 321 -8 363 -8 q 154 31 215 -8 q 67 153 93 71 q 42 372 42 235 q 73 608 42 524 q 167 726 104 692 q 332 761 229 761 q 545 750 425 761 q 758 725 665 739 l 758 -329 l 489 -329 l 489 68 m 403 207 q 448 217 419 207 q 489 235 476 226 l 489 561 l 419 561 q 354 545 378 561 q 321 491 331 529 q 311 382 311 453 q 319 267 311 304 q 347 219 328 231 q 403 207 365 207 z "},"r":{"ha":597,"x_min":61,"x_max":569,"o":"m 61 749 l 271 749 l 331 644 q 413 728 369 697 q 514 760 457 760 q 569 753 544 760 l 569 476 q 478 482 506 482 q 331 424 374 482 l 331 0 l 61 0 l 61 749 z "},"ŕ":{"ha":597,"x_min":61,"x_max":569,"o":"m 61 749 l 271 749 l 331 644 q 413 728 369 697 q 514 760 457 760 q 569 753 544 760 l 569 476 q 478 482 506 482 q 331 424 374 482 l 331 0 l 61 0 l 61 749 m 344 1075 l 558 1075 l 408 876 l 250 876 l 344 1075 z "},"ř":{"ha":597,"x_min":61,"x_max":569,"o":"m 61 749 l 271 749 l 331 644 q 413 728 369 697 q 514 760 457 760 q 569 753 544 760 l 569 476 q 478 482 506 482 q 331 424 374 482 l 331 0 l 61 0 l 61 749 m 97 1079 l 251 1079 l 319 994 l 389 1079 l 544 1079 l 406 876 l 224 876 l 97 1079 z "},"ŗ":{"ha":597,"x_min":61,"x_max":569,"o":"m 61 749 l 271 749 l 331 644 q 413 728 369 697 q 514 760 457 760 q 569 753 544 760 l 569 476 q 478 482 506 482 q 331 424 374 482 l 331 0 l 61 0 l 61 749 m 72 -203 l 108 -190 q 152 -164 142 -179 q 163 -110 163 -149 l 325 -110 q 288 -265 325 -218 q 157 -312 251 -312 l 72 -312 l 72 -203 z "}}}
